G04*
G04 #@! TF.GenerationSoftware,Altium Limited,Altium Designer,20.1.7 (139)*
G04*
G04 Layer_Physical_Order=1*
G04 Layer_Color=255*
%FSLAX44Y44*%
%MOMM*%
G71*
G04*
G04 #@! TF.SameCoordinates,5176B2A9-6DC6-4D15-A643-430D7AC4E40B*
G04*
G04*
G04 #@! TF.FilePolarity,Positive*
G04*
G01*
G75*
%ADD10C,0.2000*%
%ADD11C,0.5000*%
%ADD16C,0.4000*%
%ADD17R,3.5000X2.2000*%
%ADD18R,0.6000X2.2000*%
%ADD19R,2.5000X1.6000*%
%ADD20R,1.6000X2.5000*%
%ADD21R,1.0000X0.5500*%
%ADD22R,0.5500X1.0000*%
%ADD23R,1.6000X3.0000*%
%ADD24R,2.7000X2.0000*%
%ADD25R,0.8000X0.8000*%
%ADD26R,1.3500X0.4000*%
%ADD27R,1.4000X1.6000*%
%ADD28R,1.9000X1.9000*%
%ADD29R,0.5500X1.5000*%
%ADD30R,1.5000X0.5500*%
%ADD31R,0.6858X0.5588*%
%ADD32R,0.5588X0.6858*%
%ADD33R,1.3000X0.7000*%
%ADD34R,0.7000X1.3000*%
%ADD35R,0.9000X0.6000*%
%ADD36R,1.3000X0.9000*%
%ADD37R,0.9000X1.3000*%
%ADD67C,1.9000*%
%ADD68R,1.9000X1.9000*%
%ADD74C,1.0160*%
%ADD75C,0.6000*%
%ADD76C,0.7000*%
%ADD77C,1.0000*%
%ADD78C,0.8000*%
%ADD79R,1.6000X2.0000*%
%ADD80O,1.6000X2.0000*%
%ADD81C,3.2000*%
%ADD82C,4.0000*%
%ADD83O,2.0000X1.6000*%
%ADD84R,2.0000X1.6000*%
%ADD85C,7.4000*%
%ADD86C,1.7000*%
%ADD87R,1.7000X1.7000*%
G04:AMPARAMS|DCode=88|XSize=2mm|YSize=1.2mm|CornerRadius=0.36mm|HoleSize=0mm|Usage=FLASHONLY|Rotation=0.000|XOffset=0mm|YOffset=0mm|HoleType=Round|Shape=RoundedRectangle|*
%AMROUNDEDRECTD88*
21,1,2.0000,0.4800,0,0,0.0*
21,1,1.2800,1.2000,0,0,0.0*
1,1,0.7200,0.6400,-0.2400*
1,1,0.7200,-0.6400,-0.2400*
1,1,0.7200,-0.6400,0.2400*
1,1,0.7200,0.6400,0.2400*
%
%ADD88ROUNDEDRECTD88*%
%ADD89C,0.6000*%
%ADD90C,1.0000*%
G36*
X57000Y441000D02*
X57000Y424000D01*
X56000Y423000D01*
X51402D01*
X50800Y423079D01*
X50198Y423000D01*
X41000D01*
X39000Y419333D01*
Y405000D01*
X32000Y398000D01*
X14000D01*
Y423000D01*
Y436000D01*
Y441000D01*
X15000Y442000D01*
X56000D01*
X57000Y441000D01*
D02*
G37*
G36*
X296000Y446000D02*
Y410500D01*
X295000Y409500D01*
X280000D01*
X279000Y410500D01*
Y444750D01*
X280500Y447000D01*
X295000D01*
X296000Y446000D01*
D02*
G37*
G36*
X645750Y422250D02*
Y410000D01*
X648750Y407000D01*
Y406750D01*
X679250D01*
X682750Y403250D01*
Y294250D01*
X679750Y291250D01*
X676491D01*
X676321Y291321D01*
X674624Y291544D01*
X579456D01*
X578500Y292500D01*
Y360500D01*
X577644Y361356D01*
Y363322D01*
X575678D01*
X575000Y364000D01*
X568750D01*
X566250Y366500D01*
Y406750D01*
X629500D01*
Y424750D01*
X643250D01*
X645750Y422250D01*
D02*
G37*
G36*
X635900Y198500D02*
Y198420D01*
X648080D01*
X652000Y194500D01*
X652000Y181000D01*
X655920Y177080D01*
Y161964D01*
X664500D01*
Y159038D01*
X664443Y158750D01*
X664500Y158462D01*
Y149714D01*
X663285Y148500D01*
X657920Y148500D01*
Y150964D01*
X646420D01*
Y147000D01*
X627398Y147000D01*
X626500Y147898D01*
X626500Y162500D01*
X620500Y168500D01*
X620500Y188930D01*
X631650D01*
Y198500D01*
X635900D01*
D02*
G37*
G36*
X44034Y241606D02*
X54000D01*
Y236591D01*
X53573Y234442D01*
Y222008D01*
X51564Y220000D01*
X41000D01*
X40000Y219000D01*
X38995D01*
Y209000D01*
Y202500D01*
Y196000D01*
Y189500D01*
X55177D01*
X57000Y187677D01*
X57000Y174500D01*
X63501Y167999D01*
X79601Y167999D01*
X80499Y167101D01*
X80499Y163973D01*
X80499Y163500D01*
X80520Y162712D01*
X81288Y162712D01*
X81500Y162500D01*
X92338Y162500D01*
X93000Y162500D01*
X93520Y162712D01*
X93520Y163554D01*
Y181712D01*
X93520D01*
X93500Y181732D01*
Y183000D01*
X95000Y184500D01*
X99622D01*
Y184302D01*
X112622D01*
Y184500D01*
X113500D01*
X124000Y195000D01*
X144890Y195000D01*
X145493Y194098D01*
X150196Y189395D01*
X151850Y188290D01*
X153800Y187902D01*
X179000D01*
X179730Y188047D01*
X181000Y187005D01*
X181000Y168000D01*
X177358Y164358D01*
X153022D01*
X151224Y164000D01*
X132500Y164000D01*
X130000Y161500D01*
Y126296D01*
X129941Y126000D01*
X129941Y126000D01*
Y122059D01*
X108000D01*
X107705Y122000D01*
X106500D01*
X104000Y119500D01*
Y118295D01*
X103941Y118000D01*
X103941Y118000D01*
Y78000D01*
X104000Y77705D01*
Y76500D01*
X105200Y75300D01*
Y75000D01*
X105500D01*
X107000Y73500D01*
X107342D01*
X107830Y73174D01*
X109000Y72941D01*
X109000Y72941D01*
X128000Y72941D01*
X129171Y73174D01*
X129658Y73500D01*
X185500D01*
X187181Y75181D01*
X188163Y75837D01*
X188163Y75837D01*
X189163Y76837D01*
X189819Y77819D01*
X190000Y78000D01*
Y78704D01*
X190059Y79000D01*
X190059Y79000D01*
Y91941D01*
X216000D01*
Y5500D01*
X214500Y4000D01*
X83059D01*
Y35000D01*
X82826Y36170D01*
X82628Y36467D01*
Y37198D01*
X82110D01*
X81171Y37826D01*
X80000Y38059D01*
X46441D01*
X46059Y38441D01*
Y72000D01*
X46000Y72295D01*
Y73500D01*
X45500Y74000D01*
X47000Y75500D01*
X61638D01*
X61830Y75372D01*
X63000Y75139D01*
X80000D01*
X81171Y75372D01*
X81542Y75620D01*
X82628D01*
Y76731D01*
X82826Y77028D01*
X83059Y78198D01*
Y91500D01*
X91500D01*
X91941Y91941D01*
X92000D01*
X93170Y92174D01*
X94163Y92837D01*
X94826Y93829D01*
X95059Y95000D01*
Y116000D01*
X95000Y116296D01*
Y116500D01*
X94949Y116551D01*
X94826Y117170D01*
X94163Y118163D01*
X93170Y118826D01*
X92550Y118949D01*
X92000Y119500D01*
X81500Y119500D01*
X80819Y118819D01*
X79837Y118163D01*
X79181Y117181D01*
X78500Y116500D01*
X78500Y112957D01*
X77602Y112059D01*
X40000D01*
X38830Y111826D01*
X37837Y111163D01*
X37837Y111163D01*
X33733Y107059D01*
X6941D01*
X4000Y110000D01*
Y241000D01*
Y243000D01*
X44034D01*
Y241606D01*
D02*
G37*
G36*
X192000Y126000D02*
Y107000D01*
X218000D01*
Y96000D01*
X217000Y95000D01*
X187000D01*
Y79000D01*
X186000Y78000D01*
X158000D01*
X158000Y101000D01*
X170000Y101000D01*
X170000Y126000D01*
X171000Y127000D01*
X191000D01*
X192000Y126000D01*
D02*
G37*
G36*
X92000Y95000D02*
X80000D01*
Y78198D01*
X63000D01*
Y83000D01*
X3000D01*
Y104000D01*
X35000D01*
X40000Y109000D01*
X82000D01*
Y116000D01*
X92000D01*
Y95000D01*
D02*
G37*
G36*
X154000Y126000D02*
Y102000D01*
X130000D01*
X128000Y100000D01*
Y76000D01*
X109000Y76000D01*
X107000Y78000D01*
Y118000D01*
X108000Y119000D01*
X133000D01*
Y126000D01*
X134000Y127000D01*
X153000D01*
X154000Y126000D01*
D02*
G37*
G36*
X474000Y136500D02*
Y72000D01*
X472250Y70250D01*
X454809D01*
Y84750D01*
X454576Y85921D01*
X454310Y86318D01*
X453913Y86913D01*
X453913Y86913D01*
X453163Y87663D01*
X452750Y87939D01*
Y108750D01*
X451000Y110500D01*
X451000Y116250D01*
X454000Y119250D01*
X454000Y137000D01*
X455250Y138250D01*
X472250Y138250D01*
X474000Y136500D01*
D02*
G37*
G36*
X431500Y138750D02*
Y87000D01*
X433000Y85500D01*
X451000D01*
X451750Y84750D01*
Y69750D01*
X450256Y68256D01*
X433222D01*
Y68250D01*
X417500D01*
X416059Y69691D01*
Y107000D01*
Y113000D01*
X415826Y114171D01*
X415163Y115163D01*
X414170Y115826D01*
X413000Y116059D01*
X403500D01*
X403500Y138250D01*
X407000Y141750D01*
X428500D01*
X431500Y138750D01*
D02*
G37*
G36*
X473250Y65000D02*
Y39750D01*
X472250Y38750D01*
X448500D01*
X446500Y40750D01*
X445783D01*
X444921Y41326D01*
X443750Y41559D01*
X443750Y41559D01*
X416191D01*
X416059Y41691D01*
Y64194D01*
X417329Y65225D01*
X417500Y65191D01*
X417500Y65191D01*
X433222D01*
X433252Y65197D01*
X450256D01*
X451427Y65430D01*
X452280Y66000D01*
X472250D01*
X473250Y65000D01*
D02*
G37*
G36*
X321208Y80216D02*
X339000D01*
X339000Y63000D01*
X338000Y62000D01*
X323000Y62000D01*
X318000Y57000D01*
X318000Y16000D01*
X316000Y14000D01*
X294000Y14000D01*
Y44000D01*
X293000Y45000D01*
X263000D01*
X262000Y46000D01*
Y62000D01*
X295300Y62000D01*
Y61842D01*
X314300D01*
Y76842D01*
X314000D01*
X314000Y80250D01*
X321208D01*
Y80216D01*
D02*
G37*
G36*
X490000Y104500D02*
X490000Y39500D01*
X489250Y38750D01*
X476750D01*
Y70716D01*
X476826Y70829D01*
X477059Y72000D01*
X477059Y72000D01*
Y106250D01*
X488250D01*
X490000Y104500D01*
D02*
G37*
G36*
X365000Y57000D02*
X367000Y55000D01*
X367000Y15000D01*
X366000Y14000D01*
X346000D01*
X344000Y16000D01*
X344000Y37998D01*
X342999Y39000D01*
X322000Y39000D01*
X321059Y39941D01*
X321059Y55733D01*
X322326Y57000D01*
X365000Y57000D01*
D02*
G37*
G36*
X360580Y90420D02*
Y90068D01*
X361000Y90000D01*
X361822Y90000D01*
X382999Y90000D01*
X392000Y81001D01*
X392000Y14000D01*
X370940Y14000D01*
X370390Y14624D01*
X370059Y15270D01*
X370059Y55000D01*
X370059Y55000D01*
X370059Y55001D01*
X370000Y55298D01*
Y56000D01*
X369821Y56180D01*
X369472Y56701D01*
X369163Y57163D01*
X369163Y57163D01*
X369163Y57164D01*
X367162Y59163D01*
X366691Y59478D01*
X366183Y59818D01*
X366000Y60000D01*
X365294D01*
X365000Y60059D01*
X364999D01*
X364999Y60059D01*
X364999Y60059D01*
X363320D01*
X362052Y60064D01*
Y75064D01*
X359118D01*
Y83459D01*
X358652Y85800D01*
X357326Y87785D01*
X354416Y90695D01*
X353326Y92326D01*
X351341Y93652D01*
X349000Y94117D01*
X346659Y93652D01*
X344674Y92326D01*
X343348Y90341D01*
X342882Y88000D01*
Y87459D01*
X343348Y85118D01*
X343848Y84370D01*
X343249Y83250D01*
X339124D01*
X339000Y83275D01*
X321379D01*
X321208Y83309D01*
X320000D01*
Y102000D01*
X349001Y102000D01*
X360580Y90420D01*
D02*
G37*
G36*
X413000Y107000D02*
Y38500D01*
X443750D01*
X444500Y37750D01*
Y14250D01*
X444000Y13750D01*
X395750Y13750D01*
Y106000D01*
X399750Y113000D01*
X413000D01*
Y107000D01*
D02*
G37*
G36*
X43000Y35000D02*
X80000D01*
Y4000D01*
X3000D01*
Y72000D01*
X43000D01*
Y35000D01*
D02*
G37*
%LPC*%
G36*
X597930Y380126D02*
X583930D01*
Y366126D01*
X586459D01*
Y363322D01*
X583644D01*
Y344322D01*
X596644D01*
Y363322D01*
X594615D01*
Y366126D01*
X597930D01*
Y380126D01*
D02*
G37*
%LPD*%
D10*
X62500Y356500D02*
X67056Y351944D01*
X25400Y363728D02*
X32628Y356500D01*
X62500D01*
X45392Y360500D02*
X64157D01*
X37592Y368300D02*
X45392Y360500D01*
X64157D02*
X72056Y352601D01*
X67056Y344145D02*
Y351944D01*
X72056Y346216D02*
Y352601D01*
X561000Y429000D02*
X572000Y440000D01*
X561000Y253500D02*
Y429000D01*
X592762Y445262D02*
X612902D01*
X573500Y426000D02*
X592762Y445262D01*
X529000Y249000D02*
Y442700D01*
X558162Y471862D01*
X529000Y249000D02*
X566121Y211879D01*
X541000Y260116D02*
X595250Y205866D01*
X541000Y439500D02*
X564000Y462500D01*
X541000Y260116D02*
Y439500D01*
X564000Y462500D02*
X602000D01*
X609902Y471932D02*
X612902D01*
X607902Y469932D02*
X609902Y471932D01*
X607902Y468402D02*
Y469932D01*
X602000Y462500D02*
X607902Y468402D01*
X561000Y253500D02*
X585397Y229103D01*
X554000Y421000D02*
Y436500D01*
X570432Y452932D02*
X587248D01*
X554000Y436500D02*
X570432Y452932D01*
X305500Y396432D02*
Y430500D01*
X313000Y438000D01*
X309500Y355000D02*
X357500Y403000D01*
Y463460D01*
X314960Y506000D02*
X357500Y463460D01*
X196000Y464000D02*
X271500D01*
X282500Y475000D01*
Y483000D01*
X117500Y484000D02*
X187000D01*
X88000Y513500D02*
X117500Y484000D01*
X187000D02*
X201000Y498000D01*
X37000Y479000D02*
X43000Y485000D01*
X81440D02*
X94440Y472000D01*
X43000Y485000D02*
X81440D01*
X188000Y472000D02*
X196000Y464000D01*
X94440Y472000D02*
X188000D01*
X168785Y453500D02*
X302000D01*
X168785D02*
Y456500D01*
X63740Y459500D02*
X165785D01*
X168785Y456500D01*
Y441721D02*
Y453500D01*
X50800Y472440D02*
X63740Y459500D01*
X201000Y517500D02*
X211000Y527500D01*
X201000Y498000D02*
Y517500D01*
X25400Y472440D02*
X31960Y479000D01*
X37000D01*
X60000Y513500D02*
X88000D01*
X211000Y527500D02*
X332860D01*
X53479Y507479D02*
X59750Y513750D01*
X60000Y513500D01*
X380500Y334000D02*
X425000D01*
X448000Y357000D01*
Y497008D01*
X365500Y319000D02*
X380500Y334000D01*
X372000Y346000D02*
X408500D01*
X431500Y369000D01*
X353500Y327500D02*
X372000Y346000D01*
X431500Y369000D02*
Y491060D01*
X364000Y372500D02*
X386500D01*
X400000Y386000D01*
X365760Y506000D02*
X400000Y471760D01*
Y386000D02*
Y471760D01*
X416560Y506000D02*
X431500Y491060D01*
X378500Y386500D02*
X383000Y391000D01*
X361500Y386500D02*
X378500D01*
X383000Y391000D02*
Y465425D01*
X448000Y497008D02*
X457200Y506208D01*
Y508000D01*
X332000Y250257D02*
Y340500D01*
X325000Y243257D02*
X332000Y250257D01*
Y340500D02*
X364000Y372500D01*
X318500Y224500D02*
X342500Y248500D01*
Y334000D02*
X368000Y359500D01*
X342500Y248500D02*
Y334000D01*
X303794Y217274D02*
X323774D01*
X353500Y247000D02*
Y327500D01*
X323774Y217274D02*
X353500Y247000D01*
X365500Y247000D02*
Y319000D01*
X315850Y201930D02*
X320337Y206417D01*
X324917D02*
X365500Y247000D01*
X320337Y206417D02*
X324917D01*
X375500Y242000D02*
Y312000D01*
X341250Y201930D02*
Y207448D01*
X345179Y211377D01*
Y211679D01*
X375500Y242000D01*
X366650Y217650D02*
X386000Y237000D01*
X366650Y201930D02*
Y217650D01*
X386000Y237000D02*
Y305500D01*
X257500Y177835D02*
Y205000D01*
X292500Y240000D01*
Y356500D01*
X322000Y347000D02*
X361500Y386500D01*
X277000Y206744D02*
X322000Y251743D01*
Y347000D01*
X277000Y191000D02*
Y206744D01*
X269500Y207778D02*
X309500Y247778D01*
Y355000D01*
X269500Y183000D02*
Y207778D01*
X375500Y312000D02*
X386750Y323250D01*
X340425Y508000D02*
X383000Y465425D01*
X386000Y305500D02*
X392000Y311500D01*
X292500Y356500D02*
X334500Y398500D01*
X316500Y453500D02*
X334500Y435500D01*
Y398500D02*
Y435500D01*
X314960Y506000D02*
Y508000D01*
X440750Y323250D02*
X465000Y347500D01*
Y488400D02*
X482600Y506000D01*
X465000Y347500D02*
Y488400D01*
X386750Y323250D02*
X440750D01*
X397500Y359500D02*
X416000Y378000D01*
X391160Y504002D02*
X416000Y479162D01*
Y378000D02*
Y479162D01*
X368000Y359500D02*
X397500D01*
X416560Y506000D02*
Y508000D01*
X365760Y506000D02*
Y508000D01*
X391160Y504002D02*
Y508000D01*
X482600Y506000D02*
Y508000D01*
X392000Y311500D02*
X455000D01*
X480000Y336500D01*
Y480000D01*
X427838Y250222D02*
Y271998D01*
X416880Y282956D02*
X427838Y271998D01*
X480000Y480000D02*
X508000Y508000D01*
X325000Y243000D02*
Y243257D01*
X271000Y113500D02*
X278000Y106500D01*
X352178D02*
X359110Y99568D01*
X278000Y106500D02*
X352178D01*
X278950Y118967D02*
Y173550D01*
X269500Y183000D02*
X278950Y173550D01*
X331500Y183500D02*
X341250Y173750D01*
Y125730D02*
Y173750D01*
X284500Y183500D02*
X331500D01*
X277000Y191000D02*
X284500Y183500D01*
X257500Y177835D02*
X271000Y164335D01*
Y113500D02*
Y164335D01*
X302000Y453500D02*
X316500D01*
X302000D02*
Y485654D01*
X247000Y162000D02*
Y177000D01*
Y162000D02*
X249894Y159106D01*
X260096D01*
X340360Y508000D02*
Y520000D01*
X332860Y527500D02*
X340360Y520000D01*
X167856Y440792D02*
X168785Y441721D01*
X495046Y469646D02*
X533400Y508000D01*
X495046Y203326D02*
Y469646D01*
X533400Y508000D02*
Y508000D01*
X507500Y455500D02*
X558800Y506800D01*
X507500Y218998D02*
Y455500D01*
X558800Y506800D02*
Y508000D01*
X518000Y446500D02*
X575013Y503513D01*
X518000Y237300D02*
Y446500D01*
Y237300D02*
X542071Y213229D01*
X645400Y242824D02*
X651662D01*
X627126Y244348D02*
X634152D01*
X635648Y242852D02*
X645400D01*
X634152Y244348D02*
X635648Y242852D01*
X604500Y142494D02*
X651700D01*
X616000Y166320D02*
Y197280D01*
X620650Y201930D01*
X616000Y166320D02*
X622000Y160320D01*
Y143000D02*
Y160320D01*
X651700Y142494D02*
X652170Y142964D01*
X585397Y229103D02*
X604677D01*
X579713Y503513D02*
X584200Y508000D01*
X575013Y503513D02*
X579713D01*
X507500Y218998D02*
X519050Y207448D01*
X340360Y508000D02*
X340425D01*
X508000Y508000D02*
Y508000D01*
X314000Y424000D02*
X320000Y430000D01*
X314000Y392232D02*
Y424000D01*
X279768Y358000D02*
X314000Y392232D01*
X614000Y420500D02*
Y438000D01*
X628000Y452000D01*
X670560Y158750D02*
Y184486D01*
X619500Y413000D02*
X624746Y418246D01*
X572500Y413000D02*
X619500D01*
X624746Y418246D02*
Y441675D01*
X495000Y28250D02*
Y109493D01*
X334518Y6604D02*
X473354D01*
X495000Y28250D01*
X564500Y45100D02*
X584200Y25400D01*
X564500Y114973D02*
X569850Y120323D01*
X564500Y45100D02*
Y114973D01*
X569850Y120323D02*
Y125730D01*
X526500Y36907D02*
X533400Y30007D01*
X519050Y120212D02*
X526500Y112762D01*
Y36907D02*
Y112762D01*
X600750Y55750D02*
Y103830D01*
X626613Y29887D02*
X630863D01*
X633500Y27250D01*
X600750Y55750D02*
X626613Y29887D01*
X600750Y103830D02*
X617203Y120283D01*
X582250Y54346D02*
X599686Y36910D01*
X582250Y109223D02*
X595250Y122223D01*
X582250Y54346D02*
Y109223D01*
X544450Y40842D02*
X558800Y26492D01*
X544450Y40842D02*
Y125730D01*
X519050Y120212D02*
Y125730D01*
X595250Y122223D02*
Y125730D01*
X558800Y25400D02*
Y26492D01*
X533400Y25400D02*
Y30007D01*
X617203Y120283D02*
X620650Y123730D01*
Y125730D01*
X480500Y118000D02*
X487250Y111250D01*
X493243D01*
X495000Y109493D01*
X480500Y118000D02*
Y143500D01*
X488000Y151000D01*
X596000D01*
X604500Y142500D01*
X493650Y122600D02*
X508000Y108250D01*
Y25400D02*
Y108250D01*
X493650Y122600D02*
Y125730D01*
X68616Y324184D02*
X87966D01*
X92150Y320000D01*
X50800Y342000D02*
X68616Y324184D01*
X72056Y346216D02*
X80038Y338234D01*
X64032Y366776D02*
X77574Y353234D01*
X50038Y372618D02*
Y385318D01*
X50800Y386080D01*
X77574Y353234D02*
X82988D01*
X80038Y338234D02*
X117508D01*
X82988Y353234D02*
X84988Y351234D01*
X50038Y372618D02*
X55880Y366776D01*
X64032D01*
X175974Y384962D02*
X189512Y398500D01*
X216692D01*
X172974Y384962D02*
X175974D01*
X234878Y393500D02*
X237364Y395986D01*
X205032Y393500D02*
X234878D01*
X171500Y359968D02*
X205032Y393500D01*
X171500Y342000D02*
Y359968D01*
X234864Y381976D02*
Y385243D01*
X179500Y359078D02*
X207422Y387000D01*
X234864Y381976D02*
X237364Y379476D01*
X233107Y387000D02*
X234864Y385243D01*
X207422Y387000D02*
X233107D01*
X200774Y358000D02*
X279768D01*
X195072Y352298D02*
X200774Y358000D01*
X37592Y368300D02*
Y396592D01*
X51000Y410000D01*
X291446Y496208D02*
X302000Y485654D01*
X612902Y445262D02*
Y452932D01*
X222000Y403808D02*
Y405000D01*
X216692Y398500D02*
X222000Y403808D01*
X262382Y398058D02*
Y437663D01*
X264139Y439420D01*
X260310Y395986D02*
X262382Y398058D01*
X236000Y421000D02*
Y422242D01*
X227242Y431000D02*
X236000Y422242D01*
X194856Y421792D02*
X197106D01*
X206314Y431000D01*
X227242D01*
X172720Y384708D02*
X172974Y384962D01*
X111000Y382000D02*
X151063D01*
X101000Y372000D02*
X111000Y382000D01*
X151063D02*
X160500Y391437D01*
X86000Y364000D02*
X106000D01*
X112000Y370000D01*
X145800D01*
X78879Y388759D02*
X87759D01*
X93000Y394000D02*
X144800D01*
X87759Y388759D02*
X93000Y394000D01*
X76200Y386080D02*
X78879Y388759D01*
X144800Y394000D02*
X146000Y395200D01*
X84000Y372000D02*
X101000D01*
X76000Y364000D02*
X84000Y372000D01*
X82017Y329184D02*
X116316D01*
X67056Y344145D02*
X82017Y329184D01*
X117508Y338234D02*
X121274Y342000D01*
X67310Y317500D02*
X86655D01*
X55626Y329184D02*
X67310Y317500D01*
X86655D02*
X92155Y312000D01*
X58688Y312500D02*
X80844D01*
X89344Y304000D01*
X54588Y316600D02*
X58688Y312500D01*
X116316Y329184D02*
X117500Y328000D01*
X92155Y312000D02*
X117500D01*
X59000Y277000D02*
X68000D01*
X69000D02*
X79692D01*
X117263Y271763D02*
X117500Y272000D01*
X68784Y274356D02*
X70034Y273106D01*
X79692Y277000D02*
X84480Y281788D01*
X68784Y274356D02*
Y276606D01*
X276352Y367284D02*
X305500Y396432D01*
X53479Y500519D02*
Y507479D01*
X50800Y497840D02*
X53479Y500519D01*
X92150Y320000D02*
X117500D01*
X145800Y370000D02*
X146000Y369800D01*
X149122Y420600D02*
X160500Y409222D01*
Y391437D02*
Y409222D01*
X354920Y112000D02*
X366650Y123730D01*
X278950Y118967D02*
X285917Y112000D01*
X354920D01*
X359110Y99568D02*
X367080D01*
X366650Y123730D02*
Y125730D01*
X616243Y121243D02*
X620000Y125000D01*
X600090Y36910D02*
X609600Y27400D01*
X599686Y36910D02*
X600090D01*
X659000Y472000D02*
X662000Y469000D01*
X636000Y472000D02*
X659000D01*
X626671Y443600D02*
X662000D01*
X624746Y441675D02*
X626671Y443600D01*
X628000Y452000D02*
X630000D01*
X636000Y434000D02*
X646200D01*
X662000Y418200D01*
X60534Y243522D02*
X67074Y236982D01*
X87122D01*
X60534Y243522D02*
Y248356D01*
X59284Y249606D02*
X60534Y248356D01*
X96266Y281280D02*
X96774Y281788D01*
X96266Y276098D02*
Y281280D01*
X100364Y272000D02*
X117500D01*
X96266Y276098D02*
X100364Y272000D01*
X84480Y281788D02*
X96774D01*
X49784Y249606D02*
X59284D01*
X44018D02*
X49784D01*
X663678Y262594D02*
X667996D01*
X598424D02*
X663678D01*
X667263Y259009D01*
X663424Y262848D02*
X663678Y262594D01*
X651764Y242926D02*
X667244D01*
Y250931D01*
Y242852D02*
Y242926D01*
X667263Y250950D02*
Y259009D01*
X667244Y250931D02*
X667263Y250950D01*
X422326Y247222D02*
X424838D01*
X408736Y233632D02*
X422326Y247222D01*
X408736Y220616D02*
Y233632D01*
X519050Y201930D02*
Y207448D01*
X60452Y197612D02*
X77230D01*
X609600Y25400D02*
Y27400D01*
X645400Y205920D02*
Y223852D01*
X645995Y223257D01*
X648716Y205994D02*
Y207236D01*
X650400Y208920D01*
X656082Y183132D02*
Y197238D01*
X660420Y171214D02*
Y178794D01*
X656082Y183132D02*
X660420Y178794D01*
X647400Y205920D02*
X656082Y197238D01*
X660420Y171214D02*
X661670Y169964D01*
X645400Y205920D02*
X647400D01*
X667996Y262594D02*
X670560Y260030D01*
X604677Y229103D02*
X606450Y227330D01*
X615696D01*
X146000Y420600D02*
X149122D01*
X37792Y304600D02*
X81673D01*
X89344Y304000D02*
X117500D01*
X81673Y304600D02*
X90273Y296000D01*
X117500D01*
X48745Y194500D02*
X49245Y194000D01*
X56445D01*
X61214Y189231D01*
Y177038D02*
Y189231D01*
X66040Y172212D02*
X87020D01*
X61214Y177038D02*
X66040Y172212D01*
X238036Y140106D02*
X238036Y140106D01*
X260096D01*
X223520Y103357D02*
X225277Y101600D01*
X211036Y149606D02*
X221763D01*
X225277Y101600D02*
X230800D01*
X221763Y149606D02*
X223520Y147849D01*
Y103357D02*
Y147849D01*
X211036Y149606D02*
Y159106D01*
X272200Y89394D02*
X272440Y89154D01*
X272200Y89394D02*
Y97300D01*
X235712Y101498D02*
X268002D01*
X272200Y97300D01*
X291000Y71900D02*
Y88714D01*
X288290Y69190D02*
X291000Y71900D01*
X274574Y69190D02*
X288290D01*
X291000Y88714D02*
X291440Y89154D01*
X259010Y69190D02*
X274574D01*
X246300Y81900D02*
X259010Y69190D01*
X246300Y16900D02*
Y81900D01*
X392050Y108538D02*
Y125730D01*
X386080Y102568D02*
X392050Y108538D01*
X386080Y99568D02*
Y102568D01*
X558162Y471862D02*
X587178D01*
X542071Y204309D02*
X544450Y201930D01*
X542071Y204309D02*
Y213229D01*
X569850Y201930D02*
Y207448D01*
X566121Y211177D02*
Y211879D01*
Y211177D02*
X569850Y207448D01*
X157226Y200526D02*
Y241726D01*
X156700Y200000D02*
X157226Y200526D01*
Y241726D02*
X163257Y247757D01*
Y257757D02*
X163500Y258000D01*
X163257Y247757D02*
Y257757D01*
X166240Y241240D02*
X171501Y246501D01*
X171500Y246500D02*
Y258000D01*
X166240Y208836D02*
Y241240D01*
X106185Y193783D02*
X114118D01*
X106122Y215392D02*
X106141Y215411D01*
X114074D01*
X86961Y193963D02*
X87122Y193802D01*
X77230Y197612D02*
X80879Y193963D01*
X86961D01*
X77590Y211702D02*
X81280Y215392D01*
X87122D01*
X69850Y211702D02*
X77590D01*
X57150Y200914D02*
X60452Y197612D01*
X48745Y201000D02*
X48831Y200914D01*
X57150D01*
X62604Y211702D02*
X69850D01*
X58402Y207500D02*
X62604Y211702D01*
X48745Y207500D02*
X58402D01*
X33528Y255016D02*
X34691Y253853D01*
X39771D01*
X44018Y249606D01*
X13208Y271272D02*
X13868Y270612D01*
Y255676D02*
Y270612D01*
Y255676D02*
X14528Y255016D01*
X13208Y271272D02*
X13970Y272034D01*
Y275082D01*
X15646Y276758D01*
X31496D01*
X250698Y282194D02*
X264160Y295656D01*
X233426Y282194D02*
X250698D01*
X254406Y345186D02*
X261112D01*
X264160Y316092D02*
Y342138D01*
X261112Y345186D02*
X264160Y342138D01*
X260262Y263194D02*
X263862Y266794D01*
X264160Y267092D01*
X263862Y249708D02*
Y266794D01*
X254406Y240252D02*
X263862Y249708D01*
X254406Y238252D02*
Y240252D01*
X233426Y263194D02*
X260262D01*
X223978D02*
X233426D01*
X215172Y272000D02*
X223978Y263194D01*
X201500Y272000D02*
X215172D01*
X264160Y295656D02*
Y316092D01*
X219202Y282194D02*
X233426D01*
X217008Y280000D02*
X219202Y282194D01*
X201500Y280000D02*
X217008D01*
X179500Y342000D02*
Y359078D01*
X187500Y356156D02*
X198628Y367284D01*
X276352D01*
X195072Y339344D02*
Y352298D01*
Y339344D02*
X200923Y333493D01*
X201500Y328000D02*
Y328673D01*
X200923Y329250D02*
X201500Y328673D01*
X200923Y329250D02*
Y333493D01*
X187500Y342000D02*
Y356156D01*
X155500Y342000D02*
Y359742D01*
X172720Y376962D01*
Y384708D01*
X272440Y387248D02*
Y417576D01*
X264668Y379476D02*
X272440Y387248D01*
X253364Y379476D02*
X264668D01*
X253364Y395986D02*
X260310D01*
X264139Y439420D02*
X272440D01*
X253987Y439559D02*
X254102Y439674D01*
X253987Y420485D02*
Y439559D01*
X253872Y420370D02*
X253987Y420485D01*
X50800Y316600D02*
X54588D01*
X25792D02*
X37792Y304600D01*
X25400Y316600D02*
X25792D01*
X36322Y329184D02*
X55626D01*
X25400Y340106D02*
Y342000D01*
Y340106D02*
X36322Y329184D01*
X25400Y363728D02*
Y386080D01*
X84988Y348234D02*
Y351234D01*
X103988Y348234D02*
X113538D01*
X139500Y342000D02*
Y351303D01*
X137743Y353060D02*
X139500Y351303D01*
X118364Y353060D02*
X137743D01*
X113538Y348234D02*
X118364Y353060D01*
X121274Y342000D02*
X131500D01*
X291446Y496208D02*
Y506114D01*
X289560Y508000D02*
X291446Y506114D01*
X167856Y431292D02*
Y440792D01*
X392050Y203930D02*
X408736Y220616D01*
X424838Y247222D02*
X427838Y250222D01*
X429736Y238170D02*
X438788Y247222D01*
X442770D01*
X427736Y214216D02*
Y230632D01*
X429736Y232632D01*
Y238170D01*
X445770Y250222D02*
Y271846D01*
X442770Y247222D02*
X445770Y250222D01*
X417450Y201930D02*
Y203930D01*
X427736Y214216D01*
X445770Y271846D02*
X456880Y282956D01*
X461380D01*
X392050Y201930D02*
Y203930D01*
X412380Y282956D02*
X416880D01*
X290450Y203930D02*
X303794Y217274D01*
X651662Y242824D02*
X651764Y242926D01*
X590537Y372733D02*
X590930Y373126D01*
X590537Y354215D02*
Y372733D01*
X590144Y353822D02*
X590537Y354215D01*
X587248Y471932D02*
Y483648D01*
X609600Y506000D01*
X595250Y201930D02*
Y205866D01*
X617982Y204598D02*
X620650Y201930D01*
X617982Y204598D02*
Y225044D01*
X615696Y227330D02*
X617982Y225044D01*
X330200Y10922D02*
X334518Y6604D01*
X330200Y10922D02*
Y25400D01*
X671119Y169913D02*
X671170Y169964D01*
X314452Y127128D02*
X315850Y125730D01*
X314452Y159766D02*
X327660Y172974D01*
X314452Y127128D02*
Y159766D01*
X290450Y159894D02*
X303530Y172974D01*
X290450Y125730D02*
Y159894D01*
Y201930D02*
Y203930D01*
X612902Y471932D02*
Y483902D01*
X635000Y506000D01*
Y508000D01*
X587178Y471862D02*
X587248Y471932D01*
X609600Y506000D02*
Y508000D01*
X493650Y201930D02*
X495046Y203326D01*
D11*
X230092Y182778D02*
X238036Y174834D01*
Y159106D02*
Y174834D01*
X181500Y238000D02*
X190071D01*
X193000Y235071D01*
X181000Y238500D02*
X181500Y238000D01*
X193000Y187000D02*
Y235071D01*
X186690Y180690D02*
X193000Y187000D01*
X186690Y165690D02*
Y180690D01*
X187750Y257000D02*
Y293036D01*
X195064Y441000D02*
X213152D01*
X172974Y403962D02*
X173974Y404962D01*
X183946Y406054D02*
X185000Y407108D01*
X173974Y404962D02*
X182962D01*
X184000Y406000D01*
X41000Y519000D02*
X48000D01*
X54000Y525000D01*
X201500Y296000D02*
X219000D01*
X187750Y293036D02*
X190679Y295965D01*
X201465D01*
X201500Y296000D01*
X223024Y300024D02*
X233426D01*
X219000Y296000D02*
X223024Y300024D01*
X136000Y126000D02*
Y141728D01*
X153022Y158750D02*
X179750D01*
X136000Y141728D02*
X153022Y158750D01*
X179750D02*
X186690Y165690D01*
X48745Y214000D02*
X53495D01*
X129946Y215290D02*
Y235458D01*
X53495Y214000D02*
X59622Y220127D01*
X185000Y407108D02*
Y435501D01*
X189541Y440042D01*
D16*
X181000Y238500D02*
X181500Y239000D01*
X149098Y197703D02*
Y215138D01*
X40156Y519000D02*
X41000D01*
X38300Y493062D02*
Y519000D01*
X38964Y520192D02*
X40156Y519000D01*
X8000Y479000D02*
X14000Y485000D01*
X30238D01*
X38300Y493062D01*
X179000Y193000D02*
X185000Y199000D01*
X153800Y193000D02*
X179000D01*
X149098Y197703D02*
X153800Y193000D01*
X179500Y241664D02*
Y258000D01*
X145231Y245958D02*
X146750Y247477D01*
Y257250D01*
X147500Y258000D01*
X138446Y245958D02*
X145231D01*
X130200Y237712D02*
X138446Y245958D01*
X130200Y236982D02*
Y237712D01*
X129946Y236728D02*
X130200Y236982D01*
Y237712D02*
Y238982D01*
X129946Y237458D02*
X130200Y237712D01*
X13000Y451000D02*
X21542D01*
X21844Y450698D01*
X8000Y456000D02*
X13000Y451000D01*
X8000Y456000D02*
Y479000D01*
D17*
X162306Y177558D02*
D03*
D18*
X187706Y115558D02*
D03*
X175006D02*
D03*
X162306D02*
D03*
X149606D02*
D03*
X136906D02*
D03*
D19*
X412380Y282956D02*
D03*
X461380D02*
D03*
D20*
X264160Y316092D02*
D03*
Y267092D02*
D03*
D21*
X167856Y440792D02*
D03*
Y431292D02*
D03*
Y421792D02*
D03*
X194856Y440792D02*
D03*
Y421792D02*
D03*
X211036Y159106D02*
D03*
Y149606D02*
D03*
Y140106D02*
D03*
X238036Y159106D02*
D03*
Y140106D02*
D03*
D22*
X49784Y249606D02*
D03*
X59284D02*
D03*
X68784D02*
D03*
X49784Y276606D02*
D03*
X68784D02*
D03*
X671170Y169964D02*
D03*
X661670D02*
D03*
X652170D02*
D03*
X671170Y142964D02*
D03*
X652170D02*
D03*
D23*
X71628Y134620D02*
D03*
Y93620D02*
D03*
Y60198D02*
D03*
Y19198D02*
D03*
D24*
X22098Y93978D02*
D03*
Y61978D02*
D03*
D25*
X574930Y373126D02*
D03*
X590930D02*
D03*
X237872Y420370D02*
D03*
X253872D02*
D03*
X237364Y395986D02*
D03*
X253364D02*
D03*
X237364Y379476D02*
D03*
X253364D02*
D03*
D26*
X48745Y214000D02*
D03*
Y207500D02*
D03*
Y201000D02*
D03*
Y194500D02*
D03*
Y188000D02*
D03*
D27*
X46495Y233000D02*
D03*
Y169000D02*
D03*
D28*
X21995Y213000D02*
D03*
Y189000D02*
D03*
X246300Y81900D02*
D03*
D29*
X187500Y258000D02*
D03*
X179500D02*
D03*
X171500D02*
D03*
X163500D02*
D03*
X155500D02*
D03*
X147500D02*
D03*
X139500D02*
D03*
X131500D02*
D03*
Y342000D02*
D03*
X139500D02*
D03*
X147500D02*
D03*
X155500D02*
D03*
X163500D02*
D03*
X171500D02*
D03*
X179500D02*
D03*
X187500D02*
D03*
D30*
X117500Y272000D02*
D03*
Y280000D02*
D03*
Y288000D02*
D03*
Y296000D02*
D03*
Y304000D02*
D03*
Y312000D02*
D03*
Y320000D02*
D03*
Y328000D02*
D03*
X201500D02*
D03*
Y320000D02*
D03*
Y312000D02*
D03*
Y304000D02*
D03*
Y296000D02*
D03*
Y288000D02*
D03*
Y280000D02*
D03*
Y272000D02*
D03*
D31*
X13208Y271272D02*
D03*
Y295656D02*
D03*
D32*
X627126Y244348D02*
D03*
X602742D02*
D03*
D33*
X172974Y403962D02*
D03*
Y384962D02*
D03*
X96774Y262788D02*
D03*
Y281788D02*
D03*
X233426Y282194D02*
D03*
Y263194D02*
D03*
X612902Y471932D02*
D03*
Y452932D02*
D03*
X587248Y471932D02*
D03*
Y452932D02*
D03*
X636000Y434000D02*
D03*
Y415000D02*
D03*
X667244Y205920D02*
D03*
Y186920D02*
D03*
X31496Y295758D02*
D03*
Y276758D02*
D03*
X667244Y223852D02*
D03*
Y242852D02*
D03*
X274574Y50190D02*
D03*
Y69190D02*
D03*
X260096Y159106D02*
D03*
Y140106D02*
D03*
X645400Y223852D02*
D03*
Y242852D02*
D03*
X330708Y67716D02*
D03*
Y86716D02*
D03*
Y48666D02*
D03*
Y67666D02*
D03*
D34*
X272440Y439420D02*
D03*
X291440D02*
D03*
X272440Y417576D02*
D03*
X291440D02*
D03*
X84988Y348234D02*
D03*
X103988D02*
D03*
X106122Y215392D02*
D03*
X87122D02*
D03*
X106122Y193802D02*
D03*
X87122D02*
D03*
X87020Y172212D02*
D03*
X106020D02*
D03*
X367080Y99568D02*
D03*
X386080D02*
D03*
X625450Y227330D02*
D03*
X606450D02*
D03*
X254102Y439674D02*
D03*
X235102D02*
D03*
X408736Y230632D02*
D03*
X427736D02*
D03*
X590144Y353822D02*
D03*
X571144D02*
D03*
X33528Y255016D02*
D03*
X14528D02*
D03*
X272440Y89154D02*
D03*
X291440D02*
D03*
X148946Y213868D02*
D03*
X129946D02*
D03*
D35*
X69850Y226702D02*
D03*
Y211702D02*
D03*
Y182612D02*
D03*
Y197612D02*
D03*
D36*
X228092Y219862D02*
D03*
Y238862D02*
D03*
X206000Y220000D02*
D03*
Y239000D02*
D03*
X233426Y300024D02*
D03*
Y319024D02*
D03*
X182000Y220000D02*
D03*
Y239000D02*
D03*
X21844Y450698D02*
D03*
Y431698D02*
D03*
X636000Y453000D02*
D03*
Y472000D02*
D03*
X116300Y131700D02*
D03*
Y112700D02*
D03*
X210820Y101752D02*
D03*
Y120752D02*
D03*
X304800Y50342D02*
D03*
Y69342D02*
D03*
X352552Y67564D02*
D03*
Y48564D02*
D03*
X213614Y440538D02*
D03*
Y421538D02*
D03*
X228092Y201778D02*
D03*
Y182778D02*
D03*
X645400Y205920D02*
D03*
Y186920D02*
D03*
X235712Y120498D02*
D03*
Y101498D02*
D03*
X206248Y182676D02*
D03*
Y201676D02*
D03*
X442722Y60756D02*
D03*
Y79756D02*
D03*
D37*
X129946Y235458D02*
D03*
X148946D02*
D03*
X254406Y345186D02*
D03*
X273406D02*
D03*
Y238252D02*
D03*
X254406D02*
D03*
X400152Y51308D02*
D03*
X381152D02*
D03*
X19964Y520192D02*
D03*
X38964D02*
D03*
X445770Y230632D02*
D03*
X464770D02*
D03*
X481534Y77978D02*
D03*
X462534D02*
D03*
X257658Y481584D02*
D03*
X238658D02*
D03*
X422910Y77978D02*
D03*
X403910D02*
D03*
X404012Y99568D02*
D03*
X423012D02*
D03*
X440842D02*
D03*
X459842D02*
D03*
X464770Y252222D02*
D03*
X445770D02*
D03*
X408838D02*
D03*
X427838D02*
D03*
X650900Y125984D02*
D03*
X669900D02*
D03*
X51206Y293878D02*
D03*
X70206D02*
D03*
X106122Y236982D02*
D03*
X87122D02*
D03*
X570890Y331978D02*
D03*
X589890D02*
D03*
X481432Y56388D02*
D03*
X462432D02*
D03*
D67*
X598424Y262848D02*
D03*
Y307848D02*
D03*
X663424D02*
D03*
X246300Y16900D02*
D03*
X201300D02*
D03*
Y81900D02*
D03*
D68*
X663424Y262848D02*
D03*
D74*
X106172Y514858D02*
D03*
X667766Y510032D02*
D03*
Y20066D02*
D03*
X224282Y41402D02*
D03*
D75*
X21844Y450698D02*
X73485D01*
X291440Y417576D02*
Y439420D01*
Y417576D02*
X291459Y417557D01*
X283210Y417576D02*
X291440D01*
X75000Y412000D02*
X77000Y414000D01*
X73485Y450698D02*
X77000Y447183D01*
Y414000D02*
Y447183D01*
X465024Y252476D02*
X465500Y252000D01*
X477000D01*
X397000D02*
X405060D01*
X407060Y254000D01*
X408838Y252222D01*
X305500Y70042D02*
Y96000D01*
X304800Y69342D02*
X305500Y70042D01*
X273406Y343186D02*
Y345186D01*
Y343186D02*
X274906Y341686D01*
X276906D01*
X281092Y337500D01*
X285500D01*
X258654Y221500D02*
X273406Y236252D01*
Y238252D01*
X264160Y503294D02*
Y508000D01*
X258000Y497134D02*
X264160Y503294D01*
X257658Y481584D02*
X258000Y481926D01*
Y497134D01*
X626000Y176000D02*
Y182000D01*
Y176000D02*
X632036Y169964D01*
X645400D01*
X194532Y440468D02*
X194928Y440072D01*
X679750Y279000D02*
Y279862D01*
X49530Y265176D02*
Y276352D01*
X49784Y276606D02*
Y292456D01*
X51206Y293878D01*
X49530Y276352D02*
X49784Y276606D01*
X226702Y220472D02*
X241013D01*
X208248Y238760D02*
X224592Y222416D01*
X225977Y219977D02*
X226092Y219862D01*
X226702Y220472D01*
X206248Y238760D02*
X208248D01*
X224592Y221362D02*
Y222416D01*
Y221362D02*
X225954Y220000D01*
X226000D01*
X187750Y258000D02*
X202685D01*
X213152Y441000D02*
X213614Y440538D01*
X206000Y405000D02*
Y413000D01*
X214000Y421000D01*
X211614Y421538D02*
X213614D01*
X167856Y421792D02*
X175208D01*
X177000Y420000D01*
X169974Y403962D02*
X172974D01*
X169474Y404462D02*
X169974Y403962D01*
X169474Y404462D02*
Y409526D01*
X167000Y412000D02*
X169474Y409526D01*
X21000Y430854D02*
X21844Y431698D01*
X25400Y411480D02*
Y414457D01*
X206200Y238808D02*
Y254485D01*
X202685Y258000D02*
X206200Y254485D01*
X187859Y136551D02*
X192024Y140716D01*
X162306Y132386D02*
X166471Y136551D01*
X187859D01*
X192024Y140716D02*
X210426D01*
X162306Y115558D02*
Y132386D01*
X570890Y331978D02*
X571017Y332105D01*
Y353695D02*
X571144Y353822D01*
X116200Y112600D02*
X116300Y112700D01*
X136764Y115700D02*
X136906Y115558D01*
X206200Y238808D02*
X206248Y238760D01*
X130098Y215138D02*
X130149Y215189D01*
X129946Y215290D02*
X130098Y215138D01*
X129946Y235458D02*
X129946Y235458D01*
X625450Y227330D02*
Y230330D01*
X667244Y205920D02*
X679524D01*
X670560Y223926D02*
X679704D01*
X602742Y244348D02*
X602846Y244244D01*
X228092Y182778D02*
X230092D01*
X206248Y182676D02*
X206299Y182727D01*
X228041D02*
X228092Y182778D01*
X49326Y295758D02*
X51206Y293878D01*
X13208Y295656D02*
X13259Y295707D01*
X31445D01*
X31496Y295758D01*
X41378Y286185D02*
Y295758D01*
X31496D02*
X41378D01*
X49326D01*
X25400Y497840D02*
Y501358D01*
X19964Y506794D02*
X25400Y501358D01*
X19964Y506794D02*
Y520192D01*
X234238Y440538D02*
X235102Y439674D01*
X69864Y182626D02*
X78232D01*
X69850Y182612D02*
X69864Y182626D01*
X149606Y115558D02*
Y123558D01*
X153162Y139700D02*
X153162D01*
X214612Y288018D02*
X214630Y288036D01*
X201518Y288018D02*
X214612D01*
X201500Y288000D02*
X201518Y288018D01*
X228346Y239116D02*
Y250952D01*
X228092Y238862D02*
X228346Y239116D01*
X184404Y210820D02*
Y219760D01*
X179832Y206502D02*
X180086D01*
X184404Y210820D01*
X155448Y272288D02*
X155474Y272262D01*
Y258026D02*
Y272262D01*
Y258026D02*
X155500Y258000D01*
X464770Y252222D02*
X465024Y252476D01*
X273406Y345186D02*
X273660Y344932D01*
X210035Y121537D02*
X210820Y120752D01*
X129946Y235458D02*
Y237458D01*
X148438Y234950D02*
X148946Y235458D01*
X140716Y234950D02*
X148438D01*
X233426Y319024D02*
Y329913D01*
X230361Y332977D02*
X233426Y329913D01*
X106122Y236982D02*
Y248193D01*
X103378Y250937D02*
X106122Y248193D01*
X68784Y249606D02*
X69501Y250323D01*
X78078D01*
X645400Y169964D02*
X652170D01*
X645400D02*
Y186920D01*
X661025Y154061D02*
X661130D01*
X652764Y162322D02*
X661025Y154061D01*
X652170Y169964D02*
X652764Y169370D01*
Y162322D02*
Y169370D01*
X273406Y238252D02*
X274571Y239417D01*
X462534Y77978D02*
Y79978D01*
X680214Y126986D02*
Y139954D01*
X671170Y123444D02*
X676672D01*
X680214Y126986D01*
X669900Y124714D02*
X671170Y123444D01*
X70206Y293878D02*
X72238Y295910D01*
X235712Y120498D02*
X249498D01*
X256000Y127000D01*
X202000Y125931D02*
X206393Y121537D01*
X202000Y125931D02*
Y132000D01*
X72238Y295910D02*
X77978D01*
X80739Y293149D01*
X241013Y220472D02*
X244061Y217424D01*
X244602D01*
X223592Y217020D02*
Y217362D01*
X206248Y201676D02*
X208248D01*
X223592Y217020D01*
Y217362D02*
X226092Y219862D01*
X205994Y220014D02*
Y227584D01*
Y220014D02*
X206248Y219760D01*
X206393Y121537D02*
X210035D01*
X210426Y140716D02*
X211036Y140106D01*
X59622Y220127D02*
X59690Y220195D01*
Y234442D01*
X353000Y68012D02*
Y83459D01*
X352552Y67564D02*
X353000Y68012D01*
X461000Y80000D02*
Y81512D01*
X459842Y82670D02*
X461000Y81512D01*
X349000Y87459D02*
Y88000D01*
Y87459D02*
X353000Y83459D01*
X241778Y201778D02*
X243000Y203000D01*
X228092Y201778D02*
X241778D01*
X49530Y265176D02*
X51918Y262788D01*
X96774D01*
X213614Y440538D02*
X234238D01*
X194928Y432072D02*
X195000Y432000D01*
X194928Y432072D02*
Y440072D01*
X445770Y217770D02*
Y230632D01*
D76*
X235102Y437500D02*
X244500D01*
X235102D02*
Y439674D01*
X654122Y128984D02*
X679500Y154362D01*
X602590Y244500D02*
X602742Y244348D01*
X570890Y260110D02*
Y331978D01*
X586500Y244500D02*
X602590D01*
X570890Y260110D02*
X586500Y244500D01*
X679750Y154612D02*
Y279000D01*
X651900Y128984D02*
X654122D01*
X679500Y154362D02*
Y155750D01*
X650900Y127984D02*
X651900Y128984D01*
X650900Y125984D02*
Y127984D01*
X674624Y284988D02*
X679750Y279862D01*
X571762Y284988D02*
X674624D01*
X571750Y285000D02*
X571762Y284988D01*
X602846Y244244D02*
X611536D01*
X571017Y332105D02*
Y353695D01*
X611536Y244244D02*
X625450Y230330D01*
D77*
X220500Y482500D02*
X236158D01*
X238158Y480500D01*
X238658Y481000D02*
Y481584D01*
X238158Y480500D02*
X238658Y481000D01*
Y481584D02*
X239000Y481926D01*
X238760Y508000D02*
X239000Y507760D01*
Y481926D02*
Y507760D01*
X440842Y99568D02*
Y128494D01*
X615000Y73750D02*
X615000Y95750D01*
X615000Y56750D02*
Y73750D01*
X650400Y124484D02*
Y125484D01*
X643734Y124484D02*
X650400D01*
X615000Y95750D02*
X643734Y124484D01*
X460750Y164500D02*
X600500D01*
X442850Y130502D02*
Y146600D01*
Y125730D02*
Y130502D01*
Y146600D02*
X460750Y164500D01*
X600500D02*
X612000Y153000D01*
X440842Y128494D02*
X442850Y130502D01*
X464750Y217000D02*
X467102Y214648D01*
X464750Y217000D02*
Y230612D01*
X464770Y230632D01*
X467102Y203078D02*
X468250Y201930D01*
X467102Y203078D02*
Y214648D01*
D78*
X153000Y139000D02*
Y145064D01*
X157686Y149750D02*
X190750D01*
X153000Y145064D02*
X157686Y149750D01*
X190750D02*
X197000Y156000D01*
Y173428D01*
X204248Y182676D02*
X206248D01*
X203748Y182176D02*
X204248Y182676D01*
X203748Y180176D02*
Y182176D01*
X197000Y173428D02*
X203748Y180176D01*
X206299Y182727D02*
X228041D01*
D79*
X416560Y508000D02*
D03*
X279400Y25400D02*
D03*
X635000Y508000D02*
D03*
X508000Y25400D02*
D03*
X116200Y88000D02*
D03*
X620650Y201930D02*
D03*
D80*
X187960Y508000D02*
D03*
X213360D02*
D03*
X238760D02*
D03*
X264160D02*
D03*
X289560D02*
D03*
X314960D02*
D03*
X340360D02*
D03*
X365760D02*
D03*
X391160D02*
D03*
X431800Y25400D02*
D03*
X330200D02*
D03*
X381000D02*
D03*
X406400D02*
D03*
X355600D02*
D03*
X304800D02*
D03*
X457200D02*
D03*
X482600Y508000D02*
D03*
X584200D02*
D03*
X533400D02*
D03*
X508000D02*
D03*
X558800D02*
D03*
X609600D02*
D03*
X457200D02*
D03*
X533400Y25400D02*
D03*
X584200D02*
D03*
X635000D02*
D03*
X609600D02*
D03*
X558800D02*
D03*
X167000Y88000D02*
D03*
X141600D02*
D03*
X595250Y201930D02*
D03*
X569850D02*
D03*
X544450D02*
D03*
X519050D02*
D03*
X493650D02*
D03*
X468250D02*
D03*
X442850D02*
D03*
X417450D02*
D03*
X392050D02*
D03*
X366650D02*
D03*
X341250D02*
D03*
X315850D02*
D03*
X290450D02*
D03*
X620650Y125730D02*
D03*
X595250D02*
D03*
X569850D02*
D03*
X544450D02*
D03*
X519050D02*
D03*
X493650D02*
D03*
X468250D02*
D03*
X442850D02*
D03*
X417450D02*
D03*
X392050D02*
D03*
X366650D02*
D03*
X341250D02*
D03*
X315850D02*
D03*
X290450D02*
D03*
D81*
X152400Y508000D02*
D03*
D82*
X21336Y23876D02*
D03*
Y131572D02*
D03*
D83*
X146000Y395200D02*
D03*
Y369800D02*
D03*
Y420600D02*
D03*
X662000Y418200D02*
D03*
Y443600D02*
D03*
D84*
X146000Y446000D02*
D03*
X662000Y469000D02*
D03*
D85*
X139700Y25400D02*
D03*
X660400Y76200D02*
D03*
Y355600D02*
D03*
D86*
X76200Y497840D02*
D03*
X50800D02*
D03*
X25400D02*
D03*
X76200Y472440D02*
D03*
X50800D02*
D03*
X76200Y411480D02*
D03*
X50800D02*
D03*
X25400D02*
D03*
X76200Y386080D02*
D03*
X50800D02*
D03*
X25400Y342000D02*
D03*
X50800Y316600D02*
D03*
X25400D02*
D03*
D87*
Y472440D02*
D03*
Y386080D02*
D03*
X50800Y342000D02*
D03*
D88*
X21995Y234000D02*
D03*
Y168000D02*
D03*
D89*
X155448Y272288D02*
D03*
X103378Y250937D02*
D03*
X572000Y440000D02*
D03*
X573500Y426000D02*
D03*
X106000Y171000D02*
D03*
X168500Y176000D02*
D03*
Y185000D02*
D03*
Y167500D02*
D03*
X124500Y171000D02*
D03*
X115000D02*
D03*
Y162000D02*
D03*
X283000Y438000D02*
D03*
X283210Y417576D02*
D03*
X244500Y437500D02*
D03*
X477000Y252000D02*
D03*
X397000D02*
D03*
X318500Y224500D02*
D03*
X325000Y243000D02*
D03*
X305500Y96000D02*
D03*
X285500Y337500D02*
D03*
X258654Y221500D02*
D03*
X282500Y483000D02*
D03*
X247000Y177000D02*
D03*
X626000Y182000D02*
D03*
X320000Y430000D02*
D03*
X614000Y420500D02*
D03*
X572500Y413000D02*
D03*
X571000Y387500D02*
D03*
X614500Y73750D02*
D03*
X615000Y56750D02*
D03*
X399000Y97750D02*
D03*
X407750Y88500D02*
D03*
X318000Y68000D02*
D03*
X45000Y437000D02*
D03*
X52000Y427000D02*
D03*
X36000D02*
D03*
X206000Y405000D02*
D03*
X185000Y199000D02*
D03*
X313000Y438000D02*
D03*
X554000Y421000D02*
D03*
X446000Y218000D02*
D03*
X222000Y405000D02*
D03*
X195000Y432000D02*
D03*
X86000Y364000D02*
D03*
X76000Y324000D02*
D03*
Y364000D02*
D03*
X59000Y277000D02*
D03*
X571500Y402000D02*
D03*
X243000Y203000D02*
D03*
X349000Y88000D02*
D03*
X408750Y108750D02*
D03*
X456750Y114750D02*
D03*
X483250Y102250D02*
D03*
X54000Y525000D02*
D03*
X177000Y420000D02*
D03*
X167000Y412000D02*
D03*
X202000Y132000D02*
D03*
X256000Y127000D02*
D03*
X87500Y110900D02*
D03*
X59690Y234442D02*
D03*
X59622Y220127D02*
D03*
X159000Y176000D02*
D03*
X77237Y226702D02*
D03*
X192024Y140716D02*
D03*
X318000Y77000D02*
D03*
X680214Y139954D02*
D03*
X661130Y154061D02*
D03*
X462534Y43180D02*
D03*
X81280Y291084D02*
D03*
X80772Y252476D02*
D03*
X230361Y332977D02*
D03*
X140716Y234950D02*
D03*
X205994Y227584D02*
D03*
X179832Y206502D02*
D03*
X228346Y250952D02*
D03*
X214630Y288036D02*
D03*
X153162Y139700D02*
D03*
X78232Y182626D02*
D03*
X41378Y286185D02*
D03*
X244602Y217424D02*
D03*
X87300Y99800D02*
D03*
X156700Y200000D02*
D03*
X166240Y208836D02*
D03*
X114118Y193783D02*
D03*
X114074Y215411D02*
D03*
X670560Y158750D02*
D03*
X327660Y172974D02*
D03*
X303530D02*
D03*
D90*
X220500Y482500D02*
D03*
X612000Y153000D02*
D03*
M02*
