G04*
G04 #@! TF.GenerationSoftware,Altium Limited,Altium Designer,20.1.7 (139)*
G04*
G04 Layer_Color=16777215*
%FSLAX44Y44*%
%MOMM*%
G71*
G04*
G04 #@! TF.SameCoordinates,5176B2A9-6DC6-4D15-A643-430D7AC4E40B*
G04*
G04*
G04 #@! TF.FilePolarity,Positive*
G04*
G01*
G75*
%ADD11C,0.5000*%
%ADD16C,0.4000*%
%ADD76C,0.7000*%
%ADD95C,0.3500*%
D11*
X402000Y-425842D02*
Y-445835D01*
Y-435839D01*
X405332Y-432506D01*
X411997D01*
X415329Y-435839D01*
Y-445835D01*
X425326Y-429174D02*
Y-432506D01*
X421993D01*
X428658D01*
X425326D01*
Y-442503D01*
X428658Y-445835D01*
X441987Y-429174D02*
Y-432506D01*
X438655D01*
X445319D01*
X441987D01*
Y-442503D01*
X445319Y-445835D01*
X455316Y-452500D02*
Y-432506D01*
X465313D01*
X468645Y-435839D01*
Y-442503D01*
X465313Y-445835D01*
X455316D01*
X475310D02*
X485306D01*
X488639Y-442503D01*
X485306Y-439171D01*
X478642D01*
X475310Y-435839D01*
X478642Y-432506D01*
X488639D01*
X495303D02*
X498635D01*
Y-435839D01*
X495303D01*
Y-432506D01*
Y-442503D02*
X498635D01*
Y-445835D01*
X495303D01*
Y-442503D01*
X511964Y-445835D02*
X525294Y-432506D01*
X531958Y-445835D02*
X545287Y-432506D01*
X551952Y-445835D02*
X558616D01*
X555284D01*
Y-432506D01*
X551952D01*
X568613Y-445835D02*
Y-432506D01*
X571945D01*
X575277Y-435839D01*
Y-445835D01*
Y-435839D01*
X578610Y-432506D01*
X581942Y-435839D01*
Y-445835D01*
X588606Y-432506D02*
Y-445835D01*
Y-439171D01*
X591939Y-435839D01*
X595271Y-432506D01*
X598603D01*
X608600D02*
Y-442503D01*
X611932Y-445835D01*
X621929D01*
Y-432506D01*
X628594Y-445835D02*
X635258D01*
X631926D01*
Y-425842D01*
X628594D01*
X645255Y-445835D02*
Y-442503D01*
X648587D01*
Y-445835D01*
X645255D01*
X675245Y-425842D02*
Y-445835D01*
X665248D01*
X661916Y-442503D01*
Y-435839D01*
X665248Y-432506D01*
X675245D01*
X691907Y-445835D02*
X685242D01*
X681910Y-442503D01*
Y-435839D01*
X685242Y-432506D01*
X691907D01*
X695239Y-435839D01*
Y-439171D01*
X681910D01*
X701903Y-432506D02*
X708568Y-445835D01*
X715232Y-432506D01*
X721897Y-445835D02*
X735226Y-432506D01*
X12000Y-425506D02*
Y-437502D01*
X17998Y-443500D01*
X23996Y-437502D01*
Y-425506D01*
X38991Y-443500D02*
X32993D01*
X29994Y-440501D01*
Y-434503D01*
X32993Y-431504D01*
X38991D01*
X41990Y-434503D01*
Y-437502D01*
X29994D01*
X47988Y-431504D02*
Y-443500D01*
Y-437502D01*
X50987Y-434503D01*
X53986Y-431504D01*
X56985D01*
X65982Y-443500D02*
X74980D01*
X77979Y-440501D01*
X74980Y-437502D01*
X68981D01*
X65982Y-434503D01*
X68981Y-431504D01*
X77979D01*
X83977Y-443500D02*
X89975D01*
X86976D01*
Y-431504D01*
X83977D01*
X101971Y-443500D02*
X107969D01*
X110968Y-440501D01*
Y-434503D01*
X107969Y-431504D01*
X101971D01*
X98972Y-434503D01*
Y-440501D01*
X101971Y-443500D01*
X116966D02*
Y-431504D01*
X125963D01*
X128962Y-434503D01*
Y-443500D01*
X134960Y-431504D02*
X137959D01*
Y-434503D01*
X134960D01*
Y-431504D01*
Y-440501D02*
X137959D01*
Y-443500D01*
X134960D01*
Y-440501D01*
X179946Y-443500D02*
X167950D01*
X179946Y-431504D01*
Y-428505D01*
X176947Y-425506D01*
X170949D01*
X167950Y-428505D01*
X185944Y-443500D02*
Y-440501D01*
X188943D01*
Y-443500D01*
X185944D01*
X200939Y-428505D02*
X203938Y-425506D01*
X209936D01*
X212935Y-428505D01*
Y-440501D01*
X209936Y-443500D01*
X203938D01*
X200939Y-440501D01*
Y-428505D01*
X95829Y-491174D02*
X92497Y-487842D01*
X85832D01*
X82500Y-491174D01*
Y-504503D01*
X85832Y-507836D01*
X92497D01*
X95829Y-504503D01*
X105826Y-507836D02*
X112490D01*
X115823Y-504503D01*
Y-497839D01*
X112490Y-494506D01*
X105826D01*
X102493Y-497839D01*
Y-504503D01*
X105826Y-507836D01*
X122487D02*
Y-494506D01*
X132484D01*
X135816Y-497839D01*
Y-507836D01*
X145813Y-491174D02*
Y-494506D01*
X142481D01*
X149145D01*
X145813D01*
Y-504503D01*
X149145Y-507836D01*
X162474Y-494506D02*
X169139D01*
X172471Y-497839D01*
Y-507836D01*
X162474D01*
X159142Y-504503D01*
X162474Y-501171D01*
X172471D01*
X192465Y-494506D02*
X182468D01*
X179135Y-497839D01*
Y-504503D01*
X182468Y-507836D01*
X192465D01*
X202461Y-491174D02*
Y-494506D01*
X199129D01*
X205794D01*
X202461D01*
Y-504503D01*
X205794Y-507836D01*
X215790Y-494506D02*
X219123D01*
Y-497839D01*
X215790D01*
Y-494506D01*
Y-504503D02*
X219123D01*
Y-507836D01*
X215790D01*
Y-504503D01*
X252445Y-507836D02*
X259110D01*
X255777D01*
Y-494506D01*
X252445D01*
X269107Y-507836D02*
Y-494506D01*
X272439D01*
X275771Y-497839D01*
Y-507836D01*
Y-497839D01*
X279103Y-494506D01*
X282435Y-497839D01*
Y-507836D01*
X289100Y-494506D02*
Y-507836D01*
Y-501171D01*
X292432Y-497839D01*
X295765Y-494506D01*
X299097D01*
X309094D02*
Y-504503D01*
X312426Y-507836D01*
X322423D01*
Y-494506D01*
X329087Y-507836D02*
X335752D01*
X332419D01*
Y-487842D01*
X329087D01*
X345748Y-507836D02*
Y-487842D01*
Y-501171D02*
X355745Y-494506D01*
X345748Y-501171D02*
X355745Y-507836D01*
X369074Y-494506D02*
X375739D01*
X379071Y-497839D01*
Y-507836D01*
X369074D01*
X365742Y-504503D01*
X369074Y-501171D01*
X379071D01*
X385736Y-507836D02*
X392400D01*
X389068D01*
Y-494506D01*
X385736D01*
X402397Y-507836D02*
X412394D01*
X415726Y-504503D01*
X412394Y-501171D01*
X405729D01*
X402397Y-497839D01*
X405729Y-494506D01*
X415726D01*
X422390Y-507836D02*
Y-487842D01*
Y-501171D02*
X432387Y-494506D01*
X422390Y-501171D02*
X432387Y-507836D01*
X442384Y-487842D02*
Y-507836D01*
Y-497839D01*
X445716Y-494506D01*
X452381D01*
X455713Y-497839D01*
Y-507836D01*
X465710Y-494506D02*
X472374D01*
X475706Y-497839D01*
Y-507836D01*
X465710D01*
X462378Y-504503D01*
X465710Y-501171D01*
X475706D01*
X482371Y-507836D02*
Y-494506D01*
X492368D01*
X495700Y-497839D01*
Y-507836D01*
X512361Y-501171D02*
Y-497839D01*
X509029D01*
Y-501171D01*
X512361D01*
X515694Y-497839D01*
Y-491174D01*
X512361Y-487842D01*
X505697D01*
X502365Y-491174D01*
Y-504503D01*
X505697Y-507836D01*
X515694D01*
X529023Y-514500D02*
X532355D01*
X535687Y-511168D01*
Y-494506D01*
X525690D01*
X522358Y-497839D01*
Y-504503D01*
X525690Y-507836D01*
X535687D01*
X542352D02*
Y-494506D01*
X545684D01*
X549016Y-497839D01*
Y-507836D01*
Y-497839D01*
X552349Y-494506D01*
X555681Y-497839D01*
Y-507836D01*
X565678Y-494506D02*
X572342D01*
X575674Y-497839D01*
Y-507836D01*
X565678D01*
X562345Y-504503D01*
X565678Y-501171D01*
X575674D01*
X582339Y-507836D02*
X589003D01*
X585671D01*
Y-494506D01*
X582339D01*
X599000Y-507836D02*
X605665D01*
X602332D01*
Y-487842D01*
X599000D01*
X615661Y-507836D02*
Y-504503D01*
X618994D01*
Y-507836D01*
X615661D01*
X645652Y-494506D02*
X635655D01*
X632323Y-497839D01*
Y-504503D01*
X635655Y-507836D01*
X645652D01*
X655648D02*
X662313D01*
X665645Y-504503D01*
Y-497839D01*
X662313Y-494506D01*
X655648D01*
X652316Y-497839D01*
Y-504503D01*
X655648Y-507836D01*
X672310D02*
Y-494506D01*
X675642D01*
X678974Y-497839D01*
Y-507836D01*
Y-497839D01*
X682307Y-494506D01*
X685639Y-497839D01*
Y-507836D01*
X13000Y-395506D02*
Y-413500D01*
X24996D01*
X30994D02*
X36992D01*
X33993D01*
Y-401504D01*
X30994D01*
X57985D02*
X48988D01*
X45989Y-404503D01*
Y-410501D01*
X48988Y-413500D01*
X57985D01*
X72981D02*
X66982D01*
X63983Y-410501D01*
Y-404503D01*
X66982Y-401504D01*
X72981D01*
X75980Y-404503D01*
Y-407502D01*
X63983D01*
X81978Y-413500D02*
Y-401504D01*
X90975D01*
X93974Y-404503D01*
Y-413500D01*
X99972D02*
X108969D01*
X111968Y-410501D01*
X108969Y-407502D01*
X102971D01*
X99972Y-404503D01*
X102971Y-401504D01*
X111968D01*
X126963Y-413500D02*
X120965D01*
X117966Y-410501D01*
Y-404503D01*
X120965Y-401504D01*
X126963D01*
X129962Y-404503D01*
Y-407502D01*
X117966D01*
X135960Y-401504D02*
X138959D01*
Y-404503D01*
X135960D01*
Y-401504D01*
Y-410501D02*
X138959D01*
Y-413500D01*
X135960D01*
Y-410501D01*
X180946Y-398505D02*
X177947Y-395506D01*
X171949D01*
X168950Y-398505D01*
Y-410501D01*
X171949Y-413500D01*
X177947D01*
X180946Y-410501D01*
X198940Y-395506D02*
X186944D01*
Y-413500D01*
X198940D01*
X186944Y-404503D02*
X192942D01*
X204938Y-413500D02*
Y-395506D01*
X213935D01*
X216934Y-398505D01*
Y-404503D01*
X213935Y-407502D01*
X204938D01*
X210936D02*
X216934Y-413500D01*
X222932D02*
Y-395506D01*
X234928Y-413500D01*
Y-395506D01*
X267917D02*
X261919D01*
X258920Y-398505D01*
Y-410501D01*
X261919Y-413500D01*
X267917D01*
X270917Y-410501D01*
Y-398505D01*
X267917Y-395506D01*
X276915D02*
Y-413500D01*
Y-404503D01*
X288911D01*
Y-395506D01*
Y-413500D01*
X294909Y-395506D02*
Y-413500D01*
X306905D01*
X1150500Y506997D02*
X1163829D01*
X1190487Y497000D02*
Y516993D01*
X1200484D01*
X1203816Y513661D01*
Y506997D01*
X1200484Y503665D01*
X1190487D01*
X1210481Y516993D02*
Y497000D01*
X1223810D01*
X1230474D02*
Y510329D01*
X1237139Y516993D01*
X1243803Y510329D01*
Y497000D01*
Y506997D01*
X1230474D01*
X1263797Y513661D02*
X1260465Y516993D01*
X1253800D01*
X1250468Y513661D01*
Y500332D01*
X1253800Y497000D01*
X1260465D01*
X1263797Y500332D01*
X1283790Y516993D02*
X1270461D01*
Y497000D01*
X1283790D01*
X1270461Y506997D02*
X1277126D01*
X1320445Y516993D02*
X1313781D01*
X1310448Y513661D01*
Y500332D01*
X1313781Y497000D01*
X1320445D01*
X1323777Y500332D01*
Y513661D01*
X1320445Y516993D01*
X1330442Y497000D02*
Y516993D01*
X1343771Y497000D01*
Y516993D01*
X1363765D02*
X1350436D01*
Y497000D01*
X1363765D01*
X1350436Y506997D02*
X1357100D01*
X1403752Y516993D02*
X1390423D01*
Y506997D01*
X1397087D01*
X1390423D01*
Y497000D01*
X1410416Y516993D02*
X1417081D01*
X1413748D01*
Y497000D01*
X1410416D01*
X1417081D01*
X1427077Y516993D02*
Y497000D01*
X1437074D01*
X1440407Y500332D01*
Y513661D01*
X1437074Y516993D01*
X1427077D01*
X1447071D02*
Y500332D01*
X1450403Y497000D01*
X1457068D01*
X1460400Y500332D01*
Y516993D01*
X1480394Y513661D02*
X1477061Y516993D01*
X1470397D01*
X1467065Y513661D01*
Y500332D01*
X1470397Y497000D01*
X1477061D01*
X1480394Y500332D01*
X1487058Y516993D02*
X1493723D01*
X1490390D01*
Y497000D01*
X1487058D01*
X1493723D01*
X1503719D02*
Y510329D01*
X1510384Y516993D01*
X1517048Y510329D01*
Y497000D01*
Y506997D01*
X1503719D01*
X1523713Y516993D02*
Y497000D01*
X1537042D01*
X1563700Y516993D02*
X1570365D01*
X1567032D01*
Y497000D01*
X1563700D01*
X1570365D01*
X1580361D02*
Y516993D01*
X1593690Y497000D01*
Y516993D01*
X1600355D02*
X1613684D01*
X1607020D01*
Y497000D01*
X1630345Y516993D02*
X1623681D01*
X1620349Y513661D01*
Y500332D01*
X1623681Y497000D01*
X1630345D01*
X1633678Y500332D01*
Y513661D01*
X1630345Y516993D01*
X1673665D02*
X1660336D01*
Y497000D01*
X1673665D01*
X1660336Y506997D02*
X1667000D01*
X1680329Y497000D02*
Y510329D01*
X1686994Y516993D01*
X1693658Y510329D01*
Y497000D01*
Y506997D01*
X1680329D01*
X1713652Y513661D02*
X1710320Y516993D01*
X1703655D01*
X1700323Y513661D01*
Y500332D01*
X1703655Y497000D01*
X1710320D01*
X1713652Y500332D01*
X1720316Y516993D02*
Y497000D01*
Y506997D01*
X1733645D01*
Y516993D01*
Y497000D01*
X1760303D02*
Y516993D01*
X1770300D01*
X1773633Y513661D01*
Y506997D01*
X1770300Y503665D01*
X1760303D01*
X1780297Y497000D02*
Y510329D01*
X1786962Y516993D01*
X1793626Y510329D01*
Y497000D01*
Y506997D01*
X1780297D01*
X1800291Y497000D02*
Y516993D01*
X1813620Y497000D01*
Y516993D01*
X1833613D02*
X1820284D01*
Y497000D01*
X1833613D01*
X1820284Y506997D02*
X1826949D01*
X1840278Y516993D02*
Y497000D01*
X1853607D01*
X1893594Y513661D02*
X1890262Y516993D01*
X1883597D01*
X1880265Y513661D01*
Y500332D01*
X1883597Y497000D01*
X1890262D01*
X1893594Y500332D01*
X1910255Y516993D02*
X1903591D01*
X1900258Y513661D01*
Y500332D01*
X1903591Y497000D01*
X1910255D01*
X1913587Y500332D01*
Y513661D01*
X1910255Y516993D01*
X1920252Y497000D02*
Y516993D01*
X1930249D01*
X1933581Y513661D01*
Y506997D01*
X1930249Y503665D01*
X1920252D01*
X1926917D02*
X1933581Y497000D01*
X1940246D02*
Y516993D01*
X1953575Y497000D01*
Y516993D01*
X1973568D02*
X1960239D01*
Y497000D01*
X1973568D01*
X1960239Y506997D02*
X1966904D01*
X1980233Y497000D02*
Y516993D01*
X1990229D01*
X1993562Y513661D01*
Y506997D01*
X1990229Y503665D01*
X1980233D01*
X1986897D02*
X1993562Y497000D01*
X2026884D02*
X2020220Y503665D01*
Y510329D01*
X2026884Y516993D01*
X2050210D02*
X2036881D01*
Y506997D01*
X2043546D01*
X2036881D01*
Y497000D01*
X2066871Y516993D02*
X2060207D01*
X2056875Y513661D01*
Y500332D01*
X2060207Y497000D01*
X2066871D01*
X2070204Y500332D01*
Y513661D01*
X2066871Y516993D01*
X2076868D02*
Y500332D01*
X2080200Y497000D01*
X2086865D01*
X2090197Y500332D01*
Y516993D01*
X2096862Y497000D02*
Y516993D01*
X2106859D01*
X2110191Y513661D01*
Y506997D01*
X2106859Y503665D01*
X2096862D01*
X2103526D02*
X2110191Y497000D01*
X2146846Y516993D02*
X2140181D01*
X2136849Y513661D01*
Y500332D01*
X2140181Y497000D01*
X2146846D01*
X2150178Y500332D01*
Y513661D01*
X2146846Y516993D01*
X2156842Y497000D02*
Y516993D01*
X2170171Y497000D01*
Y516993D01*
X2196830D02*
X2210159D01*
X2203494D01*
Y497000D01*
X2216823Y516993D02*
Y497000D01*
Y506997D01*
X2230152D01*
Y516993D01*
Y497000D01*
X2250146Y516993D02*
X2236817D01*
Y497000D01*
X2250146D01*
X2236817Y506997D02*
X2243481D01*
X2276804Y516993D02*
X2290133D01*
X2283468D01*
Y497000D01*
X2306794Y516993D02*
X2300130D01*
X2296797Y513661D01*
Y500332D01*
X2300130Y497000D01*
X2306794D01*
X2310126Y500332D01*
Y513661D01*
X2306794Y516993D01*
X2316791Y497000D02*
Y516993D01*
X2326788D01*
X2330120Y513661D01*
Y506997D01*
X2326788Y503665D01*
X2316791D01*
X2356778Y516993D02*
Y497000D01*
X2370107D01*
X2376772D02*
Y510329D01*
X2383436Y516993D01*
X2390101Y510329D01*
Y497000D01*
Y506997D01*
X2376772D01*
X2396765Y516993D02*
Y513661D01*
X2403430Y506997D01*
X2410094Y513661D01*
Y516993D01*
X2403430Y506997D02*
Y497000D01*
X2430088Y516993D02*
X2416759D01*
Y497000D01*
X2430088D01*
X2416759Y506997D02*
X2423423D01*
X2436752Y497000D02*
Y516993D01*
X2446749D01*
X2450081Y513661D01*
Y506997D01*
X2446749Y503665D01*
X2436752D01*
X2443417D02*
X2450081Y497000D01*
X2456746D02*
X2463410Y503665D01*
Y510329D01*
X2456746Y516993D01*
X1151000Y557497D02*
X1164329D01*
X1190987Y564161D02*
X1194319Y567494D01*
X1200984D01*
X1204316Y564161D01*
Y560829D01*
X1200984Y557497D01*
X1197652D01*
X1200984D01*
X1204316Y554165D01*
Y550832D01*
X1200984Y547500D01*
X1194319D01*
X1190987Y550832D01*
X1244303Y567494D02*
X1230974D01*
Y557497D01*
X1237639D01*
X1230974D01*
Y547500D01*
X1250968Y567494D02*
X1257632D01*
X1254300D01*
Y547500D01*
X1250968D01*
X1257632D01*
X1267629Y567494D02*
Y547500D01*
X1277626D01*
X1280958Y550832D01*
Y564161D01*
X1277626Y567494D01*
X1267629D01*
X1287623D02*
Y550832D01*
X1290955Y547500D01*
X1297619D01*
X1300952Y550832D01*
Y567494D01*
X1320945Y564161D02*
X1317613Y567494D01*
X1310948D01*
X1307616Y564161D01*
Y550832D01*
X1310948Y547500D01*
X1317613D01*
X1320945Y550832D01*
X1327610Y567494D02*
X1334274D01*
X1330942D01*
Y547500D01*
X1327610D01*
X1334274D01*
X1344271D02*
Y560829D01*
X1350936Y567494D01*
X1357600Y560829D01*
Y547500D01*
Y557497D01*
X1344271D01*
X1364265Y567494D02*
Y547500D01*
X1377594D01*
X1397587Y564161D02*
X1394255Y567494D01*
X1387590D01*
X1384258Y564161D01*
Y560829D01*
X1387590Y557497D01*
X1394255D01*
X1397587Y554165D01*
Y550832D01*
X1394255Y547500D01*
X1387590D01*
X1384258Y550832D01*
X1437574Y564161D02*
X1434242Y567494D01*
X1427578D01*
X1424245Y564161D01*
Y560829D01*
X1427578Y557497D01*
X1434242D01*
X1437574Y554165D01*
Y550832D01*
X1434242Y547500D01*
X1427578D01*
X1424245Y550832D01*
X1444239Y567494D02*
Y547500D01*
Y557497D01*
X1457568D01*
Y567494D01*
Y547500D01*
X1474229Y567494D02*
X1467565D01*
X1464232Y564161D01*
Y550832D01*
X1467565Y547500D01*
X1474229D01*
X1477561Y550832D01*
Y564161D01*
X1474229Y567494D01*
X1484226D02*
Y550832D01*
X1487558Y547500D01*
X1494223D01*
X1497555Y550832D01*
Y567494D01*
X1504220D02*
Y547500D01*
X1517549D01*
X1524213Y567494D02*
Y547500D01*
X1534210D01*
X1537542Y550832D01*
Y564161D01*
X1534210Y567494D01*
X1524213D01*
X1564200D02*
Y547500D01*
X1577529D01*
X1584194Y567494D02*
X1590858D01*
X1587526D01*
Y547500D01*
X1584194D01*
X1590858D01*
X1614184Y567494D02*
X1600855D01*
Y547500D01*
X1614184D01*
X1600855Y557497D02*
X1607520D01*
X1650839Y567494D02*
X1644174D01*
X1640842Y564161D01*
Y550832D01*
X1644174Y547500D01*
X1650839D01*
X1654171Y550832D01*
Y564161D01*
X1650839Y567494D01*
X1660836Y547500D02*
Y567494D01*
X1674165Y547500D01*
Y567494D01*
X1700823D02*
X1714152D01*
X1707487D01*
Y547500D01*
X1720816Y567494D02*
Y547500D01*
X1727481Y554165D01*
X1734145Y547500D01*
Y567494D01*
X1750807D02*
X1744142D01*
X1740810Y564161D01*
Y550832D01*
X1744142Y547500D01*
X1750807D01*
X1754139Y550832D01*
Y564161D01*
X1750807Y567494D01*
X1780797D02*
Y547500D01*
X1794126D01*
X1800791Y567494D02*
X1807455D01*
X1804123D01*
Y547500D01*
X1800791D01*
X1807455D01*
X1817452D02*
Y567494D01*
X1830781Y547500D01*
Y567494D01*
X1850775D02*
X1837445D01*
Y547500D01*
X1850775D01*
X1837445Y557497D02*
X1844110D01*
X1870768Y564161D02*
X1867436Y567494D01*
X1860771D01*
X1857439Y564161D01*
Y560829D01*
X1860771Y557497D01*
X1867436D01*
X1870768Y554165D01*
Y550832D01*
X1867436Y547500D01*
X1860771D01*
X1857439Y550832D01*
X1897426Y567494D02*
X1910755D01*
X1904091D01*
Y547500D01*
X1917420Y567494D02*
Y547500D01*
Y557497D01*
X1930749D01*
Y567494D01*
Y547500D01*
X1937413D02*
Y560829D01*
X1944078Y567494D01*
X1950742Y560829D01*
Y547500D01*
Y557497D01*
X1937413D01*
X1957407Y567494D02*
X1970736D01*
X1964071D01*
Y547500D01*
X1997394Y567494D02*
X2004058D01*
X2000726D01*
Y547500D01*
X1997394D01*
X2004058D01*
X2014055D02*
Y567494D01*
X2027384Y547500D01*
Y567494D01*
X2034049D02*
X2047378D01*
X2040713D01*
Y547500D01*
X2067371Y567494D02*
X2054042D01*
Y547500D01*
X2067371D01*
X2054042Y557497D02*
X2060707D01*
X2074036Y547500D02*
Y567494D01*
X2084033D01*
X2087365Y564161D01*
Y557497D01*
X2084033Y554165D01*
X2074036D01*
X2080700D02*
X2087365Y547500D01*
X2107359Y564161D02*
X2104026Y567494D01*
X2097362D01*
X2094029Y564161D01*
Y560829D01*
X2097362Y557497D01*
X2104026D01*
X2107359Y554165D01*
Y550832D01*
X2104026Y547500D01*
X2097362D01*
X2094029Y550832D01*
X2127352Y567494D02*
X2114023D01*
Y547500D01*
X2127352D01*
X2114023Y557497D02*
X2120688D01*
X2147346Y564161D02*
X2144013Y567494D01*
X2137349D01*
X2134017Y564161D01*
Y550832D01*
X2137349Y547500D01*
X2144013D01*
X2147346Y550832D01*
X2154010Y567494D02*
X2167339D01*
X2160675D01*
Y547500D01*
X2193997D02*
Y560829D01*
X2200662Y567494D01*
X2207326Y560829D01*
Y547500D01*
Y557497D01*
X2193997D01*
X2213991Y567494D02*
X2227320D01*
X2220655D01*
Y547500D01*
X2253978D02*
Y560829D01*
X2260642Y567494D01*
X2267307Y560829D01*
Y547500D01*
Y557497D01*
X2253978D01*
X2293965Y547500D02*
Y567494D01*
X2303962D01*
X2307294Y564161D01*
Y557497D01*
X2303962Y554165D01*
X2293965D01*
X2300629D02*
X2307294Y547500D01*
X2313959Y567494D02*
X2320623D01*
X2317291D01*
Y547500D01*
X2313959D01*
X2320623D01*
X2343949Y564161D02*
X2340617Y567494D01*
X2333952D01*
X2330620Y564161D01*
Y550832D01*
X2333952Y547500D01*
X2340617D01*
X2343949Y550832D01*
Y557497D01*
X2337284D01*
X2350613Y567494D02*
Y547500D01*
Y557497D01*
X2363943D01*
Y567494D01*
Y547500D01*
X2370607Y567494D02*
X2383936D01*
X2377272D01*
Y547500D01*
X2410594D02*
Y560829D01*
X2417259Y567494D01*
X2423923Y560829D01*
Y547500D01*
Y557497D01*
X2410594D01*
X2430588Y547500D02*
Y567494D01*
X2443917Y547500D01*
Y567494D01*
X2463910Y564161D02*
X2460578Y567494D01*
X2453914D01*
X2450581Y564161D01*
Y550832D01*
X2453914Y547500D01*
X2460578D01*
X2463910Y550832D01*
Y557497D01*
X2457246D01*
X2470575Y567494D02*
Y547500D01*
X2483904D01*
X2503897Y567494D02*
X2490568D01*
Y547500D01*
X2503897D01*
X2490568Y557497D02*
X2497233D01*
X1149500Y604997D02*
X1162829D01*
X1189487Y595000D02*
Y614994D01*
X1196152Y608329D01*
X1202816Y614994D01*
Y595000D01*
X1209481Y614994D02*
X1216145D01*
X1212813D01*
Y595000D01*
X1209481D01*
X1216145D01*
X1226142D02*
Y614994D01*
X1239471Y595000D01*
Y614994D01*
X1246135D02*
X1252800D01*
X1249468D01*
Y595000D01*
X1246135D01*
X1252800D01*
X1262797D02*
Y614994D01*
X1269461Y608329D01*
X1276126Y614994D01*
Y595000D01*
X1282790Y614994D02*
Y598332D01*
X1286123Y595000D01*
X1292787D01*
X1296119Y598332D01*
Y614994D01*
X1302784Y595000D02*
Y614994D01*
X1309448Y608329D01*
X1316113Y614994D01*
Y595000D01*
X1352768D02*
Y614994D01*
X1342771Y604997D01*
X1356100D01*
X1362765Y595000D02*
Y614994D01*
X1369429Y608329D01*
X1376094Y614994D01*
Y595000D01*
X1382758D02*
Y614994D01*
X1389423Y608329D01*
X1396087Y614994D01*
Y595000D01*
X1422745Y614994D02*
Y595000D01*
X1432742D01*
X1436074Y598332D01*
Y611661D01*
X1432742Y614994D01*
X1422745D01*
X1442739D02*
X1449403D01*
X1446071D01*
Y595000D01*
X1442739D01*
X1449403D01*
X1472729Y611661D02*
X1469397Y614994D01*
X1462732D01*
X1459400Y611661D01*
Y608329D01*
X1462732Y604997D01*
X1469397D01*
X1472729Y601665D01*
Y598332D01*
X1469397Y595000D01*
X1462732D01*
X1459400Y598332D01*
X1479394Y614994D02*
X1492723D01*
X1486058D01*
Y595000D01*
X1499387D02*
Y608329D01*
X1506052Y614994D01*
X1512716Y608329D01*
Y595000D01*
Y604997D01*
X1499387D01*
X1519381Y595000D02*
Y614994D01*
X1532710Y595000D01*
Y614994D01*
X1552703Y611661D02*
X1549371Y614994D01*
X1542707D01*
X1539374Y611661D01*
Y598332D01*
X1542707Y595000D01*
X1549371D01*
X1552703Y598332D01*
X1572697Y614994D02*
X1559368D01*
Y595000D01*
X1572697D01*
X1559368Y604997D02*
X1566032D01*
X1612684Y614994D02*
X1599355D01*
Y604997D01*
X1606019D01*
X1599355D01*
Y595000D01*
X1619349D02*
Y614994D01*
X1629345D01*
X1632678Y611661D01*
Y604997D01*
X1629345Y601665D01*
X1619349D01*
X1626013D02*
X1632678Y595000D01*
X1649339Y614994D02*
X1642674D01*
X1639342Y611661D01*
Y598332D01*
X1642674Y595000D01*
X1649339D01*
X1652671Y598332D01*
Y611661D01*
X1649339Y614994D01*
X1659336Y595000D02*
Y614994D01*
X1666000Y608329D01*
X1672665Y614994D01*
Y595000D01*
X1699323Y614994D02*
X1712652D01*
X1705987D01*
Y595000D01*
X1719316Y614994D02*
Y595000D01*
Y604997D01*
X1732645D01*
Y614994D01*
Y595000D01*
X1752639Y614994D02*
X1739310D01*
Y595000D01*
X1752639D01*
X1739310Y604997D02*
X1745974D01*
X1779297Y595000D02*
Y614994D01*
X1789294D01*
X1792626Y611661D01*
Y604997D01*
X1789294Y601665D01*
X1779297D01*
X1799291Y595000D02*
Y608329D01*
X1805955Y614994D01*
X1812620Y608329D01*
Y595000D01*
Y604997D01*
X1799291D01*
X1819284Y595000D02*
Y614994D01*
X1832613Y595000D01*
Y614994D01*
X1852607D02*
X1839278D01*
Y595000D01*
X1852607D01*
X1839278Y604997D02*
X1845942D01*
X1859271Y614994D02*
Y595000D01*
X1872600D01*
X1912587Y614994D02*
X1899258D01*
Y595000D01*
X1912587D01*
X1899258Y604997D02*
X1905923D01*
X1919252Y614994D02*
Y595000D01*
X1929249D01*
X1932581Y598332D01*
Y611661D01*
X1929249Y614994D01*
X1919252D01*
X1952575Y611661D02*
X1949242Y614994D01*
X1942578D01*
X1939245Y611661D01*
Y598332D01*
X1942578Y595000D01*
X1949242D01*
X1952575Y598332D01*
Y604997D01*
X1945910D01*
X1972568Y614994D02*
X1959239D01*
Y595000D01*
X1972568D01*
X1959239Y604997D02*
X1965904D01*
X1150500Y661661D02*
X1163829D01*
X1203816Y671658D02*
X1190487D01*
Y661661D01*
X1197152D01*
X1190487D01*
Y651665D01*
X1210481Y671658D02*
X1217145D01*
X1213813D01*
Y651665D01*
X1210481D01*
X1217145D01*
X1227142Y671658D02*
Y651665D01*
X1237139D01*
X1240471Y654997D01*
Y668326D01*
X1237139Y671658D01*
X1227142D01*
X1247135D02*
Y654997D01*
X1250468Y651665D01*
X1257132D01*
X1260464Y654997D01*
Y671658D01*
X1280458Y668326D02*
X1277126Y671658D01*
X1270461D01*
X1267129Y668326D01*
Y654997D01*
X1270461Y651665D01*
X1277126D01*
X1280458Y654997D01*
X1287123Y671658D02*
X1293787D01*
X1290455D01*
Y651665D01*
X1287123D01*
X1293787D01*
X1303784D02*
Y664994D01*
X1310448Y671658D01*
X1317113Y664994D01*
Y651665D01*
Y661661D01*
X1303784D01*
X1323777Y671658D02*
Y651665D01*
X1337106D01*
X1363765Y671658D02*
Y651665D01*
X1373761D01*
X1377094Y654997D01*
Y668326D01*
X1373761Y671658D01*
X1363765D01*
X1383758D02*
X1390423D01*
X1387090D01*
Y651665D01*
X1383758D01*
X1390423D01*
X1400419D02*
Y664994D01*
X1407084Y671658D01*
X1413748Y664994D01*
Y651665D01*
Y661661D01*
X1400419D01*
X1420413Y651665D02*
Y671658D01*
X1427077Y664994D01*
X1433742Y671658D01*
Y651665D01*
X1453736Y671658D02*
X1440406D01*
Y651665D01*
X1453736D01*
X1440406Y661661D02*
X1447071D01*
X1460400Y671658D02*
X1473729D01*
X1467065D01*
Y651665D01*
X1493723Y671658D02*
X1480394D01*
Y651665D01*
X1493723D01*
X1480394Y661661D02*
X1487058D01*
X1500387Y651665D02*
Y671658D01*
X1510384D01*
X1513716Y668326D01*
Y661661D01*
X1510384Y658329D01*
X1500387D01*
X1507052D02*
X1513716Y651665D01*
X1540374D02*
X1547039D01*
X1543707D01*
Y671658D01*
X1540374Y668326D01*
X1557036Y661661D02*
X1570365D01*
X1577029Y651665D02*
X1583694D01*
X1580361D01*
Y671658D01*
X1577029Y668326D01*
X1593690Y651665D02*
Y654997D01*
X1597023D01*
Y651665D01*
X1593690D01*
X1623681Y671658D02*
X1610352D01*
Y661661D01*
X1617016Y664994D01*
X1620349D01*
X1623681Y661661D01*
Y654997D01*
X1620349Y651665D01*
X1613684D01*
X1610352Y654997D01*
X1630345Y651665D02*
Y671658D01*
X1637010Y664994D01*
X1643674Y671658D01*
Y651665D01*
X1650339D02*
Y671658D01*
X1657003Y664994D01*
X1663668Y671658D01*
Y651665D01*
X1673665Y648332D02*
X1676997Y651665D01*
Y654997D01*
X1673665D01*
Y651665D01*
X1676997D01*
X1673665Y648332D01*
X1670332Y645000D01*
X1723649Y668326D02*
X1720316Y671658D01*
X1713652D01*
X1710320Y668326D01*
Y664994D01*
X1713652Y661661D01*
X1720316D01*
X1723649Y658329D01*
Y654997D01*
X1720316Y651665D01*
X1713652D01*
X1710320Y654997D01*
X1740310Y671658D02*
X1733645D01*
X1730313Y668326D01*
Y654997D01*
X1733645Y651665D01*
X1740310D01*
X1743642Y654997D01*
Y668326D01*
X1740310Y671658D01*
X1750307D02*
Y651665D01*
X1763636D01*
X1770300Y671658D02*
Y651665D01*
X1780297D01*
X1783629Y654997D01*
Y668326D01*
X1780297Y671658D01*
X1770300D01*
X1803623D02*
X1790294D01*
Y651665D01*
X1803623D01*
X1790294Y661661D02*
X1796958D01*
X1810287Y651665D02*
Y671658D01*
X1820284D01*
X1823616Y668326D01*
Y661661D01*
X1820284Y658329D01*
X1810287D01*
X1816952D02*
X1823616Y651665D01*
X1850275D02*
Y671658D01*
X1856939Y664994D01*
X1863604Y671658D01*
Y651665D01*
X1870268D02*
Y664994D01*
X1876933Y671658D01*
X1883597Y664994D01*
Y651665D01*
Y661661D01*
X1870268D01*
X1903591Y668326D02*
X1900258Y671658D01*
X1893594D01*
X1890262Y668326D01*
Y664994D01*
X1893594Y661661D01*
X1900258D01*
X1903591Y658329D01*
Y654997D01*
X1900258Y651665D01*
X1893594D01*
X1890262Y654997D01*
X1910255Y671658D02*
Y651665D01*
Y658329D01*
X1923584Y671658D01*
X1913587Y661661D01*
X1923584Y651665D01*
X1960239Y671658D02*
X1953575D01*
X1950242Y668326D01*
Y654997D01*
X1953575Y651665D01*
X1960239D01*
X1963571Y654997D01*
Y668326D01*
X1960239Y671658D01*
X1970236Y651665D02*
Y671658D01*
X1980233D01*
X1983565Y668326D01*
Y661661D01*
X1980233Y658329D01*
X1970236D01*
X2003558Y671658D02*
X1990229D01*
Y651665D01*
X2003558D01*
X1990229Y661661D02*
X1996894D01*
X2010223Y651665D02*
Y671658D01*
X2023552Y651665D01*
Y671658D01*
X2030217D02*
X2036881D01*
X2033549D01*
Y651665D01*
X2030217D01*
X2036881D01*
X2046878D02*
Y671658D01*
X2060207Y651665D01*
Y671658D01*
X2080200Y668326D02*
X2076868Y671658D01*
X2070204D01*
X2066871Y668326D01*
Y654997D01*
X2070204Y651665D01*
X2076868D01*
X2080200Y654997D01*
Y661661D01*
X2073536D01*
X2106858Y651665D02*
Y664994D01*
X2113523Y671658D01*
X2120188Y664994D01*
Y651665D01*
Y661661D01*
X2106858D01*
X2126852Y671658D02*
X2140181D01*
X2133517D01*
Y651665D01*
X2166839Y671658D02*
Y651665D01*
X2180168D01*
X2200162Y671658D02*
X2186833D01*
Y651665D01*
X2200162D01*
X2186833Y661661D02*
X2193497D01*
X2206826Y651665D02*
Y664994D01*
X2213491Y671658D01*
X2220155Y664994D01*
Y651665D01*
Y661661D01*
X2206826D01*
X2240149Y668326D02*
X2236817Y671658D01*
X2230152D01*
X2226820Y668326D01*
Y664994D01*
X2230152Y661661D01*
X2236817D01*
X2240149Y658329D01*
Y654997D01*
X2236817Y651665D01*
X2230152D01*
X2226820Y654997D01*
X2246813Y671658D02*
X2260142D01*
X2253478D01*
Y651665D01*
X2286801D02*
X2293465D01*
X2290133D01*
Y671658D01*
X2286801Y668326D01*
X2303462Y651665D02*
Y671658D01*
X2310126Y664994D01*
X2316791Y671658D01*
Y651665D01*
X2323455D02*
Y671658D01*
X2330120Y664994D01*
X2336784Y671658D01*
Y651665D01*
X2376772Y668326D02*
X2373439Y671658D01*
X2366775D01*
X2363442Y668326D01*
Y654997D01*
X2366775Y651665D01*
X2373439D01*
X2376772Y654997D01*
Y661661D01*
X2370107D01*
X2383436Y651665D02*
Y671658D01*
X2393433D01*
X2396765Y668326D01*
Y661661D01*
X2393433Y658329D01*
X2383436D01*
X2390101D02*
X2396765Y651665D01*
X2416759Y671658D02*
X2403430D01*
Y651665D01*
X2416759D01*
X2403430Y661661D02*
X2410094D01*
X2423423Y651665D02*
Y664994D01*
X2430088Y671658D01*
X2436752Y664994D01*
Y651665D01*
Y661661D01*
X2423423D01*
X2443417Y671658D02*
X2456746D01*
X2450081D01*
Y651665D01*
X2476739Y671658D02*
X2463410D01*
Y651665D01*
X2476739D01*
X2463410Y661661D02*
X2470075D01*
X2483404Y651665D02*
Y671658D01*
X2493401D01*
X2496733Y668326D01*
Y661661D01*
X2493401Y658329D01*
X2483404D01*
X2490068D02*
X2496733Y651665D01*
X2523391Y671658D02*
X2536720D01*
X2530055D01*
Y651665D01*
X2543385Y671658D02*
Y651665D01*
Y661661D01*
X2556714D01*
Y671658D01*
Y651665D01*
X2563378D02*
Y664994D01*
X2570042Y671658D01*
X2576707Y664994D01*
Y651665D01*
Y661661D01*
X2563378D01*
X2583372Y651665D02*
Y671658D01*
X2596701Y651665D01*
Y671658D01*
X2636688D02*
X2623359D01*
Y661661D01*
X2630023D01*
X2623359D01*
Y651665D01*
X2643352Y671658D02*
X2650017D01*
X2646685D01*
Y651665D01*
X2643352D01*
X2650017D01*
X2660014Y671658D02*
Y651665D01*
X2670010D01*
X2673343Y654997D01*
Y668326D01*
X2670010Y671658D01*
X2660014D01*
X2680007D02*
Y654997D01*
X2683340Y651665D01*
X2690004D01*
X2693336Y654997D01*
Y671658D01*
X2713330Y668326D02*
X2709998Y671658D01*
X2703333D01*
X2700001Y668326D01*
Y654997D01*
X2703333Y651665D01*
X2709998D01*
X2713330Y654997D01*
X2719994Y671658D02*
X2726659D01*
X2723326D01*
Y651665D01*
X2719994D01*
X2726659D01*
X2736656D02*
Y664994D01*
X2743320Y671658D01*
X2749984Y664994D01*
Y651665D01*
Y661661D01*
X2736656D01*
X2756649Y671658D02*
Y651665D01*
X2769978D01*
X1080329Y730493D02*
X1067000D01*
Y720497D01*
X1073664Y723829D01*
X1076997D01*
X1080329Y720497D01*
Y713832D01*
X1076997Y710500D01*
X1070332D01*
X1067000Y713832D01*
X1086993Y710500D02*
Y713832D01*
X1090326D01*
Y710500D01*
X1086993D01*
X1123648D02*
Y730493D01*
X1133645D01*
X1136977Y727161D01*
Y720497D01*
X1133645Y717165D01*
X1123648D01*
X1143642Y710500D02*
Y723829D01*
X1150306Y730493D01*
X1156971Y723829D01*
Y710500D01*
Y720497D01*
X1143642D01*
X1163635Y710500D02*
Y730493D01*
X1176964Y710500D01*
Y730493D01*
X1196958D02*
X1183629D01*
Y710500D01*
X1196958D01*
X1183629Y720497D02*
X1190294D01*
X1203623Y730493D02*
Y710500D01*
X1216952D01*
X1223616Y730493D02*
X1230281D01*
X1226948D01*
Y710500D01*
X1223616D01*
X1230281D01*
X1240277Y730493D02*
X1253606D01*
Y727161D01*
X1240277Y713832D01*
Y710500D01*
X1253606D01*
X1273600Y730493D02*
X1260271D01*
Y710500D01*
X1273600D01*
X1260271Y720497D02*
X1266936D01*
X1300258Y730493D02*
X1313587D01*
X1306923D01*
Y710500D01*
X1320252Y730493D02*
Y710500D01*
Y720497D01*
X1333581D01*
Y730493D01*
Y710500D01*
X1353574Y730493D02*
X1340245D01*
Y710500D01*
X1353574D01*
X1340245Y720497D02*
X1346910D01*
X1380232Y730493D02*
Y710500D01*
X1390229D01*
X1393561Y713832D01*
Y717165D01*
X1390229Y720497D01*
X1380232D01*
X1390229D01*
X1393561Y723829D01*
Y727161D01*
X1390229Y730493D01*
X1380232D01*
X1410223D02*
X1403558D01*
X1400226Y727161D01*
Y713832D01*
X1403558Y710500D01*
X1410223D01*
X1413555Y713832D01*
Y727161D01*
X1410223Y730493D01*
X1420220Y710500D02*
Y723829D01*
X1426884Y730493D01*
X1433548Y723829D01*
Y710500D01*
Y720497D01*
X1420220D01*
X1440213Y710500D02*
Y730493D01*
X1450210D01*
X1453542Y727161D01*
Y720497D01*
X1450210Y717165D01*
X1440213D01*
X1446877D02*
X1453542Y710500D01*
X1460207Y730493D02*
Y710500D01*
X1470203D01*
X1473536Y713832D01*
Y727161D01*
X1470203Y730493D01*
X1460207D01*
X1506858Y710500D02*
X1500194Y717165D01*
Y723829D01*
X1506858Y730493D01*
X1526852Y710500D02*
Y730493D01*
X1516855Y720497D01*
X1530184D01*
X1536849Y710500D02*
Y730493D01*
X1546845D01*
X1550178Y727161D01*
Y720497D01*
X1546845Y717165D01*
X1536849D01*
X1570171Y727161D02*
X1566839Y730493D01*
X1560174D01*
X1556842Y727161D01*
Y713832D01*
X1560174Y710500D01*
X1566839D01*
X1570171Y713832D01*
X1590165Y727161D02*
X1586832Y730493D01*
X1580168D01*
X1576836Y727161D01*
Y723829D01*
X1580168Y720497D01*
X1586832D01*
X1590165Y717165D01*
Y713832D01*
X1586832Y710500D01*
X1580168D01*
X1576836Y713832D01*
X1616823Y710500D02*
Y730493D01*
X1626820D01*
X1630152Y727161D01*
Y720497D01*
X1626820Y717165D01*
X1616823D01*
X1650145Y730493D02*
X1636816D01*
Y710500D01*
X1650145D01*
X1636816Y720497D02*
X1643481D01*
X1656810Y710500D02*
Y730493D01*
X1666807D01*
X1670139Y727161D01*
Y720497D01*
X1666807Y717165D01*
X1656810D01*
X1663474D02*
X1670139Y710500D01*
X1696797D02*
Y730493D01*
X1706794D01*
X1710126Y727161D01*
Y720497D01*
X1706794Y717165D01*
X1696797D01*
X1716791Y710500D02*
Y723829D01*
X1723455Y730493D01*
X1730120Y723829D01*
Y710500D01*
Y720497D01*
X1716791D01*
X1736784Y710500D02*
Y730493D01*
X1750113Y710500D01*
Y730493D01*
X1770107D02*
X1756778D01*
Y710500D01*
X1770107D01*
X1756778Y720497D02*
X1763442D01*
X1776771Y730493D02*
Y710500D01*
X1790100D01*
X1796765D02*
X1803429Y717165D01*
Y723829D01*
X1796765Y730493D01*
X1813426Y710500D02*
Y713832D01*
X1816758D01*
Y710500D01*
X1813426D01*
X1850081D02*
Y730493D01*
X1860078D01*
X1863410Y727161D01*
Y720497D01*
X1860078Y717165D01*
X1850081D01*
X1870074Y730493D02*
Y710500D01*
X1883403D01*
X1890068D02*
Y723829D01*
X1896733Y730493D01*
X1903397Y723829D01*
Y710500D01*
Y720497D01*
X1890068D01*
X1923391Y727161D02*
X1920058Y730493D01*
X1913394D01*
X1910062Y727161D01*
Y713832D01*
X1913394Y710500D01*
X1920058D01*
X1923391Y713832D01*
X1943384Y730493D02*
X1930055D01*
Y710500D01*
X1943384D01*
X1930055Y720497D02*
X1936720D01*
X1983371Y730493D02*
X1970042D01*
Y720497D01*
X1976707D01*
X1970042D01*
Y710500D01*
X1990036Y730493D02*
X1996700D01*
X1993368D01*
Y710500D01*
X1990036D01*
X1996700D01*
X2006697Y730493D02*
Y710500D01*
X2016694D01*
X2020026Y713832D01*
Y727161D01*
X2016694Y730493D01*
X2006697D01*
X2026691D02*
Y713832D01*
X2030023Y710500D01*
X2036687D01*
X2040020Y713832D01*
Y730493D01*
X2060013Y727161D02*
X2056681Y730493D01*
X2050016D01*
X2046684Y727161D01*
Y713832D01*
X2050016Y710500D01*
X2056681D01*
X2060013Y713832D01*
X2066678Y730493D02*
X2073342D01*
X2070010D01*
Y710500D01*
X2066678D01*
X2073342D01*
X2083339D02*
Y723829D01*
X2090004Y730493D01*
X2096668Y723829D01*
Y710500D01*
Y720497D01*
X2083339D01*
X2103333Y730493D02*
Y710500D01*
X2116662D01*
X2136655Y727161D02*
X2133323Y730493D01*
X2126658D01*
X2123326Y727161D01*
Y723829D01*
X2126658Y720497D01*
X2133323D01*
X2136655Y717165D01*
Y713832D01*
X2133323Y710500D01*
X2126658D01*
X2123326Y713832D01*
X2173310Y730493D02*
X2166646D01*
X2163313Y727161D01*
Y713832D01*
X2166646Y710500D01*
X2173310D01*
X2176642Y713832D01*
Y727161D01*
X2173310Y730493D01*
X2183307Y710500D02*
Y730493D01*
X2196636Y710500D01*
Y730493D01*
X2223294D02*
X2236623D01*
X2229958D01*
Y710500D01*
X2243288Y730493D02*
Y710500D01*
Y720497D01*
X2256617D01*
Y730493D01*
Y710500D01*
X2276610Y730493D02*
X2263281D01*
Y710500D01*
X2276610D01*
X2263281Y720497D02*
X2269946D01*
X2303268Y710500D02*
Y730493D01*
X2313265D01*
X2316597Y727161D01*
Y720497D01*
X2313265Y717165D01*
X2303268D01*
X2323262Y710500D02*
Y723829D01*
X2329926Y730493D01*
X2336591Y723829D01*
Y710500D01*
Y720497D01*
X2323262D01*
X2343255Y710500D02*
Y730493D01*
X2356584Y710500D01*
Y730493D01*
X2376578D02*
X2363249D01*
Y710500D01*
X2376578D01*
X2363249Y720497D02*
X2369913D01*
X2383242Y730493D02*
Y710500D01*
X2396572D01*
X2436559Y727161D02*
X2433226Y730493D01*
X2426562D01*
X2423230Y727161D01*
Y723829D01*
X2426562Y720497D01*
X2433226D01*
X2436559Y717165D01*
Y713832D01*
X2433226Y710500D01*
X2426562D01*
X2423230Y713832D01*
X2443223Y730493D02*
X2456552D01*
X2449888D01*
Y710500D01*
X2463217D02*
Y730493D01*
X2473214D01*
X2476546Y727161D01*
Y720497D01*
X2473214Y717165D01*
X2463217D01*
X2469881D02*
X2476546Y710500D01*
X2483210Y730493D02*
X2489875D01*
X2486543D01*
Y710500D01*
X2483210D01*
X2489875D01*
X2499872D02*
Y730493D01*
X2509868D01*
X2513201Y727161D01*
Y720497D01*
X2509868Y717165D01*
X2499872D01*
X2533194Y727161D02*
X2529862Y730493D01*
X2523197D01*
X2519865Y727161D01*
Y723829D01*
X2523197Y720497D01*
X2529862D01*
X2533194Y717165D01*
Y713832D01*
X2529862Y710500D01*
X2523197D01*
X2519865Y713832D01*
X2559852Y710500D02*
Y723829D01*
X2566517Y730493D01*
X2573181Y723829D01*
Y710500D01*
Y720497D01*
X2559852D01*
X2593175Y727161D02*
X2589843Y730493D01*
X2583178D01*
X2579846Y727161D01*
Y723829D01*
X2583178Y720497D01*
X2589843D01*
X2593175Y717165D01*
Y713832D01*
X2589843Y710500D01*
X2583178D01*
X2579846Y713832D01*
X2633162Y730493D02*
X2619833D01*
Y720497D01*
X2626497D01*
X2619833D01*
Y710500D01*
X2649823Y730493D02*
X2643159D01*
X2639826Y727161D01*
Y713832D01*
X2643159Y710500D01*
X2649823D01*
X2653156Y713832D01*
Y727161D01*
X2649823Y730493D01*
X2659820D02*
Y710500D01*
X2673149D01*
X2679814Y730493D02*
Y710500D01*
X2693143D01*
X2709804Y730493D02*
X2703139D01*
X2699807Y727161D01*
Y713832D01*
X2703139Y710500D01*
X2709804D01*
X2713136Y713832D01*
Y727161D01*
X2709804Y730493D01*
X2719801D02*
Y710500D01*
X2726465Y717165D01*
X2733130Y710500D01*
Y730493D01*
X2753123Y727161D02*
X2749791Y730493D01*
X2743127D01*
X2739794Y727161D01*
Y723829D01*
X2743127Y720497D01*
X2749791D01*
X2753123Y717165D01*
Y713832D01*
X2749791Y710500D01*
X2743127D01*
X2739794Y713832D01*
X2759788Y723829D02*
X2763120D01*
Y720497D01*
X2759788D01*
Y723829D01*
Y713832D02*
X2763120D01*
Y710500D01*
X2759788D01*
Y713832D01*
X1076997Y767500D02*
Y787494D01*
X1067000Y777497D01*
X1080329D01*
X1086993Y767500D02*
Y770832D01*
X1090326D01*
Y767500D01*
X1086993D01*
X1136977Y784161D02*
X1133645Y787494D01*
X1126981D01*
X1123648Y784161D01*
Y770832D01*
X1126981Y767500D01*
X1133645D01*
X1136977Y770832D01*
X1153639Y787494D02*
X1146974D01*
X1143642Y784161D01*
Y770832D01*
X1146974Y767500D01*
X1153639D01*
X1156971Y770832D01*
Y784161D01*
X1153639Y787494D01*
X1163635Y767500D02*
Y787494D01*
X1170300Y780829D01*
X1176964Y787494D01*
Y767500D01*
X1183629D02*
Y787494D01*
X1193626D01*
X1196958Y784161D01*
Y777497D01*
X1193626Y774165D01*
X1183629D01*
X1213619Y787494D02*
X1206955D01*
X1203623Y784161D01*
Y770832D01*
X1206955Y767500D01*
X1213619D01*
X1216952Y770832D01*
Y784161D01*
X1213619Y787494D01*
X1223616Y767500D02*
Y787494D01*
X1236945Y767500D01*
Y787494D01*
X1256939D02*
X1243610D01*
Y767500D01*
X1256939D01*
X1243610Y777497D02*
X1250274D01*
X1263603Y767500D02*
Y787494D01*
X1276932Y767500D01*
Y787494D01*
X1283597D02*
X1296926D01*
X1290261D01*
Y767500D01*
X1323584Y787494D02*
X1330249D01*
X1326916D01*
Y767500D01*
X1323584D01*
X1330249D01*
X1340245Y787494D02*
Y767500D01*
X1350242D01*
X1353574Y770832D01*
Y784161D01*
X1350242Y787494D01*
X1340245D01*
X1373568D02*
X1360239D01*
Y767500D01*
X1373568D01*
X1360239Y777497D02*
X1366903D01*
X1380232Y767500D02*
Y787494D01*
X1393561Y767500D01*
Y787494D01*
X1400226D02*
X1413555D01*
X1406890D01*
Y767500D01*
X1420220Y780829D02*
X1423552D01*
Y777497D01*
X1420220D01*
Y780829D01*
Y770832D02*
X1423552D01*
Y767500D01*
X1420220D01*
Y770832D01*
X1470203Y784161D02*
X1466871Y787494D01*
X1460207D01*
X1456874Y784161D01*
Y770832D01*
X1460207Y767500D01*
X1466871D01*
X1470203Y770832D01*
X1486865Y787494D02*
X1480200D01*
X1476868Y784161D01*
Y770832D01*
X1480200Y767500D01*
X1486865D01*
X1490197Y770832D01*
Y784161D01*
X1486865Y787494D01*
X1496861D02*
Y767500D01*
X1510190D01*
X1526852Y787494D02*
X1520187D01*
X1516855Y784161D01*
Y770832D01*
X1520187Y767500D01*
X1526852D01*
X1530184Y770832D01*
Y784161D01*
X1526852Y787494D01*
X1536849Y767500D02*
Y787494D01*
X1546845D01*
X1550178Y784161D01*
Y777497D01*
X1546845Y774165D01*
X1536849D01*
X1543513D02*
X1550178Y767500D01*
X1576836Y787494D02*
X1590165D01*
X1583500D01*
Y767500D01*
X1606826Y787494D02*
X1600161D01*
X1596829Y784161D01*
Y770832D01*
X1600161Y767500D01*
X1606826D01*
X1610158Y770832D01*
Y784161D01*
X1606826Y787494D01*
X1636816D02*
Y767500D01*
X1646813D01*
X1650145Y770832D01*
Y774165D01*
X1646813Y777497D01*
X1636816D01*
X1646813D01*
X1650145Y780829D01*
Y784161D01*
X1646813Y787494D01*
X1636816D01*
X1670139D02*
X1656810D01*
Y767500D01*
X1670139D01*
X1656810Y777497D02*
X1663474D01*
X1696797Y787494D02*
Y767500D01*
X1703461Y774165D01*
X1710126Y767500D01*
Y787494D01*
X1716791D02*
Y767500D01*
Y777497D01*
X1730120D01*
Y787494D01*
Y767500D01*
X1736784Y787494D02*
X1743449D01*
X1740116D01*
Y767500D01*
X1736784D01*
X1743449D01*
X1753445Y787494D02*
X1766774D01*
X1760110D01*
Y767500D01*
X1786768Y787494D02*
X1773439D01*
Y767500D01*
X1786768D01*
X1773439Y777497D02*
X1780103D01*
X1065000Y840493D02*
X1068332Y843826D01*
X1074997D01*
X1078329Y840493D01*
Y837161D01*
X1074997Y833829D01*
X1071665D01*
X1074997D01*
X1078329Y830497D01*
Y827165D01*
X1074997Y823832D01*
X1068332D01*
X1065000Y827165D01*
X1084994Y823832D02*
Y827165D01*
X1088326D01*
Y823832D01*
X1084994D01*
X1134977Y840493D02*
X1131645Y843826D01*
X1124981D01*
X1121648Y840493D01*
Y837161D01*
X1124981Y833829D01*
X1131645D01*
X1134977Y830497D01*
Y827165D01*
X1131645Y823832D01*
X1124981D01*
X1121648Y827165D01*
X1151639Y843826D02*
X1144974D01*
X1141642Y840493D01*
Y827165D01*
X1144974Y823832D01*
X1151639D01*
X1154971Y827165D01*
Y840493D01*
X1151639Y843826D01*
X1161636D02*
Y823832D01*
X1174965D01*
X1181629Y843826D02*
Y823832D01*
X1191626D01*
X1194958Y827165D01*
Y840493D01*
X1191626Y843826D01*
X1181629D01*
X1214952D02*
X1201623D01*
Y823832D01*
X1214952D01*
X1201623Y833829D02*
X1208287D01*
X1221616Y823832D02*
Y843826D01*
X1231613D01*
X1234945Y840493D01*
Y833829D01*
X1231613Y830497D01*
X1221616D01*
X1228281D02*
X1234945Y823832D01*
X1261603D02*
Y843826D01*
X1271600D01*
X1274932Y840493D01*
Y833829D01*
X1271600Y830497D01*
X1261603D01*
X1268268D02*
X1274932Y823832D01*
X1294926Y843826D02*
X1281597D01*
Y823832D01*
X1294926D01*
X1281597Y833829D02*
X1288261D01*
X1314919Y840493D02*
X1311587Y843826D01*
X1304923D01*
X1301590Y840493D01*
Y837161D01*
X1304923Y833829D01*
X1311587D01*
X1314919Y830497D01*
Y827165D01*
X1311587Y823832D01*
X1304923D01*
X1301590Y827165D01*
X1321584Y843826D02*
X1328248D01*
X1324916D01*
Y823832D01*
X1321584D01*
X1328248D01*
X1351574Y840493D02*
X1348242Y843826D01*
X1341577D01*
X1338245Y840493D01*
Y837161D01*
X1341577Y833829D01*
X1348242D01*
X1351574Y830497D01*
Y827165D01*
X1348242Y823832D01*
X1341577D01*
X1338245Y827165D01*
X1358239Y843826D02*
X1371568D01*
X1364903D01*
Y823832D01*
X1378232Y837161D02*
X1381565D01*
Y833829D01*
X1378232D01*
Y837161D01*
Y827165D02*
X1381565D01*
Y823832D01*
X1378232D01*
Y827165D01*
X1414887Y823832D02*
Y837161D01*
X1421552Y843826D01*
X1428216Y837161D01*
Y823832D01*
Y833829D01*
X1414887D01*
X1434881Y823832D02*
Y843826D01*
X1444878D01*
X1448210Y840493D01*
Y833829D01*
X1444878Y830497D01*
X1434881D01*
X1454874Y823832D02*
Y843826D01*
X1464871D01*
X1468203Y840493D01*
Y833829D01*
X1464871Y830497D01*
X1454874D01*
X1474868Y843826D02*
Y823832D01*
X1488197D01*
X1494861Y843826D02*
Y840493D01*
X1501526Y833829D01*
X1508190Y840493D01*
Y843826D01*
X1501526Y833829D02*
Y823832D01*
X1534849Y843826D02*
X1548178D01*
X1541513D01*
Y823832D01*
X1564839Y843826D02*
X1558174D01*
X1554842Y840493D01*
Y827165D01*
X1558174Y823832D01*
X1564839D01*
X1568171Y827165D01*
Y840493D01*
X1564839Y843826D01*
X1594829D02*
Y823832D01*
X1604826D01*
X1608158Y827165D01*
Y830497D01*
X1604826Y833829D01*
X1594829D01*
X1604826D01*
X1608158Y837161D01*
Y840493D01*
X1604826Y843826D01*
X1594829D01*
X1624820D02*
X1618155D01*
X1614823Y840493D01*
Y827165D01*
X1618155Y823832D01*
X1624820D01*
X1628152Y827165D01*
Y840493D01*
X1624820Y843826D01*
X1634816D02*
X1648145D01*
X1641481D01*
Y823832D01*
X1654810Y843826D02*
Y823832D01*
Y833829D01*
X1668139D01*
Y843826D01*
Y823832D01*
X1708126Y840493D02*
X1704794Y843826D01*
X1698129D01*
X1694797Y840493D01*
Y837161D01*
X1698129Y833829D01*
X1704794D01*
X1708126Y830497D01*
Y827165D01*
X1704794Y823832D01*
X1698129D01*
X1694797Y827165D01*
X1714791Y843826D02*
X1721455D01*
X1718123D01*
Y823832D01*
X1714791D01*
X1721455D01*
X1731452Y843826D02*
Y823832D01*
X1741449D01*
X1744781Y827165D01*
Y840493D01*
X1741449Y843826D01*
X1731452D01*
X1764774D02*
X1751445D01*
Y823832D01*
X1764774D01*
X1751445Y833829D02*
X1758110D01*
X1784768Y840493D02*
X1781436Y843826D01*
X1774771D01*
X1771439Y840493D01*
Y837161D01*
X1774771Y833829D01*
X1781436D01*
X1784768Y830497D01*
Y827165D01*
X1781436Y823832D01*
X1774771D01*
X1771439Y827165D01*
X1791433Y833829D02*
Y837161D01*
X1794765D01*
Y833829D01*
X1791433D01*
Y827165D02*
X1794765D01*
Y823832D01*
X1791433Y820500D01*
X1794765Y823832D02*
X1791433D01*
Y827165D01*
X1841416Y840493D02*
X1838084Y843826D01*
X1831420D01*
X1828087Y840493D01*
Y827165D01*
X1831420Y823832D01*
X1838084D01*
X1841416Y827165D01*
X1858078Y843826D02*
X1851413D01*
X1848081Y840493D01*
Y827165D01*
X1851413Y823832D01*
X1858078D01*
X1861410Y827165D01*
Y840493D01*
X1858078Y843826D01*
X1868074D02*
Y823832D01*
X1881404D01*
X1898065Y843826D02*
X1891400D01*
X1888068Y840493D01*
Y827165D01*
X1891400Y823832D01*
X1898065D01*
X1901397Y827165D01*
Y840493D01*
X1898065Y843826D01*
X1908062Y823832D02*
Y843826D01*
X1918058D01*
X1921391Y840493D01*
Y833829D01*
X1918058Y830497D01*
X1908062D01*
X1914726D02*
X1921391Y823832D01*
X1948049Y833829D02*
X1961378D01*
X1988036Y843826D02*
Y823832D01*
X1998033D01*
X2001365Y827165D01*
Y830497D01*
X1998033Y833829D01*
X1988036D01*
X1998033D01*
X2001365Y837161D01*
Y840493D01*
X1998033Y843826D01*
X1988036D01*
X2008029D02*
Y823832D01*
X2021358D01*
X2028023Y843826D02*
Y827165D01*
X2031355Y823832D01*
X2038020D01*
X2041352Y827165D01*
Y843826D01*
X2061346D02*
X2048017D01*
Y823832D01*
X2061346D01*
X2048017Y833829D02*
X2054681D01*
X1077829Y874332D02*
X1064500D01*
X1077829Y887661D01*
Y890993D01*
X1074497Y894326D01*
X1067832D01*
X1064500Y890993D01*
X1084493Y874332D02*
Y877664D01*
X1087826D01*
Y874332D01*
X1084493D01*
X1121148Y894326D02*
Y874332D01*
X1131145D01*
X1134477Y877664D01*
Y880997D01*
X1131145Y884329D01*
X1121148D01*
X1131145D01*
X1134477Y887661D01*
Y890993D01*
X1131145Y894326D01*
X1121148D01*
X1151139D02*
X1144474D01*
X1141142Y890993D01*
Y877664D01*
X1144474Y874332D01*
X1151139D01*
X1154471Y877664D01*
Y890993D01*
X1151139Y894326D01*
X1161135Y874332D02*
Y887661D01*
X1167800Y894326D01*
X1174464Y887661D01*
Y874332D01*
Y884329D01*
X1161135D01*
X1181129Y874332D02*
Y894326D01*
X1191126D01*
X1194458Y890993D01*
Y884329D01*
X1191126Y880997D01*
X1181129D01*
X1187794D02*
X1194458Y874332D01*
X1201123Y894326D02*
Y874332D01*
X1211119D01*
X1214452Y877664D01*
Y890993D01*
X1211119Y894326D01*
X1201123D01*
X1254439D02*
X1241110D01*
Y884329D01*
X1247774D01*
X1241110D01*
Y874332D01*
X1261103Y894326D02*
X1267768D01*
X1264436D01*
Y874332D01*
X1261103D01*
X1267768D01*
X1277765D02*
Y894326D01*
X1291094Y874332D01*
Y894326D01*
X1297758D02*
X1304423D01*
X1301090D01*
Y874332D01*
X1297758D01*
X1304423D01*
X1327748Y890993D02*
X1324416Y894326D01*
X1317752D01*
X1314419Y890993D01*
Y887661D01*
X1317752Y884329D01*
X1324416D01*
X1327748Y880997D01*
Y877664D01*
X1324416Y874332D01*
X1317752D01*
X1314419Y877664D01*
X1334413Y894326D02*
Y874332D01*
Y884329D01*
X1347742D01*
Y894326D01*
Y874332D01*
X1354406Y887661D02*
X1357739D01*
Y884329D01*
X1354406D01*
Y887661D01*
Y877664D02*
X1357739D01*
Y874332D01*
X1354406D01*
Y877664D01*
X1391061Y894326D02*
X1397726D01*
X1394394D01*
Y874332D01*
X1391061D01*
X1397726D01*
X1407723D02*
Y894326D01*
X1414387Y887661D01*
X1421052Y894326D01*
Y874332D01*
X1427716D02*
Y894326D01*
X1434381Y887661D01*
X1441045Y894326D01*
Y874332D01*
X1461039Y894326D02*
X1447710D01*
Y874332D01*
X1461039D01*
X1447710Y884329D02*
X1454374D01*
X1467703Y874332D02*
Y894326D01*
X1477700D01*
X1481032Y890993D01*
Y884329D01*
X1477700Y880997D01*
X1467703D01*
X1474368D02*
X1481032Y874332D01*
X1501026Y890993D02*
X1497694Y894326D01*
X1491029D01*
X1487697Y890993D01*
Y887661D01*
X1491029Y884329D01*
X1497694D01*
X1501026Y880997D01*
Y877664D01*
X1497694Y874332D01*
X1491029D01*
X1487697Y877664D01*
X1507690Y894326D02*
X1514355D01*
X1511023D01*
Y874332D01*
X1507690D01*
X1514355D01*
X1534348Y894326D02*
X1527684D01*
X1524352Y890993D01*
Y877664D01*
X1527684Y874332D01*
X1534348D01*
X1537681Y877664D01*
Y890993D01*
X1534348Y894326D01*
X1544345Y874332D02*
Y894326D01*
X1557674Y874332D01*
Y894326D01*
X1584332Y874332D02*
Y887661D01*
X1590997Y894326D01*
X1597661Y887661D01*
Y874332D01*
Y884329D01*
X1584332D01*
X1604326Y887661D02*
Y877664D01*
X1607658Y874332D01*
X1617655D01*
Y887661D01*
X1624319Y874332D02*
X1637649Y887661D01*
X1657642Y894326D02*
X1644313D01*
Y874332D01*
X1657642D01*
X1644313Y884329D02*
X1650978D01*
X1664307Y894326D02*
Y874332D01*
X1677636D01*
X1697629Y894326D02*
X1684300D01*
Y874332D01*
X1697629D01*
X1684300Y884329D02*
X1690965D01*
X1717623Y890993D02*
X1714291Y894326D01*
X1707626D01*
X1704294Y890993D01*
Y877664D01*
X1707626Y874332D01*
X1714291D01*
X1717623Y877664D01*
X1724287Y894326D02*
X1737616D01*
X1730952D01*
Y874332D01*
X1744281D02*
Y894326D01*
X1754278D01*
X1757610Y890993D01*
Y884329D01*
X1754278Y880997D01*
X1744281D01*
X1750945D02*
X1757610Y874332D01*
X1774271Y894326D02*
X1767607D01*
X1764274Y890993D01*
Y877664D01*
X1767607Y874332D01*
X1774271D01*
X1777603Y877664D01*
Y890993D01*
X1774271Y894326D01*
X1784268D02*
Y874332D01*
X1797597D01*
X1817591Y894326D02*
X1804262D01*
Y874332D01*
X1817591D01*
X1804262Y884329D02*
X1810926D01*
X1837584Y890993D02*
X1834252Y894326D01*
X1827587D01*
X1824255Y890993D01*
Y887661D01*
X1827587Y884329D01*
X1834252D01*
X1837584Y880997D01*
Y877664D01*
X1834252Y874332D01*
X1827587D01*
X1824255Y877664D01*
X1857578Y890993D02*
X1854245Y894326D01*
X1847581D01*
X1844249Y890993D01*
Y887661D01*
X1847581Y884329D01*
X1854245D01*
X1857578Y880997D01*
Y877664D01*
X1854245Y874332D01*
X1847581D01*
X1844249Y877664D01*
X1884236Y874332D02*
Y894326D01*
X1897565Y874332D01*
Y894326D01*
X1904229Y874332D02*
X1910894D01*
X1907562D01*
Y887661D01*
X1904229D01*
X1920891Y884329D02*
Y887661D01*
X1924223D01*
Y884329D01*
X1920891D01*
Y877664D02*
X1924223D01*
Y874332D01*
X1920891Y871000D01*
X1924223Y874332D02*
X1920891D01*
Y877664D01*
X1957545Y890993D02*
X1960878Y894326D01*
X1967542D01*
X1970874Y890993D01*
Y877664D01*
X1967542Y874332D01*
X1960878D01*
X1957545Y877664D01*
Y890993D01*
X1977539Y874332D02*
Y877664D01*
X1980871D01*
Y874332D01*
X1977539D01*
X1994200Y890993D02*
X1997533Y894326D01*
X2004197D01*
X2007529Y890993D01*
Y877664D01*
X2004197Y874332D01*
X1997533D01*
X1994200Y877664D01*
Y890993D01*
X2027523Y894326D02*
X2014194D01*
Y884329D01*
X2020858Y887661D01*
X2024191D01*
X2027523Y884329D01*
Y877664D01*
X2024191Y874332D01*
X2017526D01*
X2014194Y877664D01*
X2034187Y884329D02*
X2047516D01*
X2054181Y890993D02*
X2057513Y894326D01*
X2064178D01*
X2067510Y890993D01*
Y877664D01*
X2064178Y874332D01*
X2057513D01*
X2054181Y877664D01*
Y890993D01*
X2074175Y874332D02*
Y877664D01*
X2077507D01*
Y874332D01*
X2074175D01*
X2090836D02*
X2097500D01*
X2094168D01*
Y894326D01*
X2090836Y890993D01*
X2120826Y874332D02*
X2107497D01*
X2120826Y887661D01*
Y890993D01*
X2117494Y894326D01*
X2110829D01*
X2107497Y890993D01*
X2147484Y887661D02*
Y877664D01*
X2150816Y874332D01*
X2160813D01*
Y887661D01*
X2167478Y874332D02*
Y887661D01*
X2170810D01*
X2174142Y884329D01*
Y874332D01*
Y884329D01*
X2177475Y887661D01*
X2180807Y884329D01*
Y874332D01*
X2220794Y890993D02*
X2217462Y894326D01*
X2210797D01*
X2207465Y890993D01*
Y877664D01*
X2210797Y874332D01*
X2217462D01*
X2220794Y877664D01*
Y884329D01*
X2214129D01*
X2237455Y894326D02*
X2230791D01*
X2227458Y890993D01*
Y877664D01*
X2230791Y874332D01*
X2237455D01*
X2240788Y877664D01*
Y890993D01*
X2237455Y894326D01*
X2247452D02*
Y874332D01*
X2260781D01*
X2267446Y894326D02*
Y874332D01*
X2277442D01*
X2280775Y877664D01*
Y890993D01*
X2277442Y894326D01*
X2267446D01*
X2287439Y884329D02*
Y887661D01*
X2290771D01*
Y884329D01*
X2287439D01*
Y877664D02*
X2290771D01*
Y874332D01*
X2287439Y871000D01*
X2290771Y874332D02*
X2287439D01*
Y877664D01*
X2324094Y890993D02*
X2327426Y894326D01*
X2334091D01*
X2337423Y890993D01*
Y887661D01*
X2334091Y884329D01*
X2330759D01*
X2334091D01*
X2337423Y880997D01*
Y877664D01*
X2334091Y874332D01*
X2327426D01*
X2324094Y877664D01*
X2344088Y884329D02*
X2357417D01*
X2377410Y894326D02*
X2370746Y890993D01*
X2364081Y884329D01*
Y877664D01*
X2367413Y874332D01*
X2374078D01*
X2377410Y877664D01*
Y880997D01*
X2374078Y884329D01*
X2364081D01*
X2384075Y887661D02*
Y877664D01*
X2387407Y874332D01*
X2397404D01*
Y887661D01*
X2404068Y874332D02*
Y887661D01*
X2407401D01*
X2410733Y884329D01*
Y874332D01*
Y884329D01*
X2414065Y887661D01*
X2417397Y884329D01*
Y874332D01*
X2444055D02*
Y894326D01*
X2457384Y874332D01*
Y894326D01*
X2464049D02*
X2470713D01*
X2467381D01*
Y874332D01*
X2464049D01*
X2470713D01*
X2494039Y890993D02*
X2490707Y894326D01*
X2484043D01*
X2480710Y890993D01*
Y877664D01*
X2484043Y874332D01*
X2490707D01*
X2494039Y877664D01*
X2500704Y894326D02*
Y874332D01*
Y880997D01*
X2514033Y894326D01*
X2504036Y884329D01*
X2514033Y874332D01*
X2520697Y894326D02*
Y874332D01*
X2534026D01*
X2554020Y894326D02*
X2540691D01*
Y874332D01*
X2554020D01*
X2540691Y884329D02*
X2547355D01*
X1064500Y928500D02*
X1071164D01*
X1067832D01*
Y948493D01*
X1064500Y945161D01*
X1081161Y928500D02*
Y931832D01*
X1084493D01*
Y928500D01*
X1081161D01*
X1131145Y948493D02*
X1117816D01*
Y938497D01*
X1124481D01*
X1117816D01*
Y928500D01*
X1137810Y948493D02*
X1144474D01*
X1141142D01*
Y928500D01*
X1137810D01*
X1144474D01*
X1154471D02*
Y948493D01*
X1167800Y928500D01*
Y948493D01*
X1174464D02*
X1181129D01*
X1177797D01*
Y928500D01*
X1174464D01*
X1181129D01*
X1204455Y945161D02*
X1201123Y948493D01*
X1194458D01*
X1191126Y945161D01*
Y941829D01*
X1194458Y938497D01*
X1201123D01*
X1204455Y935164D01*
Y931832D01*
X1201123Y928500D01*
X1194458D01*
X1191126Y931832D01*
X1211119Y948493D02*
Y928500D01*
Y938497D01*
X1224448D01*
Y948493D01*
Y928500D01*
X1244442Y948493D02*
X1231113D01*
Y928500D01*
X1244442D01*
X1231113Y938497D02*
X1237777D01*
X1251106Y948493D02*
Y928500D01*
X1261103D01*
X1264436Y931832D01*
Y945161D01*
X1261103Y948493D01*
X1251106D01*
X1291094Y928500D02*
Y948493D01*
X1301090D01*
X1304423Y945161D01*
Y938497D01*
X1301090Y935164D01*
X1291094D01*
X1311087Y928500D02*
Y941829D01*
X1317752Y948493D01*
X1324416Y941829D01*
Y928500D01*
Y938497D01*
X1311087D01*
X1331081Y928500D02*
Y948493D01*
X1344410Y928500D01*
Y948493D01*
X1364403D02*
X1351074D01*
Y928500D01*
X1364403D01*
X1351074Y938497D02*
X1357739D01*
X1371068Y948493D02*
Y928500D01*
X1384397D01*
X1411055Y948493D02*
X1424384D01*
X1417719D01*
Y928500D01*
X1431048Y948493D02*
Y928500D01*
Y938497D01*
X1444377D01*
Y948493D01*
Y928500D01*
X1451042Y948493D02*
X1457707D01*
X1454374D01*
Y928500D01*
X1451042D01*
X1457707D01*
X1467703Y948493D02*
Y928500D01*
Y935164D01*
X1481032Y948493D01*
X1471036Y938497D01*
X1481032Y928500D01*
X1487697D02*
Y948493D01*
X1501026Y928500D01*
Y948493D01*
X1521019D02*
X1507690D01*
Y928500D01*
X1521019D01*
X1507690Y938497D02*
X1514355D01*
X1541013Y945161D02*
X1537681Y948493D01*
X1531016D01*
X1527684Y945161D01*
Y941829D01*
X1531016Y938497D01*
X1537681D01*
X1541013Y935164D01*
Y931832D01*
X1537681Y928500D01*
X1531016D01*
X1527684Y931832D01*
X1561007Y945161D02*
X1557674Y948493D01*
X1551010D01*
X1547678Y945161D01*
Y941829D01*
X1551010Y938497D01*
X1557674D01*
X1561007Y935164D01*
Y931832D01*
X1557674Y928500D01*
X1551010D01*
X1547678Y931832D01*
X1587665Y948493D02*
X1594329D01*
X1590997D01*
Y928500D01*
X1587665D01*
X1594329D01*
X1617655Y945161D02*
X1614323Y948493D01*
X1607658D01*
X1604326Y945161D01*
Y941829D01*
X1607658Y938497D01*
X1614323D01*
X1617655Y935164D01*
Y931832D01*
X1614323Y928500D01*
X1607658D01*
X1604326Y931832D01*
X1644313Y928500D02*
Y948493D01*
X1657642Y928500D01*
Y948493D01*
X1674303D02*
X1667639D01*
X1664307Y945161D01*
Y931832D01*
X1667639Y928500D01*
X1674303D01*
X1677636Y931832D01*
Y945161D01*
X1674303Y948493D01*
X1684300D02*
X1697629D01*
X1690965D01*
Y928500D01*
X1737616Y945161D02*
X1734284Y948493D01*
X1727620D01*
X1724287Y945161D01*
Y931832D01*
X1727620Y928500D01*
X1734284D01*
X1737616Y931832D01*
X1744281Y928500D02*
Y948493D01*
X1754278D01*
X1757610Y945161D01*
Y938497D01*
X1754278Y935164D01*
X1744281D01*
X1750945D02*
X1757610Y928500D01*
X1764274Y948493D02*
X1770939D01*
X1767607D01*
Y928500D01*
X1764274D01*
X1770939D01*
X1780936Y948493D02*
X1794265D01*
X1787600D01*
Y928500D01*
X1800929Y948493D02*
X1807594D01*
X1804261D01*
Y928500D01*
X1800929D01*
X1807594D01*
X1830920Y945161D02*
X1827587Y948493D01*
X1820923D01*
X1817591Y945161D01*
Y931832D01*
X1820923Y928500D01*
X1827587D01*
X1830920Y931832D01*
X1837584Y928500D02*
Y941829D01*
X1844249Y948493D01*
X1850913Y941829D01*
Y928500D01*
Y938497D01*
X1837584D01*
X1857578Y948493D02*
Y928500D01*
X1870907D01*
X1877571Y941829D02*
X1880903D01*
Y938497D01*
X1877571D01*
Y941829D01*
Y931832D02*
X1880903D01*
Y928500D01*
X1877571D01*
Y931832D01*
X1914226Y948493D02*
X1927555D01*
X1920891D01*
Y928500D01*
X1944216Y948493D02*
X1937552D01*
X1934220Y945161D01*
Y931832D01*
X1937552Y928500D01*
X1944216D01*
X1947549Y931832D01*
Y945161D01*
X1944216Y948493D01*
X1974207D02*
Y928500D01*
X1984203D01*
X1987536Y931832D01*
Y935164D01*
X1984203Y938497D01*
X1974207D01*
X1984203D01*
X1987536Y941829D01*
Y945161D01*
X1984203Y948493D01*
X1974207D01*
X2007529D02*
X1994200D01*
Y928500D01*
X2007529D01*
X1994200Y938497D02*
X2000865D01*
X2034187Y928500D02*
Y941829D01*
X2040852Y948493D01*
X2047516Y941829D01*
Y928500D01*
Y938497D01*
X2034187D01*
X2054181Y928500D02*
Y948493D01*
X2064178D01*
X2067510Y945161D01*
Y938497D01*
X2064178Y935164D01*
X2054181D01*
X2074175Y928500D02*
Y948493D01*
X2084171D01*
X2087504Y945161D01*
Y938497D01*
X2084171Y935164D01*
X2074175D01*
X2094168Y928500D02*
Y948493D01*
X2104165D01*
X2107497Y945161D01*
Y938497D01*
X2104165Y935164D01*
X2094168D01*
X2100833D02*
X2107497Y928500D01*
X2124158Y948493D02*
X2117494D01*
X2114162Y945161D01*
Y931832D01*
X2117494Y928500D01*
X2124158D01*
X2127491Y931832D01*
Y945161D01*
X2124158Y948493D01*
X2134155D02*
X2147484Y928500D01*
Y948493D02*
X2134155Y928500D01*
X2154149Y948493D02*
X2160813D01*
X2157481D01*
Y928500D01*
X2154149D01*
X2160813D01*
X2170810D02*
Y948493D01*
X2177475Y941829D01*
X2184139Y948493D01*
Y928500D01*
X2190804D02*
Y941829D01*
X2197468Y948493D01*
X2204133Y941829D01*
Y928500D01*
Y938497D01*
X2190804D01*
X2210797Y948493D02*
X2224126D01*
X2217462D01*
Y928500D01*
X2244120Y948493D02*
X2230791D01*
Y928500D01*
X2244120D01*
X2230791Y938497D02*
X2237455D01*
X2250784Y948493D02*
Y928500D01*
X2264113D01*
X2270778Y948493D02*
Y945161D01*
X2277442Y938497D01*
X2284107Y945161D01*
Y948493D01*
X2277442Y938497D02*
Y928500D01*
X2310765D02*
X2317430D01*
X2314097D01*
Y948493D01*
X2310765Y945161D01*
X2327426Y928500D02*
Y931832D01*
X2330759D01*
Y928500D01*
X2327426D01*
X2357417Y948493D02*
X2350752Y945161D01*
X2344088Y938497D01*
Y931832D01*
X2347420Y928500D01*
X2354084D01*
X2357417Y931832D01*
Y935164D01*
X2354084Y938497D01*
X2344088D01*
X2364081Y928500D02*
Y941829D01*
X2367413D01*
X2370746Y938497D01*
Y928500D01*
Y938497D01*
X2374078Y941829D01*
X2377410Y938497D01*
Y928500D01*
X2384075D02*
Y941829D01*
X2387407D01*
X2390739Y938497D01*
Y928500D01*
Y938497D01*
X2394072Y941829D01*
X2397404Y938497D01*
Y928500D01*
X1065000Y986164D02*
Y1006158D01*
X1071665Y999493D01*
X1078329Y1006158D01*
Y986164D01*
X1084994D02*
X1091658D01*
X1088326D01*
Y999493D01*
X1084994D01*
X1101655Y986164D02*
Y999493D01*
X1111652D01*
X1114984Y996161D01*
Y986164D01*
X1121648D02*
X1128313D01*
X1124981D01*
Y999493D01*
X1121648D01*
X1138310Y986164D02*
Y999493D01*
X1141642D01*
X1144974Y996161D01*
Y986164D01*
Y996161D01*
X1148306Y999493D01*
X1151639Y996161D01*
Y986164D01*
X1158303Y999493D02*
Y989497D01*
X1161636Y986164D01*
X1171632D01*
Y999493D01*
X1178297Y986164D02*
Y999493D01*
X1181629D01*
X1184961Y996161D01*
Y986164D01*
Y996161D01*
X1188294Y999493D01*
X1191626Y996161D01*
Y986164D01*
X1218284Y1006158D02*
X1231613D01*
X1224948D01*
Y986164D01*
X1238278Y1006158D02*
Y986164D01*
Y996161D01*
X1241610Y999493D01*
X1248274D01*
X1251607Y996161D01*
Y986164D01*
X1258271Y999493D02*
Y986164D01*
Y992829D01*
X1261603Y996161D01*
X1264936Y999493D01*
X1268268D01*
X1281597Y986164D02*
X1288261D01*
X1291594Y989497D01*
Y996161D01*
X1288261Y999493D01*
X1281597D01*
X1278265Y996161D01*
Y989497D01*
X1281597Y986164D01*
X1298258Y999493D02*
Y989497D01*
X1301590Y986164D01*
X1311587D01*
Y999493D01*
X1324916Y979500D02*
X1328248D01*
X1331581Y982832D01*
Y999493D01*
X1321584D01*
X1318252Y996161D01*
Y989497D01*
X1321584Y986164D01*
X1331581D01*
X1338245Y1006158D02*
Y986164D01*
Y996161D01*
X1341577Y999493D01*
X1348242D01*
X1351574Y996161D01*
Y986164D01*
X1378232Y1006158D02*
Y986164D01*
Y996161D01*
X1391561D01*
Y1006158D01*
Y986164D01*
X1401558D02*
X1408223D01*
X1411555Y989497D01*
Y996161D01*
X1408223Y999493D01*
X1401558D01*
X1398226Y996161D01*
Y989497D01*
X1401558Y986164D01*
X1418219D02*
X1424884D01*
X1421552D01*
Y1006158D01*
X1418219D01*
X1444878Y986164D02*
X1438213D01*
X1434881Y989497D01*
Y996161D01*
X1438213Y999493D01*
X1444878D01*
X1448210Y996161D01*
Y992829D01*
X1434881D01*
X1474868Y1006158D02*
Y992829D01*
X1481532Y986164D01*
X1488197Y992829D01*
Y1006158D01*
X1494861D02*
X1501526D01*
X1498194D01*
Y986164D01*
X1494861D01*
X1501526D01*
X1511523D02*
Y999493D01*
X1518187Y1006158D01*
X1524852Y999493D01*
Y986164D01*
Y996161D01*
X1511523D01*
X1531516Y999493D02*
X1534848D01*
Y996161D01*
X1531516D01*
Y999493D01*
Y989497D02*
X1534848D01*
Y986164D01*
X1531516D01*
Y989497D01*
X1568171Y1002826D02*
X1571503Y1006158D01*
X1578168D01*
X1581500Y1002826D01*
Y989497D01*
X1578168Y986164D01*
X1571503D01*
X1568171Y989497D01*
Y1002826D01*
X1588165Y986164D02*
Y989497D01*
X1591497D01*
Y986164D01*
X1588165D01*
X1618155Y1006158D02*
X1611490Y1002826D01*
X1604826Y996161D01*
Y989497D01*
X1608158Y986164D01*
X1614823D01*
X1618155Y989497D01*
Y992829D01*
X1614823Y996161D01*
X1604826D01*
X1624819Y986164D02*
Y999493D01*
X1628152D01*
X1631484Y996161D01*
Y986164D01*
Y996161D01*
X1634816Y999493D01*
X1638149Y996161D01*
Y986164D01*
X1644813D02*
Y999493D01*
X1648145D01*
X1651478Y996161D01*
Y986164D01*
Y996161D01*
X1654810Y999493D01*
X1658142Y996161D01*
Y986164D01*
X1671471D02*
X1664807Y992829D01*
Y999493D01*
X1671471Y1006158D01*
X1681468Y979500D02*
Y999493D01*
X1691465D01*
X1694797Y996161D01*
Y989497D01*
X1691465Y986164D01*
X1681468D01*
X1704794Y999493D02*
X1711458D01*
X1714790Y996161D01*
Y986164D01*
X1704794D01*
X1701461Y989497D01*
X1704794Y992829D01*
X1714790D01*
X1734784Y1006158D02*
Y986164D01*
X1724787D01*
X1721455Y989497D01*
Y996161D01*
X1724787Y999493D01*
X1734784D01*
X1741449Y986164D02*
X1748113Y992829D01*
Y999493D01*
X1741449Y1006158D01*
X1778103Y986164D02*
X1791432Y999493D01*
X1818091Y1002826D02*
X1821423Y1006158D01*
X1828087D01*
X1831420Y1002826D01*
Y989497D01*
X1828087Y986164D01*
X1821423D01*
X1818091Y989497D01*
Y1002826D01*
X1838084Y986164D02*
Y989497D01*
X1841416D01*
Y986164D01*
X1838084D01*
X1854745Y1002826D02*
X1858078Y1006158D01*
X1864742D01*
X1868074Y1002826D01*
Y999493D01*
X1864742Y996161D01*
X1861410D01*
X1864742D01*
X1868074Y992829D01*
Y989497D01*
X1864742Y986164D01*
X1858078D01*
X1854745Y989497D01*
X1874739Y986164D02*
Y999493D01*
X1878071D01*
X1881404Y996161D01*
Y986164D01*
Y996161D01*
X1884736Y999493D01*
X1888068Y996161D01*
Y986164D01*
X1894733D02*
Y999493D01*
X1898065D01*
X1901397Y996161D01*
Y986164D01*
Y996161D01*
X1904729Y999493D01*
X1908062Y996161D01*
Y986164D01*
X1941384D02*
X1934720Y992829D01*
Y999493D01*
X1941384Y1006158D01*
X1964710D02*
Y986164D01*
X1954713D01*
X1951381Y989497D01*
Y996161D01*
X1954713Y999493D01*
X1964710D01*
X1971375D02*
Y986164D01*
Y992829D01*
X1974707Y996161D01*
X1978039Y999493D01*
X1981371D01*
X1991368Y986164D02*
X1998033D01*
X1994700D01*
Y999493D01*
X1991368D01*
X2008029Y986164D02*
X2014694D01*
X2011362D01*
Y1006158D01*
X2008029D01*
X2024691Y986164D02*
X2031355D01*
X2028023D01*
Y1006158D01*
X2024691D01*
X2041352Y986164D02*
X2048016Y992829D01*
Y999493D01*
X2041352Y1006158D01*
X2058013Y986164D02*
Y989497D01*
X2061345D01*
Y986164D01*
X2058013D01*
X2094668Y1006158D02*
Y986164D01*
X2104665D01*
X2107997Y989497D01*
Y1002826D01*
X2104665Y1006158D01*
X2094668D01*
X2114662Y999493D02*
Y986164D01*
Y992829D01*
X2117994Y996161D01*
X2121326Y999493D01*
X2124658D01*
X2134655Y986164D02*
X2141320D01*
X2137987D01*
Y999493D01*
X2134655D01*
X2151316Y986164D02*
X2157981D01*
X2154649D01*
Y1006158D01*
X2151316D01*
X2167978Y986164D02*
X2174642D01*
X2171310D01*
Y1006158D01*
X2167978D01*
X2184639Y986164D02*
X2191304D01*
X2187971D01*
Y999493D01*
X2184639D01*
X2201300Y986164D02*
Y999493D01*
X2211297D01*
X2214629Y996161D01*
Y986164D01*
X2227958Y979500D02*
X2231291D01*
X2234623Y982832D01*
Y999493D01*
X2224626D01*
X2221294Y996161D01*
Y989497D01*
X2224626Y986164D01*
X2234623D01*
X2241287Y999493D02*
X2244620D01*
Y996161D01*
X2241287D01*
Y999493D01*
Y989497D02*
X2244620D01*
Y986164D01*
X2241287D01*
Y989497D01*
X2277942Y1006158D02*
Y986164D01*
X2291271D01*
X2297936D02*
X2304600D01*
X2301268D01*
Y1006158D01*
X2297936Y1002826D01*
X2314597Y996161D02*
X2327926D01*
X2334591Y1006158D02*
Y986164D01*
X2347920D01*
X2367913D02*
X2354584D01*
X2367913Y999493D01*
Y1002826D01*
X2364581Y1006158D01*
X2357916D01*
X2354584Y1002826D01*
X1065000Y1038165D02*
Y1058158D01*
X1071665Y1051494D01*
X1078329Y1058158D01*
Y1038165D01*
X1084994D02*
X1091658D01*
X1088326D01*
Y1051494D01*
X1084994D01*
X1101655Y1038165D02*
Y1051494D01*
X1111652D01*
X1114984Y1048161D01*
Y1038165D01*
X1121648D02*
X1128313D01*
X1124981D01*
Y1051494D01*
X1121648D01*
X1138310Y1038165D02*
Y1051494D01*
X1141642D01*
X1144974Y1048161D01*
Y1038165D01*
Y1048161D01*
X1148306Y1051494D01*
X1151639Y1048161D01*
Y1038165D01*
X1158303Y1051494D02*
Y1041497D01*
X1161636Y1038165D01*
X1171632D01*
Y1051494D01*
X1178297Y1038165D02*
Y1051494D01*
X1181629D01*
X1184961Y1048161D01*
Y1038165D01*
Y1048161D01*
X1188294Y1051494D01*
X1191626Y1048161D01*
Y1038165D01*
X1231613Y1054826D02*
X1228281Y1058158D01*
X1221616D01*
X1218284Y1054826D01*
Y1041497D01*
X1221616Y1038165D01*
X1228281D01*
X1231613Y1041497D01*
Y1048161D01*
X1224948D01*
X1241610Y1051494D02*
X1248274D01*
X1251607Y1048161D01*
Y1038165D01*
X1241610D01*
X1238278Y1041497D01*
X1241610Y1044829D01*
X1251607D01*
X1258271Y1031500D02*
Y1051494D01*
X1268268D01*
X1271600Y1048161D01*
Y1041497D01*
X1268268Y1038165D01*
X1258271D01*
X1278265Y1051494D02*
X1281597D01*
Y1048161D01*
X1278265D01*
Y1051494D01*
Y1041497D02*
X1281597D01*
Y1038165D01*
X1278265D01*
Y1041497D01*
X1328248Y1038165D02*
X1314919D01*
X1328248Y1051494D01*
Y1054826D01*
X1324916Y1058158D01*
X1318252D01*
X1314919Y1054826D01*
X1334913D02*
X1338245Y1058158D01*
X1344910D01*
X1348242Y1054826D01*
Y1041497D01*
X1344910Y1038165D01*
X1338245D01*
X1334913Y1041497D01*
Y1054826D01*
X1354906D02*
X1358239Y1058158D01*
X1364903D01*
X1368236Y1054826D01*
Y1041497D01*
X1364903Y1038165D01*
X1358239D01*
X1354906Y1041497D01*
Y1054826D01*
X1374900Y1051494D02*
Y1041497D01*
X1378232Y1038165D01*
X1388229D01*
Y1051494D01*
X1394894Y1038165D02*
Y1051494D01*
X1398226D01*
X1401558Y1048161D01*
Y1038165D01*
Y1048161D01*
X1404890Y1051494D01*
X1408223Y1048161D01*
Y1038165D01*
X1065000Y1085500D02*
Y1105493D01*
X1071665Y1098829D01*
X1078329Y1105493D01*
Y1085500D01*
X1084994D02*
X1091658D01*
X1088326D01*
Y1098829D01*
X1084994D01*
X1101655Y1085500D02*
Y1098829D01*
X1111652D01*
X1114984Y1095497D01*
Y1085500D01*
X1121648D02*
X1128313D01*
X1124981D01*
Y1098829D01*
X1121648D01*
X1138310Y1085500D02*
Y1098829D01*
X1141642D01*
X1144974Y1095497D01*
Y1085500D01*
Y1095497D01*
X1148306Y1098829D01*
X1151639Y1095497D01*
Y1085500D01*
X1158303Y1098829D02*
Y1088832D01*
X1161636Y1085500D01*
X1171632D01*
Y1098829D01*
X1178297Y1085500D02*
Y1098829D01*
X1181629D01*
X1184961Y1095497D01*
Y1085500D01*
Y1095497D01*
X1188294Y1098829D01*
X1191626Y1095497D01*
Y1085500D01*
X1218284Y1105493D02*
X1231613D01*
X1224948D01*
Y1085500D01*
X1238278Y1098829D02*
Y1085500D01*
Y1092165D01*
X1241610Y1095497D01*
X1244942Y1098829D01*
X1248274D01*
X1261603D02*
X1268268D01*
X1271600Y1095497D01*
Y1085500D01*
X1261603D01*
X1258271Y1088832D01*
X1261603Y1092165D01*
X1271600D01*
X1291594Y1098829D02*
X1281597D01*
X1278265Y1095497D01*
Y1088832D01*
X1281597Y1085500D01*
X1291594D01*
X1298258D02*
Y1105493D01*
Y1092165D02*
X1308255Y1098829D01*
X1298258Y1092165D02*
X1308255Y1085500D01*
X1318252Y1098829D02*
X1321584D01*
Y1095497D01*
X1318252D01*
Y1098829D01*
Y1088832D02*
X1321584D01*
Y1085500D01*
X1318252D01*
Y1088832D01*
X1368236Y1085500D02*
X1354906D01*
X1368236Y1098829D01*
Y1102161D01*
X1364903Y1105493D01*
X1358239D01*
X1354906Y1102161D01*
X1374900D02*
X1378232Y1105493D01*
X1384897D01*
X1388229Y1102161D01*
Y1088832D01*
X1384897Y1085500D01*
X1378232D01*
X1374900Y1088832D01*
Y1102161D01*
X1394894D02*
X1398226Y1105493D01*
X1404890D01*
X1408223Y1102161D01*
Y1088832D01*
X1404890Y1085500D01*
X1398226D01*
X1394894Y1088832D01*
Y1102161D01*
X1414887Y1098829D02*
Y1088832D01*
X1418219Y1085500D01*
X1428216D01*
Y1098829D01*
X1434881Y1085500D02*
Y1098829D01*
X1438213D01*
X1441545Y1095497D01*
Y1085500D01*
Y1095497D01*
X1444878Y1098829D01*
X1448210Y1095497D01*
Y1085500D01*
X1064500Y1153994D02*
Y1134000D01*
X1074497D01*
X1077829Y1137332D01*
Y1140665D01*
X1074497Y1143997D01*
X1064500D01*
X1074497D01*
X1077829Y1147329D01*
Y1150661D01*
X1074497Y1153994D01*
X1064500D01*
X1087826Y1134000D02*
X1094490D01*
X1097823Y1137332D01*
Y1143997D01*
X1094490Y1147329D01*
X1087826D01*
X1084493Y1143997D01*
Y1137332D01*
X1087826Y1134000D01*
X1107819Y1147329D02*
X1114484D01*
X1117816Y1143997D01*
Y1134000D01*
X1107819D01*
X1104487Y1137332D01*
X1107819Y1140665D01*
X1117816D01*
X1124481Y1147329D02*
Y1134000D01*
Y1140665D01*
X1127813Y1143997D01*
X1131145Y1147329D01*
X1134477D01*
X1157803Y1153994D02*
Y1134000D01*
X1147806D01*
X1144474Y1137332D01*
Y1143997D01*
X1147806Y1147329D01*
X1157803D01*
X1184461Y1153994D02*
X1191126D01*
X1187794D01*
Y1134000D01*
X1184461D01*
X1191126D01*
X1201123D02*
Y1147329D01*
X1211119D01*
X1214452Y1143997D01*
Y1134000D01*
X1224448D02*
Y1150661D01*
Y1143997D01*
X1221116D01*
X1227781D01*
X1224448D01*
Y1150661D01*
X1227781Y1153994D01*
X1241110Y1134000D02*
X1247774D01*
X1251106Y1137332D01*
Y1143997D01*
X1247774Y1147329D01*
X1241110D01*
X1237777Y1143997D01*
Y1137332D01*
X1241110Y1134000D01*
X-140000Y814826D02*
X-126671Y801497D01*
X-140000D02*
X-126671Y814826D01*
X-140000Y808161D02*
X-126671D01*
X-133336Y801497D02*
Y814826D01*
X-120006Y798165D02*
Y801497D01*
X-116674D01*
Y798165D01*
X-120006D01*
X-90016Y814826D02*
X-93348Y818158D01*
X-100013D01*
X-103345Y814826D01*
Y801497D01*
X-100013Y798165D01*
X-93348D01*
X-90016Y801497D01*
Y808161D01*
X-96681D01*
X-83352Y798165D02*
Y818158D01*
X-76687Y811494D01*
X-70023Y818158D01*
Y798165D01*
X-63358Y814826D02*
X-60026Y818158D01*
X-53361D01*
X-50029Y814826D01*
Y811494D01*
X-53361Y808161D01*
X-56694D01*
X-53361D01*
X-50029Y804829D01*
Y801497D01*
X-53361Y798165D01*
X-60026D01*
X-63358Y801497D01*
X-23371Y808161D02*
X-10042D01*
X16616Y798165D02*
Y818158D01*
X23281Y811494D01*
X29945Y818158D01*
Y798165D01*
X39942Y811494D02*
X46606D01*
X49939Y808161D01*
Y798165D01*
X39942D01*
X36610Y801497D01*
X39942Y804829D01*
X49939D01*
X56603Y798165D02*
Y811494D01*
X66600D01*
X69932Y808161D01*
Y798165D01*
X76597Y811494D02*
Y801497D01*
X79929Y798165D01*
X89926D01*
Y811494D01*
X99923Y798165D02*
Y814826D01*
Y808161D01*
X96590D01*
X103255D01*
X99923D01*
Y814826D01*
X103255Y818158D01*
X116584Y811494D02*
X123249D01*
X126581Y808161D01*
Y798165D01*
X116584D01*
X113252Y801497D01*
X116584Y804829D01*
X126581D01*
X146574Y811494D02*
X136578D01*
X133245Y808161D01*
Y801497D01*
X136578Y798165D01*
X146574D01*
X156571Y814826D02*
Y811494D01*
X153239D01*
X159903D01*
X156571D01*
Y801497D01*
X159903Y798165D01*
X169900Y811494D02*
Y801497D01*
X173232Y798165D01*
X183229D01*
Y811494D01*
X189894D02*
Y798165D01*
Y804829D01*
X193226Y808161D01*
X196558Y811494D01*
X199890D01*
X209887Y798165D02*
X216552D01*
X213220D01*
Y811494D01*
X209887D01*
X226549Y798165D02*
Y811494D01*
X236545D01*
X239877Y808161D01*
Y798165D01*
X253207Y791500D02*
X256539D01*
X259871Y794832D01*
Y811494D01*
X249874D01*
X246542Y808161D01*
Y801497D01*
X249874Y798165D01*
X259871D01*
X286529D02*
Y818158D01*
X299858Y798165D01*
Y818158D01*
X309855Y798165D02*
X316520D01*
X319852Y801497D01*
Y808161D01*
X316520Y811494D01*
X309855D01*
X306523Y808161D01*
Y801497D01*
X309855Y798165D01*
X329849Y814826D02*
Y811494D01*
X326516D01*
X333181D01*
X329849D01*
Y801497D01*
X333181Y798165D01*
X353174D02*
X346510D01*
X343178Y801497D01*
Y808161D01*
X346510Y811494D01*
X353174D01*
X356507Y808161D01*
Y804829D01*
X343178D01*
X363171Y798165D02*
X373168D01*
X376500Y801497D01*
X373168Y804829D01*
X366503D01*
X363171Y808161D01*
X366503Y811494D01*
X376500D01*
X-140000Y730661D02*
X-126671Y717332D01*
X-140000D02*
X-126671Y730661D01*
X-140000Y723997D02*
X-126671D01*
X-133336Y717332D02*
Y730661D01*
X-120006Y714000D02*
Y717332D01*
X-116674D01*
Y714000D01*
X-120006D01*
X-90016Y730661D02*
X-93348Y733994D01*
X-100013D01*
X-103345Y730661D01*
Y717332D01*
X-100013Y714000D01*
X-93348D01*
X-90016Y717332D01*
Y723997D01*
X-96681D01*
X-83352Y714000D02*
Y733994D01*
X-76687Y727329D01*
X-70023Y733994D01*
Y714000D01*
X-50029D02*
X-63358D01*
X-50029Y727329D01*
Y730661D01*
X-53361Y733994D01*
X-60026D01*
X-63358Y730661D01*
X-43365D02*
X-40032Y733994D01*
X-33368D01*
X-30035Y730661D01*
Y727329D01*
X-33368Y723997D01*
X-30035Y720665D01*
Y717332D01*
X-33368Y714000D01*
X-40032D01*
X-43365Y717332D01*
Y720665D01*
X-40032Y723997D01*
X-43365Y727329D01*
Y730661D01*
X-40032Y723997D02*
X-33368D01*
X-3377D02*
X9952D01*
X36610Y733994D02*
Y714000D01*
X46606D01*
X49939Y717332D01*
Y720665D01*
X46606Y723997D01*
X36610D01*
X46606D01*
X49939Y727329D01*
Y730661D01*
X46606Y733994D01*
X36610D01*
X59936Y714000D02*
X66600D01*
X69932Y717332D01*
Y723997D01*
X66600Y727329D01*
X59936D01*
X56603Y723997D01*
Y717332D01*
X59936Y714000D01*
X79929Y727329D02*
X86594D01*
X89926Y723997D01*
Y714000D01*
X79929D01*
X76597Y717332D01*
X79929Y720665D01*
X89926D01*
X96590Y727329D02*
Y714000D01*
Y720665D01*
X99923Y723997D01*
X103255Y727329D01*
X106587D01*
X129913Y733994D02*
Y714000D01*
X119916D01*
X116584Y717332D01*
Y723997D01*
X119916Y727329D01*
X129913D01*
X166568Y733994D02*
X159903D01*
X156571Y730661D01*
Y717332D01*
X159903Y714000D01*
X166568D01*
X169900Y717332D01*
Y730661D01*
X166568Y733994D01*
X176565Y727329D02*
Y717332D01*
X179897Y714000D01*
X189894D01*
Y727329D01*
X199890Y730661D02*
Y727329D01*
X196558D01*
X203223D01*
X199890D01*
Y717332D01*
X203223Y714000D01*
X213220D02*
X219884D01*
X216552D01*
Y733994D01*
X213220D01*
X229881Y714000D02*
X236545D01*
X233213D01*
Y727329D01*
X229881D01*
X246542Y714000D02*
Y727329D01*
X256539D01*
X259871Y723997D01*
Y714000D01*
X276532D02*
X269868D01*
X266536Y717332D01*
Y723997D01*
X269868Y727329D01*
X276532D01*
X279865Y723997D01*
Y720665D01*
X266536D01*
X-140000Y773161D02*
X-126671Y759832D01*
X-140000D02*
X-126671Y773161D01*
X-140000Y766497D02*
X-126671D01*
X-133336Y759832D02*
Y773161D01*
X-120006Y756500D02*
Y759832D01*
X-116674D01*
Y756500D01*
X-120006D01*
X-90016Y773161D02*
X-93348Y776494D01*
X-100013D01*
X-103345Y773161D01*
Y759832D01*
X-100013Y756500D01*
X-93348D01*
X-90016Y759832D01*
Y766497D01*
X-96681D01*
X-83352Y756500D02*
Y776494D01*
X-76687Y769829D01*
X-70023Y776494D01*
Y756500D01*
X-53361D02*
Y776494D01*
X-63358Y766497D01*
X-50029D01*
X-23371D02*
X-10042D01*
X16616Y776494D02*
Y756500D01*
X29945D01*
X36610D02*
X43274D01*
X39942D01*
Y769829D01*
X36610D01*
X66600D02*
X56603D01*
X53271Y766497D01*
Y759832D01*
X56603Y756500D01*
X66600D01*
X83261D02*
X76597D01*
X73265Y759832D01*
Y766497D01*
X76597Y769829D01*
X83261D01*
X86594Y766497D01*
Y763165D01*
X73265D01*
X93258Y756500D02*
Y769829D01*
X103255D01*
X106587Y766497D01*
Y756500D01*
X113252D02*
X123249D01*
X126581Y759832D01*
X123249Y763165D01*
X116584D01*
X113252Y766497D01*
X116584Y769829D01*
X126581D01*
X143242Y756500D02*
X136578D01*
X133245Y759832D01*
Y766497D01*
X136578Y769829D01*
X143242D01*
X146574Y766497D01*
Y763165D01*
X133245D01*
X-140000Y853826D02*
X-126671Y840497D01*
X-140000D02*
X-126671Y853826D01*
X-140000Y847161D02*
X-126671D01*
X-133336Y840497D02*
Y853826D01*
X-120006Y837165D02*
Y840497D01*
X-116674D01*
Y837165D01*
X-120006D01*
X-90016Y853826D02*
X-93348Y857158D01*
X-100013D01*
X-103345Y853826D01*
Y840497D01*
X-100013Y837165D01*
X-93348D01*
X-90016Y840497D01*
Y847161D01*
X-96681D01*
X-83352Y837165D02*
Y857158D01*
X-76687Y850493D01*
X-70023Y857158D01*
Y837165D01*
X-50029D02*
X-63358D01*
X-50029Y850493D01*
Y853826D01*
X-53361Y857158D01*
X-60026D01*
X-63358Y853826D01*
X-23371Y847161D02*
X-10042D01*
X16616Y837165D02*
Y857158D01*
X23281Y850493D01*
X29945Y857158D01*
Y837165D01*
X46606D02*
X39942D01*
X36610Y840497D01*
Y847161D01*
X39942Y850493D01*
X46606D01*
X49939Y847161D01*
Y843829D01*
X36610D01*
X69932Y850493D02*
X59936D01*
X56603Y847161D01*
Y840497D01*
X59936Y837165D01*
X69932D01*
X76597Y857158D02*
Y837165D01*
Y847161D01*
X79929Y850493D01*
X86594D01*
X89926Y847161D01*
Y837165D01*
X99923Y850493D02*
X106587D01*
X109920Y847161D01*
Y837165D01*
X99923D01*
X96590Y840497D01*
X99923Y843829D01*
X109920D01*
X116584Y837165D02*
Y850493D01*
X126581D01*
X129913Y847161D01*
Y837165D01*
X136578D02*
X143242D01*
X139910D01*
Y850493D01*
X136578D01*
X166568D02*
X156571D01*
X153239Y847161D01*
Y840497D01*
X156571Y837165D01*
X166568D01*
X176565Y850493D02*
X183229D01*
X186561Y847161D01*
Y837165D01*
X176565D01*
X173232Y840497D01*
X176565Y843829D01*
X186561D01*
X193226Y837165D02*
X199890D01*
X196558D01*
Y857158D01*
X193226D01*
X229881D02*
Y837165D01*
X239878D01*
X243210Y840497D01*
Y853826D01*
X239878Y857158D01*
X229881D01*
X249874Y850493D02*
Y837165D01*
Y843829D01*
X253207Y847161D01*
X256539Y850493D01*
X259871D01*
X273200D02*
X279865D01*
X283197Y847161D01*
Y837165D01*
X273200D01*
X269868Y840497D01*
X273200Y843829D01*
X283197D01*
X289862Y850493D02*
Y840497D01*
X293194Y837165D01*
X296526Y840497D01*
X299858Y837165D01*
X303190Y840497D01*
Y850493D01*
X309855Y837165D02*
X316520D01*
X313187D01*
Y850493D01*
X309855D01*
X326516Y837165D02*
Y850493D01*
X336513D01*
X339845Y847161D01*
Y837165D01*
X353174Y830500D02*
X356507D01*
X359839Y833832D01*
Y850493D01*
X349842D01*
X346510Y847161D01*
Y840497D01*
X349842Y837165D01*
X359839D01*
X-140000Y890826D02*
X-126671Y877497D01*
X-140000D02*
X-126671Y890826D01*
X-140000Y884161D02*
X-126671D01*
X-133336Y877497D02*
Y890826D01*
X-120006Y874165D02*
Y877497D01*
X-116674D01*
Y874165D01*
X-120006D01*
X-90016Y890826D02*
X-93348Y894158D01*
X-100013D01*
X-103345Y890826D01*
Y877497D01*
X-100013Y874165D01*
X-93348D01*
X-90016Y877497D01*
Y884161D01*
X-96681D01*
X-83352Y894158D02*
Y874165D01*
X-73355D01*
X-70023Y877497D01*
Y880829D01*
X-73355Y884161D01*
X-83352D01*
X-73355D01*
X-70023Y887494D01*
Y890826D01*
X-73355Y894158D01*
X-83352D01*
X-53361D02*
X-60026D01*
X-63358Y890826D01*
Y877497D01*
X-60026Y874165D01*
X-53361D01*
X-50029Y877497D01*
Y890826D01*
X-53361Y894158D01*
X-23371Y884161D02*
X-10042D01*
X16616Y894158D02*
Y874165D01*
X26613D01*
X29945Y877497D01*
Y880829D01*
X26613Y884161D01*
X16616D01*
X26613D01*
X29945Y887494D01*
Y890826D01*
X26613Y894158D01*
X16616D01*
X39942Y874165D02*
X46606D01*
X49939Y877497D01*
Y884161D01*
X46606Y887494D01*
X39942D01*
X36610Y884161D01*
Y877497D01*
X39942Y874165D01*
X59936Y890826D02*
Y887494D01*
X56603D01*
X63268D01*
X59936D01*
Y877497D01*
X63268Y874165D01*
X76597Y890826D02*
Y887494D01*
X73265D01*
X79929D01*
X76597D01*
Y877497D01*
X79929Y874165D01*
X93258D02*
X99923D01*
X103255Y877497D01*
Y884161D01*
X99923Y887494D01*
X93258D01*
X89926Y884161D01*
Y877497D01*
X93258Y874165D01*
X109919D02*
Y887494D01*
X113252D01*
X116584Y884161D01*
Y874165D01*
Y884161D01*
X119916Y887494D01*
X123249Y884161D01*
Y874165D01*
X159903Y894158D02*
X153239D01*
X149907Y890826D01*
Y877497D01*
X153239Y874165D01*
X159903D01*
X163236Y877497D01*
Y890826D01*
X159903Y894158D01*
X169900Y887494D02*
X176565Y874165D01*
X183229Y887494D01*
X199890Y874165D02*
X193226D01*
X189894Y877497D01*
Y884161D01*
X193226Y887494D01*
X199890D01*
X203223Y884161D01*
Y880829D01*
X189894D01*
X209887Y887494D02*
Y874165D01*
Y880829D01*
X213220Y884161D01*
X216552Y887494D01*
X219884D01*
X229881Y874165D02*
X236545D01*
X233213D01*
Y894158D01*
X229881D01*
X249874Y887494D02*
X256539D01*
X259871Y884161D01*
Y874165D01*
X249874D01*
X246542Y877497D01*
X249874Y880829D01*
X259871D01*
X266536Y887494D02*
Y877497D01*
X269868Y874165D01*
X279865D01*
Y870832D01*
X276532Y867500D01*
X273200D01*
X279865Y874165D02*
Y887494D01*
X-140000Y926161D02*
X-126671Y912832D01*
X-140000D02*
X-126671Y926161D01*
X-140000Y919497D02*
X-126671D01*
X-133336Y912832D02*
Y926161D01*
X-120006Y909500D02*
Y912832D01*
X-116674D01*
Y909500D01*
X-120006D01*
X-90016Y926161D02*
X-93348Y929493D01*
X-100013D01*
X-103345Y926161D01*
Y912832D01*
X-100013Y909500D01*
X-93348D01*
X-90016Y912832D01*
Y919497D01*
X-96681D01*
X-83352Y929493D02*
Y909500D01*
X-73355D01*
X-70023Y912832D01*
Y916164D01*
X-73355Y919497D01*
X-83352D01*
X-73355D01*
X-70023Y922829D01*
Y926161D01*
X-73355Y929493D01*
X-83352D01*
X-50029Y926161D02*
X-53361Y929493D01*
X-60026D01*
X-63358Y926161D01*
Y922829D01*
X-60026Y919497D01*
X-53361D01*
X-50029Y916164D01*
Y912832D01*
X-53361Y909500D01*
X-60026D01*
X-63358Y912832D01*
X-23371Y919497D02*
X-10042D01*
X16616Y929493D02*
Y909500D01*
X26613D01*
X29945Y912832D01*
Y916164D01*
X26613Y919497D01*
X16616D01*
X26613D01*
X29945Y922829D01*
Y926161D01*
X26613Y929493D01*
X16616D01*
X39942Y909500D02*
X46606D01*
X49939Y912832D01*
Y919497D01*
X46606Y922829D01*
X39942D01*
X36610Y919497D01*
Y912832D01*
X39942Y909500D01*
X59936Y926161D02*
Y922829D01*
X56603D01*
X63268D01*
X59936D01*
Y912832D01*
X63268Y909500D01*
X76597Y926161D02*
Y922829D01*
X73265D01*
X79929D01*
X76597D01*
Y912832D01*
X79929Y909500D01*
X93258D02*
X99923D01*
X103255Y912832D01*
Y919497D01*
X99923Y922829D01*
X93258D01*
X89926Y919497D01*
Y912832D01*
X93258Y909500D01*
X109919D02*
Y922829D01*
X113252D01*
X116584Y919497D01*
Y909500D01*
Y919497D01*
X119916Y922829D01*
X123249Y919497D01*
Y909500D01*
X163236Y926161D02*
X159903Y929493D01*
X153239D01*
X149907Y926161D01*
Y922829D01*
X153239Y919497D01*
X159903D01*
X163236Y916164D01*
Y912832D01*
X159903Y909500D01*
X153239D01*
X149907Y912832D01*
X173232Y909500D02*
X179897D01*
X183229Y912832D01*
Y919497D01*
X179897Y922829D01*
X173232D01*
X169900Y919497D01*
Y912832D01*
X173232Y909500D01*
X189894D02*
X196558D01*
X193226D01*
Y929493D01*
X189894D01*
X219884D02*
Y909500D01*
X209887D01*
X206555Y912832D01*
Y919497D01*
X209887Y922829D01*
X219884D01*
X236545Y909500D02*
X229881D01*
X226549Y912832D01*
Y919497D01*
X229881Y922829D01*
X236545D01*
X239877Y919497D01*
Y916164D01*
X226549D01*
X246542Y922829D02*
Y909500D01*
Y916164D01*
X249874Y919497D01*
X253207Y922829D01*
X256539D01*
X-140000Y962161D02*
X-126671Y948832D01*
X-140000D02*
X-126671Y962161D01*
X-140000Y955497D02*
X-126671D01*
X-133336Y948832D02*
Y962161D01*
X-120006Y945500D02*
Y948832D01*
X-116674D01*
Y945500D01*
X-120006D01*
X-90016Y962161D02*
X-93348Y965493D01*
X-100013D01*
X-103345Y962161D01*
Y948832D01*
X-100013Y945500D01*
X-93348D01*
X-90016Y948832D01*
Y955497D01*
X-96681D01*
X-83352Y965493D02*
Y945500D01*
X-73355D01*
X-70023Y948832D01*
Y952165D01*
X-73355Y955497D01*
X-83352D01*
X-73355D01*
X-70023Y958829D01*
Y962161D01*
X-73355Y965493D01*
X-83352D01*
X-63358D02*
Y945500D01*
X-50029D01*
X-23371Y955497D02*
X-10042D01*
X16616Y965493D02*
Y945500D01*
X29945D01*
X49939D02*
X36610D01*
X49939Y958829D01*
Y962161D01*
X46606Y965493D01*
X39942D01*
X36610Y962161D01*
X83261Y945500D02*
X76597Y952165D01*
Y958829D01*
X83261Y965493D01*
X93258Y945500D02*
Y965493D01*
X103255D01*
X106587Y962161D01*
Y955497D01*
X103255Y952165D01*
X93258D01*
X116584Y945500D02*
X123249D01*
X126581Y948832D01*
Y955497D01*
X123249Y958829D01*
X116584D01*
X113252Y955497D01*
Y948832D01*
X116584Y945500D01*
X133245D02*
X143242D01*
X146574Y948832D01*
X143242Y952165D01*
X136578D01*
X133245Y955497D01*
X136578Y958829D01*
X146574D01*
X153239Y945500D02*
X159903D01*
X156571D01*
Y958829D01*
X153239D01*
X173232Y962161D02*
Y958829D01*
X169900D01*
X176565D01*
X173232D01*
Y948832D01*
X176565Y945500D01*
X186561D02*
X193226D01*
X189894D01*
Y958829D01*
X186561D01*
X203223D02*
X209887Y945500D01*
X216552Y958829D01*
X233213Y945500D02*
X226549D01*
X223216Y948832D01*
Y955497D01*
X226549Y958829D01*
X233213D01*
X236545Y955497D01*
Y952165D01*
X223216D01*
X243210Y945500D02*
X249874Y952165D01*
Y958829D01*
X243210Y965493D01*
X-140000Y998161D02*
X-126671Y984832D01*
X-140000D02*
X-126671Y998161D01*
X-140000Y991497D02*
X-126671D01*
X-133336Y984832D02*
Y998161D01*
X-120006Y981500D02*
Y984832D01*
X-116674D01*
Y981500D01*
X-120006D01*
X-90016Y998161D02*
X-93348Y1001494D01*
X-100013D01*
X-103345Y998161D01*
Y984832D01*
X-100013Y981500D01*
X-93348D01*
X-90016Y984832D01*
Y991497D01*
X-96681D01*
X-83352Y1001494D02*
X-70023D01*
X-76687D01*
Y981500D01*
X-63358Y1001494D02*
Y981500D01*
X-50029D01*
X-23371Y991497D02*
X-10042D01*
X16616Y1001494D02*
Y981500D01*
X29945D01*
X36610D02*
X43274D01*
X39942D01*
Y1001494D01*
X36610Y998161D01*
X79929Y981500D02*
X73265Y988165D01*
Y994829D01*
X79929Y1001494D01*
X89926Y981500D02*
Y1001494D01*
X99923D01*
X103255Y998161D01*
Y991497D01*
X99923Y988165D01*
X89926D01*
X113252Y981500D02*
X119916D01*
X123249Y984832D01*
Y991497D01*
X119916Y994829D01*
X113252D01*
X109919Y991497D01*
Y984832D01*
X113252Y981500D01*
X129913D02*
X139910D01*
X143242Y984832D01*
X139910Y988165D01*
X133245D01*
X129913Y991497D01*
X133245Y994829D01*
X143242D01*
X149907Y981500D02*
X156571D01*
X153239D01*
Y994829D01*
X149907D01*
X169900Y998161D02*
Y994829D01*
X166568D01*
X173232D01*
X169900D01*
Y984832D01*
X173232Y981500D01*
X183229D02*
X189894D01*
X186561D01*
Y994829D01*
X183229D01*
X199890D02*
X206555Y981500D01*
X213219Y994829D01*
X229881Y981500D02*
X223216D01*
X219884Y984832D01*
Y991497D01*
X223216Y994829D01*
X229881D01*
X233213Y991497D01*
Y988165D01*
X219884D01*
X239877Y981500D02*
X246542Y988165D01*
Y994829D01*
X239877Y1001494D01*
X-140000Y1038326D02*
X-126671Y1024997D01*
X-140000D02*
X-126671Y1038326D01*
X-140000Y1031661D02*
X-126671D01*
X-133336Y1024997D02*
Y1038326D01*
X-120006Y1021665D02*
Y1024997D01*
X-116674D01*
Y1021665D01*
X-120006D01*
X-90016Y1038326D02*
X-93348Y1041658D01*
X-100013D01*
X-103345Y1038326D01*
Y1024997D01*
X-100013Y1021665D01*
X-93348D01*
X-90016Y1024997D01*
Y1031661D01*
X-96681D01*
X-83352Y1041658D02*
X-70023D01*
X-76687D01*
Y1021665D01*
X-50029Y1038326D02*
X-53361Y1041658D01*
X-60026D01*
X-63358Y1038326D01*
Y1034994D01*
X-60026Y1031661D01*
X-53361D01*
X-50029Y1028329D01*
Y1024997D01*
X-53361Y1021665D01*
X-60026D01*
X-63358Y1024997D01*
X-23371Y1031661D02*
X-10042D01*
X16616Y1041658D02*
X29945D01*
X23281D01*
Y1021665D01*
X39942D02*
X46606D01*
X49939Y1024997D01*
Y1031661D01*
X46606Y1034994D01*
X39942D01*
X36610Y1031661D01*
Y1024997D01*
X39942Y1021665D01*
X56603Y1015000D02*
Y1034994D01*
X66600D01*
X69932Y1031661D01*
Y1024997D01*
X66600Y1021665D01*
X56603D01*
X109920Y1038326D02*
X106587Y1041658D01*
X99923D01*
X96590Y1038326D01*
Y1034994D01*
X99923Y1031661D01*
X106587D01*
X109920Y1028329D01*
Y1024997D01*
X106587Y1021665D01*
X99923D01*
X96590Y1024997D01*
X119916Y1021665D02*
X126581D01*
X129913Y1024997D01*
Y1031661D01*
X126581Y1034994D01*
X119916D01*
X116584Y1031661D01*
Y1024997D01*
X119916Y1021665D01*
X136578D02*
X143242D01*
X139910D01*
Y1041658D01*
X136578D01*
X166568D02*
Y1021665D01*
X156571D01*
X153239Y1024997D01*
Y1031661D01*
X156571Y1034994D01*
X166568D01*
X183229Y1021665D02*
X176565D01*
X173232Y1024997D01*
Y1031661D01*
X176565Y1034994D01*
X183229D01*
X186561Y1031661D01*
Y1028329D01*
X173232D01*
X193226Y1034994D02*
Y1021665D01*
Y1028329D01*
X196558Y1031661D01*
X199890Y1034994D01*
X203223D01*
X-140000Y1073826D02*
X-126671Y1060497D01*
X-140000D02*
X-126671Y1073826D01*
X-140000Y1067161D02*
X-126671D01*
X-133336Y1060497D02*
Y1073826D01*
X-120006Y1057165D02*
Y1060497D01*
X-116674D01*
Y1057165D01*
X-120006D01*
X-90016Y1073826D02*
X-93348Y1077158D01*
X-100013D01*
X-103345Y1073826D01*
Y1060497D01*
X-100013Y1057165D01*
X-93348D01*
X-90016Y1060497D01*
Y1067161D01*
X-96681D01*
X-83352Y1077158D02*
X-70023D01*
X-76687D01*
Y1057165D01*
X-63358D02*
Y1077158D01*
X-53361D01*
X-50029Y1073826D01*
Y1067161D01*
X-53361Y1063829D01*
X-63358D01*
X-23371Y1067161D02*
X-10042D01*
X16616Y1077158D02*
X29945D01*
X23281D01*
Y1057165D01*
X39942D02*
X46606D01*
X49939Y1060497D01*
Y1067161D01*
X46606Y1070493D01*
X39942D01*
X36610Y1067161D01*
Y1060497D01*
X39942Y1057165D01*
X56603Y1050500D02*
Y1070493D01*
X66600D01*
X69932Y1067161D01*
Y1060497D01*
X66600Y1057165D01*
X56603D01*
X96590D02*
Y1077158D01*
X106587D01*
X109920Y1073826D01*
Y1067161D01*
X106587Y1063829D01*
X96590D01*
X119916Y1070493D02*
X126581D01*
X129913Y1067161D01*
Y1057165D01*
X119916D01*
X116584Y1060497D01*
X119916Y1063829D01*
X129913D01*
X136578Y1057165D02*
X146574D01*
X149907Y1060497D01*
X146574Y1063829D01*
X139910D01*
X136578Y1067161D01*
X139910Y1070493D01*
X149907D01*
X159903Y1073826D02*
Y1070493D01*
X156571D01*
X163236D01*
X159903D01*
Y1060497D01*
X163236Y1057165D01*
X183229D02*
X176565D01*
X173232Y1060497D01*
Y1067161D01*
X176565Y1070493D01*
X183229D01*
X186561Y1067161D01*
Y1063829D01*
X173232D01*
X-140000Y1110826D02*
X-126671Y1097497D01*
X-140000D02*
X-126671Y1110826D01*
X-140000Y1104161D02*
X-126671D01*
X-133336Y1097497D02*
Y1110826D01*
X-120006Y1094165D02*
Y1097497D01*
X-116674D01*
Y1094165D01*
X-120006D01*
X-90016Y1110826D02*
X-93348Y1114158D01*
X-100013D01*
X-103345Y1110826D01*
Y1097497D01*
X-100013Y1094165D01*
X-93348D01*
X-90016Y1097497D01*
Y1104161D01*
X-96681D01*
X-83352Y1114158D02*
X-70023D01*
X-76687D01*
Y1094165D01*
X-53361Y1114158D02*
X-60026D01*
X-63358Y1110826D01*
Y1097497D01*
X-60026Y1094165D01*
X-53361D01*
X-50029Y1097497D01*
Y1110826D01*
X-53361Y1114158D01*
X-23371Y1104161D02*
X-10042D01*
X16616Y1114158D02*
X29945D01*
X23281D01*
Y1094165D01*
X39942D02*
X46606D01*
X49939Y1097497D01*
Y1104161D01*
X46606Y1107494D01*
X39942D01*
X36610Y1104161D01*
Y1097497D01*
X39942Y1094165D01*
X56603Y1087500D02*
Y1107494D01*
X66600D01*
X69932Y1104161D01*
Y1097497D01*
X66600Y1094165D01*
X56603D01*
X106587Y1114158D02*
X99923D01*
X96590Y1110826D01*
Y1097497D01*
X99923Y1094165D01*
X106587D01*
X109920Y1097497D01*
Y1110826D01*
X106587Y1114158D01*
X116584Y1107494D02*
X123249Y1094165D01*
X129913Y1107494D01*
X146574Y1094165D02*
X139910D01*
X136578Y1097497D01*
Y1104161D01*
X139910Y1107494D01*
X146574D01*
X149907Y1104161D01*
Y1100829D01*
X136578D01*
X156571Y1107494D02*
Y1094165D01*
Y1100829D01*
X159903Y1104161D01*
X163236Y1107494D01*
X166568D01*
X176565Y1094165D02*
X183229D01*
X179897D01*
Y1114158D01*
X176565D01*
X196558Y1107494D02*
X203223D01*
X206555Y1104161D01*
Y1094165D01*
X196558D01*
X193226Y1097497D01*
X196558Y1100829D01*
X206555D01*
X213220Y1107494D02*
Y1097497D01*
X216552Y1094165D01*
X226549D01*
Y1090832D01*
X223216Y1087500D01*
X219884D01*
X226549Y1094165D02*
Y1107494D01*
X-126171Y1149494D02*
X-139500D01*
Y1139497D01*
X-132836D01*
X-139500D01*
Y1129500D01*
X-119506D02*
X-112842D01*
X-116174D01*
Y1142829D01*
X-119506D01*
X-102845Y1129500D02*
X-96181D01*
X-99513D01*
Y1149494D01*
X-102845D01*
X-76187Y1129500D02*
X-82852D01*
X-86184Y1132832D01*
Y1139497D01*
X-82852Y1142829D01*
X-76187D01*
X-72855Y1139497D01*
Y1136164D01*
X-86184D01*
X-66190Y1129500D02*
X-56193D01*
X-52861Y1132832D01*
X-56193Y1136164D01*
X-62858D01*
X-66190Y1139497D01*
X-62858Y1142829D01*
X-52861D01*
D16*
X-1500Y-288000D02*
X838000Y-288000D01*
X-1500Y-546500D02*
Y-289000D01*
X838000Y-288000D02*
X838000Y-546500D01*
X702000Y-367000D02*
Y-287500D01*
X384500Y-472000D02*
Y-367000D01*
X-1500Y-472500D02*
X837500D01*
X-1500Y-367000D02*
X837000D01*
X-1500Y-546500D02*
X838000D01*
D76*
X726000Y-318507D02*
X735997Y-338500D01*
X745993Y-318507D01*
X755990Y-338500D02*
X765987D01*
X760989D01*
Y-308510D01*
X755990Y-313508D01*
X780982Y-308510D02*
Y-338500D01*
X795977D02*
X805974D01*
X800976D01*
Y-308510D01*
X795977Y-313508D01*
X57494Y-337000D02*
X37500D01*
X57494Y-317006D01*
Y-312008D01*
X52495Y-307010D01*
X42498D01*
X37500Y-312008D01*
X67490D02*
X72489Y-307010D01*
X82485D01*
X87484Y-312008D01*
Y-317006D01*
X82485Y-322005D01*
X87484Y-327003D01*
Y-332002D01*
X82485Y-337000D01*
X72489D01*
X67490Y-332002D01*
Y-327003D01*
X72489Y-322005D01*
X67490Y-317006D01*
Y-312008D01*
X72489Y-322005D02*
X82485D01*
X97481Y-337000D02*
Y-307010D01*
X112476D01*
X117474Y-312008D01*
Y-322005D01*
X112476Y-327003D01*
X97481D01*
X127471Y-337000D02*
X137468D01*
X132469D01*
Y-317006D01*
X127471D01*
X152463Y-337000D02*
Y-317006D01*
X167458D01*
X172456Y-322005D01*
Y-337000D01*
X182453D02*
X197448D01*
X202447Y-332002D01*
X197448Y-327003D01*
X187451D01*
X182453Y-322005D01*
X187451Y-317006D01*
X202447D01*
D95*
X398500Y-393841D02*
Y-410835D01*
X406997D01*
X409830Y-408003D01*
Y-396673D01*
X406997Y-393841D01*
X398500D01*
X423992Y-410835D02*
X418327D01*
X415494Y-408003D01*
Y-402338D01*
X418327Y-399506D01*
X423992D01*
X426824Y-402338D01*
Y-405170D01*
X415494D01*
X432489Y-410835D02*
X440986D01*
X443819Y-408003D01*
X440986Y-405170D01*
X435321D01*
X432489Y-402338D01*
X435321Y-399506D01*
X443819D01*
X449483Y-410835D02*
X455148D01*
X452316D01*
Y-399506D01*
X449483D01*
X469310Y-416500D02*
X472143D01*
X474975Y-413668D01*
Y-399506D01*
X466478D01*
X463646Y-402338D01*
Y-408003D01*
X466478Y-410835D01*
X474975D01*
X480640D02*
Y-399506D01*
X489137D01*
X491970Y-402338D01*
Y-410835D01*
X506132D02*
X500467D01*
X497635Y-408003D01*
Y-402338D01*
X500467Y-399506D01*
X506132D01*
X508964Y-402338D01*
Y-405170D01*
X497635D01*
X525959Y-393841D02*
Y-410835D01*
X517462D01*
X514629Y-408003D01*
Y-402338D01*
X517462Y-399506D01*
X525959D01*
X548618Y-393841D02*
Y-410835D01*
X557115D01*
X559948Y-408003D01*
Y-405170D01*
X557115Y-402338D01*
X548618D01*
X557115D01*
X559948Y-399506D01*
Y-396673D01*
X557115Y-393841D01*
X548618D01*
X565613Y-399506D02*
Y-408003D01*
X568445Y-410835D01*
X576942D01*
Y-413668D01*
X574110Y-416500D01*
X571277D01*
X576942Y-410835D02*
Y-399506D01*
X582607D02*
X585439D01*
Y-402338D01*
X582607D01*
Y-399506D01*
Y-408003D02*
X585439D01*
Y-410835D01*
X582607D01*
Y-408003D01*
X613764Y-393841D02*
X619428D01*
X616596D01*
Y-410835D01*
X613764D01*
X619428D01*
X627926D02*
Y-399506D01*
X630758D01*
X633591Y-402338D01*
Y-410835D01*
Y-402338D01*
X636423Y-399506D01*
X639255Y-402338D01*
Y-410835D01*
X644920Y-399506D02*
Y-410835D01*
Y-405170D01*
X647753Y-402338D01*
X650585Y-399506D01*
X653418D01*
X661915D02*
Y-408003D01*
X664747Y-410835D01*
X673244D01*
Y-399506D01*
X678909Y-410835D02*
X684574D01*
X681742D01*
Y-393841D01*
X678909D01*
X710066D02*
Y-410835D01*
Y-405170D01*
X721395Y-393841D01*
X712898Y-402338D01*
X721395Y-410835D01*
X727060Y-393841D02*
Y-410835D01*
Y-402338D01*
X729893Y-399506D01*
X735558D01*
X738390Y-402338D01*
Y-410835D01*
X746887Y-399506D02*
X752552D01*
X755385Y-402338D01*
Y-410835D01*
X746887D01*
X744055Y-408003D01*
X746887Y-405170D01*
X755385D01*
X761049Y-410835D02*
Y-399506D01*
X769547D01*
X772379Y-402338D01*
Y-410835D01*
M02*
