G04*
G04 #@! TF.GenerationSoftware,Altium Limited,Altium Designer,20.1.7 (139)*
G04*
G04 Layer_Color=8388736*
%FSLAX44Y44*%
%MOMM*%
G71*
G04*
G04 #@! TF.SameCoordinates,5176B2A9-6DC6-4D15-A643-430D7AC4E40B*
G04*
G04*
G04 #@! TF.FilePolarity,Positive*
G04*
G01*
G75*
%ADD11C,0.5000*%
%ADD12C,0.2540*%
%ADD92C,1.0160*%
%ADD93C,0.3810*%
%ADD94C,0.1524*%
D11*
X218332Y586000D02*
X224997D01*
X228329Y589332D01*
Y595997D01*
X224997Y599329D01*
X218332D01*
X215000Y595997D01*
Y589332D01*
X218332Y586000D01*
X238326D02*
Y602661D01*
Y595997D01*
X234994D01*
X241658D01*
X238326D01*
Y602661D01*
X241658Y605994D01*
X284977Y586000D02*
X271648D01*
X284977Y599329D01*
Y602661D01*
X281645Y605994D01*
X274981D01*
X271648Y602661D01*
X291642D02*
X294974Y605994D01*
X301639D01*
X304971Y602661D01*
Y599329D01*
X301639Y595997D01*
X304971Y592664D01*
Y589332D01*
X301639Y586000D01*
X294974D01*
X291642Y589332D01*
Y592664D01*
X294974Y595997D01*
X291642Y599329D01*
Y602661D01*
X294974Y595997D02*
X301639D01*
X331629Y586000D02*
Y605994D01*
X341626D01*
X344958Y602661D01*
Y595997D01*
X341626Y592664D01*
X331629D01*
X351623Y586000D02*
X358287D01*
X354955D01*
Y599329D01*
X351623D01*
X368284Y586000D02*
Y599329D01*
X378281D01*
X381613Y595997D01*
Y586000D01*
X388278D02*
X398274D01*
X401606Y589332D01*
X398274Y592664D01*
X391610D01*
X388278Y595997D01*
X391610Y599329D01*
X401606D01*
X428265Y605994D02*
Y592664D01*
X434929Y586000D01*
X441594Y592664D01*
Y605994D01*
X448258Y586000D02*
X454923D01*
X451590D01*
Y605994D01*
X448258Y602661D01*
X464919Y605994D02*
Y586000D01*
X474916D02*
X481581D01*
X478248D01*
Y605994D01*
X474916Y602661D01*
X175000Y629165D02*
Y649158D01*
X181665Y642494D01*
X188329Y649158D01*
Y629165D01*
X204990D02*
X198326D01*
X194993Y632497D01*
Y639161D01*
X198326Y642494D01*
X204990D01*
X208323Y639161D01*
Y635829D01*
X194993D01*
X228316Y642494D02*
X218319D01*
X214987Y639161D01*
Y632497D01*
X218319Y629165D01*
X228316D01*
X234981Y649158D02*
Y629165D01*
Y639161D01*
X238313Y642494D01*
X244977D01*
X248310Y639161D01*
Y629165D01*
X258307Y642494D02*
X264971D01*
X268303Y639161D01*
Y629165D01*
X258307D01*
X254974Y632497D01*
X258307Y635829D01*
X268303D01*
X274968Y629165D02*
Y642494D01*
X284965D01*
X288297Y639161D01*
Y629165D01*
X294961D02*
X301626D01*
X298294D01*
Y642494D01*
X294961D01*
X324952D02*
X314955D01*
X311623Y639161D01*
Y632497D01*
X314955Y629165D01*
X324952D01*
X334948Y642494D02*
X341613D01*
X344945Y639161D01*
Y629165D01*
X334948D01*
X331616Y632497D01*
X334948Y635829D01*
X344945D01*
X351610Y629165D02*
X358274D01*
X354942D01*
Y649158D01*
X351610D01*
X388265D02*
Y629165D01*
X398261D01*
X401594Y632497D01*
Y645826D01*
X398261Y649158D01*
X388265D01*
X408258Y642494D02*
Y629165D01*
Y635829D01*
X411590Y639161D01*
X414923Y642494D01*
X418255D01*
X431584D02*
X438248D01*
X441581Y639161D01*
Y629165D01*
X431584D01*
X428252Y632497D01*
X431584Y635829D01*
X441581D01*
X448245Y642494D02*
Y632497D01*
X451577Y629165D01*
X454910Y632497D01*
X458242Y629165D01*
X461574Y632497D01*
Y642494D01*
X468239Y629165D02*
X474903D01*
X471571D01*
Y642494D01*
X468239D01*
X484900Y629165D02*
Y642494D01*
X494897D01*
X498229Y639161D01*
Y629165D01*
X511558Y622500D02*
X514890D01*
X518223Y625832D01*
Y642494D01*
X508226D01*
X504894Y639161D01*
Y632497D01*
X508226Y629165D01*
X518223D01*
D12*
X-74000Y0D02*
X-68920Y-15240D01*
X-79080D02*
X-74000Y0D01*
X-79080Y40640D02*
X-74000Y25400D01*
X-68920Y40640D01*
X-74000Y-25400D02*
Y0D01*
Y25400D02*
Y50800D01*
X-76540Y25400D02*
X494460D01*
X-76540Y0D02*
X-7620D01*
X-130000D02*
X-124920Y-15240D01*
X-135080D02*
X-130000Y0D01*
X-135080Y91440D02*
X-130000Y76200D01*
X-124920Y91440D01*
X-130000Y-25400D02*
Y0D01*
Y76200D02*
Y101600D01*
X-132540Y76200D02*
X619860D01*
X-132540Y0D02*
X-7620D01*
X-179500Y131572D02*
X-174420Y116332D01*
X-184580D02*
X-179500Y131572D01*
X-184580Y15240D02*
X-179500Y0D01*
X-174420Y15240D01*
X-179500Y84830D02*
Y131572D01*
Y0D02*
Y38614D01*
X-182040Y131572D02*
X-2204D01*
X-182040Y0D02*
X-7620D01*
X-241000Y234000D02*
X-235920Y218760D01*
X-246080D02*
X-241000Y234000D01*
X-246080Y15240D02*
X-241000Y0D01*
X-235920Y15240D01*
X-241000Y134774D02*
Y234000D01*
Y0D02*
Y91098D01*
X-243540Y234000D02*
X8455D01*
X-243540Y0D02*
X-7620D01*
X-311000Y386080D02*
X-305920Y370840D01*
X-316080D02*
X-311000Y386080D01*
X-316080Y15240D02*
X-311000Y0D01*
X-305920Y15240D01*
X-311000Y219701D02*
Y386080D01*
Y0D02*
Y158251D01*
X-313540Y386080D02*
X13360D01*
X-313540Y0D02*
X-7620D01*
X-383500Y472440D02*
X-378420Y457200D01*
X-388580D02*
X-383500Y472440D01*
X-388580Y15240D02*
X-383500Y0D01*
X-378420Y15240D01*
X-383500Y262881D02*
Y472440D01*
Y0D02*
Y201431D01*
X-386040Y472440D02*
X13360D01*
X-386040Y0D02*
X-7620D01*
X-454500Y508000D02*
X-449420Y492760D01*
X-459580D02*
X-454500Y508000D01*
X-459580Y15240D02*
X-454500Y0D01*
X-449420Y15240D01*
X-454500Y281931D02*
Y508000D01*
Y0D02*
Y217941D01*
X-457040Y508000D02*
X621460D01*
X-457040Y0D02*
X-7620D01*
X-15240Y-76580D02*
X0Y-71500D01*
X-15240Y-66420D02*
X0Y-71500D01*
X21336D02*
X36576Y-66420D01*
X21336Y-71500D02*
X36576Y-76580D01*
X-25400Y-71500D02*
X0D01*
X21336D02*
X46736D01*
X21336Y-74040D02*
Y336D01*
X0Y-74040D02*
Y-7620D01*
X-15240Y-126580D02*
X0Y-121500D01*
X-15240Y-116420D02*
X0Y-121500D01*
X25400D02*
X40640Y-116420D01*
X25400Y-121500D02*
X40640Y-126580D01*
X-25400Y-121500D02*
X0D01*
X25400D02*
X50800D01*
X25400Y-124040D02*
Y460400D01*
X0Y-124040D02*
Y-7620D01*
X124460Y-175580D02*
X139700Y-170500D01*
X124460Y-165420D02*
X139700Y-170500D01*
X0D02*
X15240Y-165420D01*
X0Y-170500D02*
X15240Y-175580D01*
X90163Y-170500D02*
X139700D01*
X0D02*
X41409D01*
X139700Y-173040D02*
Y-15140D01*
X0Y-173040D02*
Y-7620D01*
X137160Y-218580D02*
X152400Y-213500D01*
X137160Y-208420D02*
X152400Y-213500D01*
X0D02*
X15240Y-208420D01*
X0Y-213500D02*
X15240Y-218580D01*
X96513Y-213500D02*
X152400D01*
X0D02*
X47759D01*
X152400Y-216040D02*
Y488460D01*
X0Y-216040D02*
Y-7620D01*
X264160Y-269580D02*
X279400Y-264500D01*
X264160Y-259420D02*
X279400Y-264500D01*
X0D02*
X15240Y-259420D01*
X0Y-264500D02*
X15240Y-269580D01*
X165092Y-264500D02*
X279400D01*
X0D02*
X106180D01*
X279400Y-267040D02*
Y11860D01*
X0Y-267040D02*
Y-7620D01*
X492760Y-372080D02*
X508000Y-367000D01*
X492760Y-361920D02*
X508000Y-367000D01*
X0D02*
X15240Y-361920D01*
X0Y-367000D02*
X15240Y-372080D01*
X281931Y-367000D02*
X508000D01*
X0D02*
X217941D01*
X508000Y-369540D02*
Y11860D01*
X0Y-369540D02*
Y-7620D01*
X619760Y-426580D02*
X635000Y-421500D01*
X619760Y-416420D02*
X635000Y-421500D01*
X0D02*
X15240Y-416420D01*
X0Y-421500D02*
X15240Y-426580D01*
X345431Y-421500D02*
X635000D01*
X0D02*
X281441D01*
X635000Y-424040D02*
Y494460D01*
X0Y-424040D02*
Y-7620D01*
X645160Y-477580D02*
X660400Y-472500D01*
X645160Y-467420D02*
X660400Y-472500D01*
X0D02*
X15240Y-467420D01*
X0Y-472500D02*
X15240Y-477580D01*
X358131Y-472500D02*
X660400D01*
X0D02*
X294141D01*
X660400Y-475040D02*
Y315060D01*
X0Y-475040D02*
Y-7620D01*
Y-532000D02*
X15240Y-526920D01*
X0Y-532000D02*
X15240Y-537080D01*
X670560D02*
X685800Y-532000D01*
X670560Y-526920D02*
X685800Y-532000D01*
X0D02*
X306841D01*
X370831D02*
X685800D01*
X0Y-534540D02*
Y-7620D01*
X685800Y-534540D02*
Y-7620D01*
X-523580Y15240D02*
X-518500Y0D01*
X-513420Y15240D01*
X-518500Y533400D02*
X-513420Y518160D01*
X-523580D02*
X-518500Y533400D01*
Y0D02*
Y231911D01*
Y293361D02*
Y533400D01*
X-521040Y0D02*
X-7620D01*
X-521040Y533400D02*
X-7620D01*
D92*
X676400Y76200D02*
G03*
X676400Y76200I-16000J0D01*
G01*
X155700Y25400D02*
G03*
X155700Y25400I-16000J0D01*
G01*
X168400Y508000D02*
G03*
X168400Y508000I-16000J0D01*
G01*
X685800Y0D02*
Y533400D01*
X0D02*
X685800D01*
X0Y0D02*
Y533400D01*
Y0D02*
X685800D01*
D93*
X-278148Y-180262D02*
X-281533Y-176877D01*
X-288304D01*
X-291690Y-180262D01*
Y-183648D01*
X-288304Y-187033D01*
X-281533D01*
X-278148Y-190419D01*
Y-193804D01*
X-281533Y-197190D01*
X-288304D01*
X-291690Y-193804D01*
X-257834Y-183648D02*
X-267991D01*
X-271377Y-187033D01*
Y-193804D01*
X-267991Y-197190D01*
X-257834D01*
X-247678Y-183648D02*
X-240906D01*
X-237521Y-187033D01*
Y-197190D01*
X-247678D01*
X-251063Y-193804D01*
X-247678Y-190419D01*
X-237521D01*
X-230750Y-197190D02*
X-223979D01*
X-227364D01*
Y-176877D01*
X-230750D01*
X-203665Y-197190D02*
X-210436D01*
X-213822Y-193804D01*
Y-187033D01*
X-210436Y-183648D01*
X-203665D01*
X-200280Y-187033D01*
Y-190419D01*
X-213822D01*
X-193508Y-183648D02*
X-190123D01*
Y-187033D01*
X-193508D01*
Y-183648D01*
Y-193804D02*
X-190123D01*
Y-197190D01*
X-193508D01*
Y-193804D01*
X-156267Y-197190D02*
X-149496D01*
X-152882D01*
Y-176877D01*
X-156267Y-180262D01*
X-139339Y-183648D02*
X-135954D01*
Y-187033D01*
X-139339D01*
Y-183648D01*
Y-193804D02*
X-135954D01*
Y-197190D01*
X-139339D01*
Y-193804D01*
X-122411Y-197190D02*
X-115640D01*
X-119026D01*
Y-176877D01*
X-122411Y-180262D01*
X-304690Y-135377D02*
Y-152304D01*
X-301304Y-155690D01*
X-294533D01*
X-291148Y-152304D01*
Y-135377D01*
X-284377Y-155690D02*
Y-142148D01*
X-274220D01*
X-270834Y-145533D01*
Y-155690D01*
X-264063D02*
X-257292D01*
X-260678D01*
Y-142148D01*
X-264063D01*
X-243750Y-138762D02*
Y-142148D01*
X-247135D01*
X-240364D01*
X-243750D01*
Y-152304D01*
X-240364Y-155690D01*
X-230207D02*
X-220051D01*
X-216665Y-152304D01*
X-220051Y-148919D01*
X-226822D01*
X-230207Y-145533D01*
X-226822Y-142148D01*
X-216665D01*
X-209894D02*
X-206509D01*
Y-145533D01*
X-209894D01*
Y-142148D01*
Y-152304D02*
X-206509D01*
Y-155690D01*
X-209894D01*
Y-152304D01*
X-172653Y-155690D02*
Y-142148D01*
X-169267D01*
X-165882Y-145533D01*
Y-155690D01*
Y-145533D01*
X-162496Y-142148D01*
X-159110Y-145533D01*
Y-155690D01*
X-152339D02*
X-145568D01*
X-148954D01*
Y-142148D01*
X-152339D01*
X-135412Y-155690D02*
X-128640D01*
X-132026D01*
Y-135377D01*
X-135412D01*
X-118484Y-155690D02*
X-108327D01*
X-104941Y-152304D01*
X-108327Y-148919D01*
X-115098D01*
X-118484Y-145533D01*
X-115098Y-142148D01*
X-104941D01*
D94*
X-64858Y-69076D02*
Y-63997D01*
Y-66536D01*
X-80093D01*
X-77554Y-69076D01*
Y-56380D02*
X-80093Y-53841D01*
Y-48762D01*
X-77554Y-46223D01*
X-67398D01*
X-64858Y-48762D01*
Y-53841D01*
X-67398Y-56380D01*
X-77554D01*
Y-41145D02*
X-80093Y-38605D01*
Y-33527D01*
X-77554Y-30988D01*
X-67398D01*
X-64858Y-33527D01*
Y-38605D01*
X-67398Y-41145D01*
X-77554D01*
X-133554Y-71615D02*
X-136094Y-69076D01*
Y-63997D01*
X-133554Y-61458D01*
X-131015D01*
X-128476Y-63997D01*
Y-66536D01*
Y-63997D01*
X-125937Y-61458D01*
X-123398D01*
X-120858Y-63997D01*
Y-69076D01*
X-123398Y-71615D01*
X-133554Y-56380D02*
X-136094Y-53841D01*
Y-48762D01*
X-133554Y-46223D01*
X-123398D01*
X-120858Y-48762D01*
Y-53841D01*
X-123398Y-56380D01*
X-133554D01*
Y-41145D02*
X-136094Y-38605D01*
Y-33527D01*
X-133554Y-30988D01*
X-123398D01*
X-120858Y-33527D01*
Y-38605D01*
X-123398Y-41145D01*
X-133554D01*
X-185593Y52835D02*
Y42678D01*
X-177976D01*
X-180515Y47757D01*
Y50296D01*
X-177976Y52835D01*
X-172898D01*
X-170359Y50296D01*
Y45217D01*
X-172898Y42678D01*
X-170359Y57913D02*
Y62992D01*
Y60452D01*
X-185593D01*
X-183054Y57913D01*
Y70609D02*
X-185593Y73148D01*
Y78227D01*
X-183054Y80766D01*
X-180515D01*
X-177976Y78227D01*
X-175437Y80766D01*
X-172898D01*
X-170359Y78227D01*
Y73148D01*
X-172898Y70609D01*
X-175437D01*
X-177976Y73148D01*
X-180515Y70609D01*
X-183054D01*
X-177976Y73148D02*
Y78227D01*
X-234398Y95162D02*
X-231859Y97701D01*
Y102779D01*
X-234398Y105318D01*
X-244554D01*
X-247094Y102779D01*
Y97701D01*
X-244554Y95162D01*
X-242015D01*
X-239476Y97701D01*
Y105318D01*
X-231859Y120554D02*
Y110397D01*
X-242015Y120554D01*
X-244554D01*
X-247094Y118014D01*
Y112936D01*
X-244554Y110397D01*
X-231859Y125632D02*
Y130710D01*
Y128171D01*
X-247094D01*
X-244554Y125632D01*
X-301859Y162315D02*
Y167393D01*
Y164854D01*
X-317094D01*
X-314554Y162315D01*
X-317094Y185167D02*
Y175011D01*
X-309476D01*
X-312015Y180089D01*
Y182628D01*
X-309476Y185167D01*
X-304398D01*
X-301859Y182628D01*
Y177550D01*
X-304398Y175011D01*
X-301859Y200402D02*
Y190246D01*
X-312015Y200402D01*
X-314554D01*
X-317094Y197863D01*
Y192785D01*
X-314554Y190246D01*
Y205481D02*
X-317094Y208020D01*
Y213098D01*
X-314554Y215637D01*
X-304398D01*
X-301859Y213098D01*
Y208020D01*
X-304398Y205481D01*
X-314554D01*
X-374358Y205495D02*
Y210573D01*
Y208034D01*
X-389594D01*
X-387054Y205495D01*
Y218190D02*
X-389594Y220730D01*
Y225808D01*
X-387054Y228347D01*
X-384515D01*
X-381976Y225808D01*
X-379437Y228347D01*
X-376898D01*
X-374358Y225808D01*
Y220730D01*
X-376898Y218190D01*
X-379437D01*
X-381976Y220730D01*
X-384515Y218190D01*
X-387054D01*
X-381976Y220730D02*
Y225808D01*
X-389594Y243582D02*
X-387054Y238504D01*
X-381976Y233426D01*
X-376898D01*
X-374358Y235965D01*
Y241043D01*
X-376898Y243582D01*
X-379437D01*
X-381976Y241043D01*
Y233426D01*
X-387054Y248661D02*
X-389594Y251200D01*
Y256278D01*
X-387054Y258817D01*
X-376898D01*
X-374358Y256278D01*
Y251200D01*
X-376898Y248661D01*
X-387054D01*
X-445359Y232162D02*
Y222005D01*
X-455515Y232162D01*
X-458054D01*
X-460593Y229623D01*
Y224544D01*
X-458054Y222005D01*
Y237240D02*
X-460593Y239779D01*
Y244858D01*
X-458054Y247397D01*
X-447898D01*
X-445359Y244858D01*
Y239779D01*
X-447898Y237240D01*
X-458054D01*
Y252475D02*
X-460593Y255014D01*
Y260093D01*
X-458054Y262632D01*
X-447898D01*
X-445359Y260093D01*
Y255014D01*
X-447898Y252475D01*
X-458054D01*
Y267710D02*
X-460593Y270249D01*
Y275328D01*
X-458054Y277867D01*
X-447898D01*
X-445359Y275328D01*
Y270249D01*
X-447898Y267710D01*
X-458054D01*
X49276Y-67946D02*
X51815Y-65406D01*
X56894D01*
X59433Y-67946D01*
Y-70485D01*
X56894Y-73024D01*
X59433Y-75563D01*
Y-78102D01*
X56894Y-80641D01*
X51815D01*
X49276Y-78102D01*
Y-75563D01*
X51815Y-73024D01*
X49276Y-70485D01*
Y-67946D01*
X51815Y-73024D02*
X56894D01*
X72129Y-80641D02*
Y-65406D01*
X64511Y-73024D01*
X74668D01*
X53340Y-130641D02*
X58418D01*
X55879D01*
Y-115407D01*
X53340Y-117946D01*
X66036D02*
X68575Y-115407D01*
X73653D01*
X76193Y-117946D01*
Y-128102D01*
X73653Y-130641D01*
X68575D01*
X66036Y-128102D01*
Y-117946D01*
X81271D02*
X83810Y-115407D01*
X88889D01*
X91428Y-117946D01*
Y-128102D01*
X88889Y-130641D01*
X83810D01*
X81271Y-128102D01*
Y-117946D01*
X55629Y-164407D02*
X45473D01*
Y-172024D01*
X50551Y-169485D01*
X53090D01*
X55629Y-172024D01*
Y-177102D01*
X53090Y-179641D01*
X48012D01*
X45473Y-177102D01*
X70864Y-164407D02*
X60708D01*
Y-172024D01*
X65786Y-169485D01*
X68325D01*
X70864Y-172024D01*
Y-177102D01*
X68325Y-179641D01*
X63247D01*
X60708Y-177102D01*
X75943Y-166946D02*
X78482Y-164407D01*
X83560D01*
X86099Y-166946D01*
Y-177102D01*
X83560Y-179641D01*
X78482D01*
X75943Y-177102D01*
Y-166946D01*
X61979Y-207407D02*
X56901Y-209946D01*
X51823Y-215024D01*
Y-220102D01*
X54362Y-222642D01*
X59440D01*
X61979Y-220102D01*
Y-217563D01*
X59440Y-215024D01*
X51823D01*
X67058Y-209946D02*
X69597Y-207407D01*
X74675D01*
X77214Y-209946D01*
Y-220102D01*
X74675Y-222642D01*
X69597D01*
X67058Y-220102D01*
Y-209946D01*
X82293D02*
X84832Y-207407D01*
X89910D01*
X92449Y-209946D01*
Y-220102D01*
X89910Y-222642D01*
X84832D01*
X82293Y-220102D01*
Y-209946D01*
X110244Y-273641D02*
X115323D01*
X112783D01*
Y-258407D01*
X110244Y-260946D01*
X122940Y-273641D02*
X128018D01*
X125479D01*
Y-258407D01*
X122940Y-260946D01*
X135636D02*
X138175Y-258407D01*
X143253D01*
X145793Y-260946D01*
Y-271102D01*
X143253Y-273641D01*
X138175D01*
X135636Y-271102D01*
Y-260946D01*
X150871D02*
X153410Y-258407D01*
X158489D01*
X161028Y-260946D01*
Y-271102D01*
X158489Y-273641D01*
X153410D01*
X150871Y-271102D01*
Y-260946D01*
X232162Y-376142D02*
X222005D01*
X232162Y-365985D01*
Y-363446D01*
X229623Y-360906D01*
X224544D01*
X222005Y-363446D01*
X237240D02*
X239779Y-360906D01*
X244858D01*
X247397Y-363446D01*
Y-373602D01*
X244858Y-376142D01*
X239779D01*
X237240Y-373602D01*
Y-363446D01*
X252475D02*
X255014Y-360906D01*
X260093D01*
X262632Y-363446D01*
Y-373602D01*
X260093Y-376142D01*
X255014D01*
X252475Y-373602D01*
Y-363446D01*
X267710D02*
X270249Y-360906D01*
X275328D01*
X277867Y-363446D01*
Y-373602D01*
X275328Y-376142D01*
X270249D01*
X267710Y-373602D01*
Y-363446D01*
X295662Y-430642D02*
X285505D01*
X295662Y-420485D01*
Y-417946D01*
X293123Y-415406D01*
X288044D01*
X285505Y-417946D01*
X310897Y-415406D02*
X300740D01*
Y-423024D01*
X305818Y-420485D01*
X308358D01*
X310897Y-423024D01*
Y-428102D01*
X308358Y-430642D01*
X303279D01*
X300740Y-428102D01*
X315975Y-417946D02*
X318514Y-415406D01*
X323593D01*
X326132Y-417946D01*
Y-428102D01*
X323593Y-430642D01*
X318514D01*
X315975Y-428102D01*
Y-417946D01*
X331210D02*
X333749Y-415406D01*
X338828D01*
X341367Y-417946D01*
Y-428102D01*
X338828Y-430642D01*
X333749D01*
X331210Y-428102D01*
Y-417946D01*
X308362Y-481642D02*
X298205D01*
X308362Y-471485D01*
Y-468946D01*
X305823Y-466407D01*
X300744D01*
X298205Y-468946D01*
X323597Y-466407D02*
X318518Y-468946D01*
X313440Y-474024D01*
Y-479102D01*
X315979Y-481642D01*
X321058D01*
X323597Y-479102D01*
Y-476563D01*
X321058Y-474024D01*
X313440D01*
X328675Y-468946D02*
X331214Y-466407D01*
X336293D01*
X338832Y-468946D01*
Y-479102D01*
X336293Y-481642D01*
X331214D01*
X328675Y-479102D01*
Y-468946D01*
X343910D02*
X346449Y-466407D01*
X351528D01*
X354067Y-468946D01*
Y-479102D01*
X351528Y-481642D01*
X346449D01*
X343910Y-479102D01*
Y-468946D01*
X321062Y-541142D02*
X310905D01*
X321062Y-530985D01*
Y-528446D01*
X318523Y-525906D01*
X313444D01*
X310905Y-528446D01*
X326140Y-525906D02*
X336297D01*
Y-528446D01*
X326140Y-538602D01*
Y-541142D01*
X341375Y-528446D02*
X343914Y-525906D01*
X348993D01*
X351532Y-528446D01*
Y-538602D01*
X348993Y-541142D01*
X343914D01*
X341375Y-538602D01*
Y-528446D01*
X356610D02*
X359149Y-525906D01*
X364228D01*
X366767Y-528446D01*
Y-538602D01*
X364228Y-541142D01*
X359149D01*
X356610Y-538602D01*
Y-528446D01*
X-509358Y246131D02*
Y235975D01*
X-519515Y246131D01*
X-522054D01*
X-524594Y243592D01*
Y238514D01*
X-522054Y235975D01*
X-509358Y251210D02*
Y256288D01*
Y253749D01*
X-524594D01*
X-522054Y251210D01*
Y263906D02*
X-524594Y266445D01*
Y271523D01*
X-522054Y274062D01*
X-511898D01*
X-509358Y271523D01*
Y266445D01*
X-511898Y263906D01*
X-522054D01*
Y279141D02*
X-524594Y281680D01*
Y286758D01*
X-522054Y289297D01*
X-511898D01*
X-509358Y286758D01*
Y281680D01*
X-511898Y279141D01*
X-522054D01*
M02*
