G04*
G04 #@! TF.GenerationSoftware,Altium Limited,Altium Designer,20.1.7 (139)*
G04*
G04 Layer_Physical_Order=2*
G04 Layer_Color=16711680*
%FSLAX44Y44*%
%MOMM*%
G71*
G04*
G04 #@! TF.SameCoordinates,5176B2A9-6DC6-4D15-A643-430D7AC4E40B*
G04*
G04*
G04 #@! TF.FilePolarity,Positive*
G04*
G01*
G75*
%ADD10C,0.2000*%
%ADD16C,0.4000*%
%ADD28R,1.9000X1.9000*%
%ADD67C,1.9000*%
%ADD68R,1.9000X1.9000*%
%ADD75C,0.6000*%
%ADD77C,1.0000*%
%ADD79R,1.6000X2.0000*%
%ADD80O,1.6000X2.0000*%
%ADD81C,3.2000*%
%ADD82C,4.0000*%
%ADD83O,2.0000X1.6000*%
%ADD84R,2.0000X1.6000*%
%ADD85C,7.4000*%
%ADD86C,1.7000*%
%ADD87R,1.7000X1.7000*%
G04:AMPARAMS|DCode=88|XSize=2mm|YSize=1.2mm|CornerRadius=0.36mm|HoleSize=0mm|Usage=FLASHONLY|Rotation=0.000|XOffset=0mm|YOffset=0mm|HoleType=Round|Shape=RoundedRectangle|*
%AMROUNDEDRECTD88*
21,1,2.0000,0.4800,0,0,0.0*
21,1,1.2800,1.2000,0,0,0.0*
1,1,0.7200,0.6400,-0.2400*
1,1,0.7200,-0.6400,-0.2400*
1,1,0.7200,-0.6400,0.2400*
1,1,0.7200,0.6400,0.2400*
%
%ADD88ROUNDEDRECTD88*%
%ADD89C,0.6000*%
%ADD90C,1.0000*%
G36*
X683000Y528000D02*
Y5000D01*
X681000Y3000D01*
X623059D01*
Y16798D01*
X623039Y16897D01*
X623052Y16998D01*
X623000Y17193D01*
Y20545D01*
X624270Y20628D01*
X624283Y20528D01*
X625392Y17852D01*
X627155Y15555D01*
X629453Y13792D01*
X632128Y12683D01*
X635000Y12305D01*
X637872Y12683D01*
X640547Y13792D01*
X642845Y15555D01*
X644609Y17852D01*
X645717Y20528D01*
X646095Y23400D01*
Y27400D01*
X645717Y30272D01*
X644609Y32947D01*
X642845Y35245D01*
X640547Y37009D01*
X637872Y38117D01*
X635000Y38495D01*
X632128Y38117D01*
X629453Y37009D01*
X627155Y35245D01*
X625392Y32947D01*
X624283Y30272D01*
X624270Y30172D01*
X623000Y30255D01*
Y33607D01*
X623052Y33802D01*
X623039Y33903D01*
X623059Y34002D01*
Y80000D01*
X623000Y80295D01*
Y84000D01*
X619296D01*
X619000Y84059D01*
X619000Y84059D01*
X296267D01*
X257061Y123264D01*
X256811Y123432D01*
X256598Y123645D01*
X256320Y123760D01*
X256079Y123921D01*
X252921Y127079D01*
X252760Y127319D01*
X252645Y127598D01*
X252432Y127811D01*
X252264Y128061D01*
X251163Y129163D01*
X250181Y129819D01*
X250000Y130000D01*
X249296D01*
X249000Y130059D01*
X249000Y130059D01*
X205317D01*
X205021Y130000D01*
X204720D01*
X204720Y130000D01*
X199280D01*
X199280Y130000D01*
X198979D01*
X198683Y130059D01*
X198267D01*
X185059Y143267D01*
Y147000D01*
X185059Y147000D01*
X185000Y147296D01*
X185000Y149000D01*
X178000Y156000D01*
X97000Y156000D01*
X96059Y156941D01*
X96059Y172102D01*
X96000Y172396D01*
Y173000D01*
X95850Y173150D01*
X95826Y173273D01*
X95163Y174265D01*
X95162Y174265D01*
X94265Y175163D01*
X94264Y175163D01*
X93272Y175826D01*
X93149Y175851D01*
X93000Y176000D01*
X92399D01*
X92102Y176059D01*
X92101Y176059D01*
X79267Y176059D01*
X74059Y181269D01*
X74058Y240000D01*
X73826Y241171D01*
X73163Y242163D01*
X72170Y242826D01*
X71000Y243059D01*
X57270Y243059D01*
X56624Y243390D01*
X56000Y243941D01*
Y270377D01*
X57270Y271227D01*
X59000Y270882D01*
X61341Y271348D01*
X63326Y272674D01*
X64652Y274659D01*
X65118Y277000D01*
X64652Y279341D01*
X64000Y280317D01*
Y288232D01*
X72384Y296616D01*
X73268Y297939D01*
X73349Y298349D01*
X74000Y299000D01*
Y317279D01*
X74982Y318085D01*
X76000Y317882D01*
X78341Y318348D01*
X80326Y319674D01*
X81652Y321659D01*
X82118Y324000D01*
X81652Y326341D01*
X81000Y327317D01*
Y358597D01*
X82270Y359276D01*
X83659Y358348D01*
X86000Y357882D01*
X88341Y358348D01*
X90326Y359674D01*
X91652Y361659D01*
X92118Y364000D01*
X91652Y366341D01*
X90326Y368326D01*
X88341Y369652D01*
X86000Y370117D01*
X85708Y370060D01*
X82384Y373384D01*
X81061Y374268D01*
X81055Y374269D01*
X80861Y374930D01*
X80925Y375590D01*
X82000Y376035D01*
X84402Y377878D01*
X86245Y380280D01*
X87404Y383078D01*
X87799Y386080D01*
X87404Y389082D01*
X86245Y391880D01*
X84402Y394282D01*
X82000Y396125D01*
X79202Y397284D01*
X76200Y397679D01*
X73198Y397284D01*
X70400Y396125D01*
X68329Y394536D01*
X67059Y395002D01*
Y418059D01*
X68000Y419000D01*
X82000Y419000D01*
X85000Y416000D01*
X90000Y411000D01*
X91705D01*
X92000Y410941D01*
X92000Y410941D01*
X105733D01*
X114837Y401837D01*
X115819Y401181D01*
X116000Y401000D01*
X116704D01*
X117000Y400941D01*
X117000Y400941D01*
X119000D01*
X119000Y400941D01*
X119000Y400941D01*
X133097D01*
X133946Y399671D01*
X133283Y398072D01*
X132905Y395200D01*
X133283Y392328D01*
X134391Y389652D01*
X136155Y387355D01*
X138453Y385592D01*
X141128Y384483D01*
X144000Y384105D01*
X148000D01*
X150872Y384483D01*
X153547Y385592D01*
X155845Y387355D01*
X157608Y389652D01*
X158717Y392328D01*
X159095Y395200D01*
X158717Y398072D01*
X158054Y399671D01*
X158903Y400941D01*
X171000D01*
X171296Y401000D01*
X172000D01*
X172181Y401181D01*
X173163Y401837D01*
X175163Y403837D01*
X175819Y404819D01*
X176000Y405000D01*
Y405704D01*
X176059Y406000D01*
X176059Y406000D01*
Y415457D01*
X176000Y415752D01*
X176000Y416053D01*
X176000Y416053D01*
Y422869D01*
X176108Y422941D01*
X176409D01*
X176705Y423000D01*
X177295D01*
X177591Y422941D01*
X183733D01*
X184941Y421733D01*
Y416000D01*
X184941Y416000D01*
X185000Y415705D01*
Y414000D01*
X189000Y410000D01*
X190705D01*
X191000Y409941D01*
X191000Y409941D01*
X216000D01*
Y405591D01*
X215882Y405000D01*
X216000Y404409D01*
Y403000D01*
X216362Y402638D01*
X217674Y400674D01*
X219637Y399363D01*
X220006Y398994D01*
X221440Y398994D01*
X222000Y398882D01*
X222560Y398994D01*
X223994Y398994D01*
X224362Y399362D01*
X226326Y400674D01*
X227638Y402638D01*
X228000Y403000D01*
X271000Y403000D01*
X274000Y400000D01*
X296000D01*
X312000Y416000D01*
X538500Y416000D01*
X547500Y407000D01*
X571909Y407000D01*
X572500Y406883D01*
X573091Y407000D01*
X579500D01*
X580931Y405569D01*
Y382000D01*
Y340606D01*
X581000Y340084D01*
Y336999D01*
X617931Y300069D01*
Y232000D01*
X618206Y229912D01*
X619000Y227994D01*
Y225000D01*
X627897Y216103D01*
X627411Y214930D01*
X609650D01*
Y188930D01*
X631650D01*
Y210691D01*
X632823Y211177D01*
X637000Y207000D01*
Y181411D01*
X616658Y161069D01*
X612000D01*
X609912Y160794D01*
X607994Y160000D01*
X607960D01*
X607909Y159945D01*
X606294Y158706D01*
X605012Y157035D01*
X604832Y156600D01*
X603000Y154609D01*
X603000Y142000D01*
X599059Y138059D01*
X598122Y138447D01*
X595250Y138825D01*
X592378Y138447D01*
X591300Y138000D01*
X591000D01*
X590788Y137788D01*
X589703Y137338D01*
X587405Y135575D01*
X585642Y133278D01*
X584533Y130602D01*
X584155Y127730D01*
Y123730D01*
X584533Y120858D01*
X585642Y118182D01*
X585998Y117718D01*
X585998Y116002D01*
X588000Y114000D01*
X589996D01*
X592378Y113013D01*
X595250Y112635D01*
X598122Y113013D01*
X600504Y114000D01*
X615396D01*
X617778Y113013D01*
X620650Y112635D01*
X623522Y113013D01*
X625904Y114000D01*
X628000D01*
X632000Y118000D01*
X632000Y131000D01*
X660000Y159000D01*
X664000Y159000D01*
X664500Y156500D01*
X665547Y155452D01*
X666234Y154424D01*
X667263Y153737D01*
X668000Y153000D01*
X668712Y153000D01*
X670560Y152633D01*
X672407Y153000D01*
X673000D01*
X673495Y153495D01*
X674886Y154424D01*
X676212Y156409D01*
X676677Y158750D01*
X676212Y161091D01*
X675000Y162905D01*
X675000Y226000D01*
X660000Y241001D01*
X660000Y249450D01*
X660898Y250348D01*
X675924D01*
Y275348D01*
X653000D01*
Y312000D01*
X650768Y312000D01*
X620500Y342268D01*
X620500Y423500D01*
X612000Y432000D01*
X612000Y445000D01*
X577000Y480000D01*
X298080D01*
X297554Y481270D01*
X311720Y495436D01*
X312088Y495283D01*
X314960Y494905D01*
X317832Y495283D01*
X320507Y496391D01*
X322805Y498155D01*
X324568Y500452D01*
X325677Y503128D01*
X326055Y506000D01*
Y510000D01*
X325677Y512872D01*
X324568Y515547D01*
X322805Y517845D01*
X320507Y519608D01*
X317832Y520717D01*
X314960Y521095D01*
X312088Y520717D01*
X309413Y519608D01*
X307115Y517845D01*
X305352Y515547D01*
X304243Y512872D01*
X303865Y510000D01*
Y506000D01*
X304243Y503128D01*
X305307Y500559D01*
X291827Y487078D01*
X286991D01*
X286826Y487326D01*
X284841Y488652D01*
X282500Y489118D01*
X280159Y488652D01*
X278174Y487326D01*
X277270Y485973D01*
X277270D01*
Y485973D01*
X276848Y485341D01*
X276383Y483000D01*
X276727Y481270D01*
X275944Y480099D01*
X275783Y480000D01*
X258558Y480000D01*
X256000Y482558D01*
Y523000D01*
X252000Y527000D01*
X197000D01*
X192000Y522000D01*
X182000D01*
X176500Y516500D01*
X176500Y501000D01*
X182500Y495000D01*
X187240D01*
X187960Y494905D01*
X188680Y495000D01*
X212639Y495000D01*
X213360Y494905D01*
X214081Y495000D01*
X219000D01*
X222400Y491600D01*
X221807Y490397D01*
X220500Y490569D01*
X218412Y490294D01*
X216465Y489488D01*
X214794Y488206D01*
X213512Y486535D01*
X212706Y484588D01*
X212431Y482500D01*
X212706Y480412D01*
X213512Y478465D01*
X214794Y476794D01*
X224000Y467589D01*
X224000Y458500D01*
X92500Y458500D01*
X88000Y463000D01*
Y478000D01*
X82000Y484000D01*
X76498D01*
X76200Y484039D01*
X75902Y484000D01*
X67059D01*
Y512000D01*
X66826Y513171D01*
X66163Y514163D01*
X64163Y516163D01*
X63181Y516819D01*
X63000Y517000D01*
X62295D01*
X62000Y517059D01*
X62000Y517059D01*
X4941D01*
X4000Y518000D01*
Y531000D01*
X680000D01*
X683000Y528000D01*
D02*
G37*
G36*
X64000Y512000D02*
Y447000D01*
X131000D01*
X131000Y435000D01*
X162000D01*
Y442000D01*
D01*
Y442500D01*
X306500Y442500D01*
X306500Y423500D01*
X293000Y410000D01*
X279000Y410000D01*
X279000D01*
X276000Y413000D01*
X191000D01*
X188000Y416000D01*
Y423000D01*
X185000Y426000D01*
X177591D01*
X177000Y426118D01*
X176409Y426000D01*
X175000D01*
X174638Y425638D01*
X172674Y424326D01*
X171348Y422341D01*
X170882Y420000D01*
X171348Y417659D01*
X172674Y415674D01*
X173000Y415457D01*
Y406000D01*
X171000Y404000D01*
X154601D01*
X153547Y404809D01*
X150872Y405917D01*
X148000Y406295D01*
X144000D01*
X141128Y405917D01*
X138453Y404809D01*
X137399Y404000D01*
X117000D01*
X107000Y414000D01*
X92000D01*
X90000Y416000D01*
Y421000D01*
X88000Y423000D01*
X76802D01*
X76200Y423079D01*
X75598Y423000D01*
X64000D01*
Y304000D01*
X59000Y299000D01*
X52000Y299000D01*
X52000Y238297D01*
X51941Y238000D01*
X51941Y238000D01*
X51941Y179001D01*
X51941Y179000D01*
X52000Y178706D01*
Y178000D01*
X52182Y177818D01*
X52618Y177165D01*
X52837Y176838D01*
X52837Y176837D01*
X52838Y176837D01*
X60941Y168733D01*
X60941Y155971D01*
X60941Y155971D01*
X61000Y155675D01*
Y155000D01*
X61168Y154832D01*
X61174Y154800D01*
X61837Y153808D01*
X70000Y145645D01*
X70000Y130000D01*
X70428Y129572D01*
X70687Y129184D01*
X71083Y128591D01*
X71084Y128591D01*
X78000Y121675D01*
X78000Y95000D01*
X80000Y93000D01*
X80572D01*
X80735Y92837D01*
X81727Y92174D01*
X82898Y91941D01*
X82898Y91941D01*
X92102Y91941D01*
X92102Y91941D01*
X93273Y92174D01*
X94265Y92837D01*
X94428Y93000D01*
X95000D01*
X96000Y94000D01*
Y95602D01*
X96059Y95898D01*
X96059Y95898D01*
X96059Y152000D01*
X177000D01*
X182000Y147000D01*
Y142000D01*
X197000Y127000D01*
X198683D01*
X199659Y126348D01*
X202000Y125883D01*
X204341Y126348D01*
X205317Y127000D01*
X249000D01*
X250102Y125899D01*
X250348Y124659D01*
X251674Y122674D01*
X253659Y121348D01*
X254898Y121102D01*
X295000Y81000D01*
X619000D01*
X620000Y80000D01*
Y34002D01*
X618730Y33571D01*
X617445Y35245D01*
X615147Y37009D01*
X612472Y38117D01*
X609600Y38495D01*
X606728Y38117D01*
X604053Y37009D01*
X601755Y35245D01*
X599991Y32947D01*
X598883Y30272D01*
X598505Y27400D01*
Y23400D01*
X598883Y20528D01*
X599991Y17852D01*
X601755Y15555D01*
X604053Y13792D01*
X606728Y12683D01*
X609600Y12305D01*
X612472Y12683D01*
X615147Y13792D01*
X617445Y15555D01*
X618730Y17229D01*
X620000Y16798D01*
Y3000D01*
X395059D01*
Y18717D01*
X396329Y18970D01*
X396791Y17852D01*
X398555Y15555D01*
X400853Y13792D01*
X403528Y12683D01*
X406400Y12305D01*
X409272Y12683D01*
X411947Y13792D01*
X414245Y15555D01*
X416008Y17852D01*
X417117Y20528D01*
X417495Y23400D01*
Y27400D01*
X417117Y30272D01*
X416008Y32947D01*
X414245Y35245D01*
X411947Y37009D01*
X409272Y38117D01*
X406400Y38495D01*
X403528Y38117D01*
X400853Y37009D01*
X398555Y35245D01*
X396791Y32947D01*
X396329Y31830D01*
X395059Y32083D01*
Y37000D01*
X395059Y37000D01*
X394826Y38170D01*
X394163Y39163D01*
X394163Y39163D01*
X393163Y40163D01*
X392181Y40819D01*
X392000Y41000D01*
X391296D01*
X391000Y41059D01*
X391000Y41059D01*
X370059D01*
Y52000D01*
X369826Y53170D01*
X369163Y54163D01*
X369163Y54163D01*
X359163Y64163D01*
X358181Y64819D01*
X358000Y65000D01*
X357296D01*
X357000Y65059D01*
X357000Y65059D01*
X318591D01*
X318295Y65000D01*
X317705D01*
X317409Y65059D01*
X299441D01*
X292500Y72000D01*
X291297D01*
X291000Y72059D01*
X291000Y72059D01*
X258800Y72059D01*
Y94400D01*
X237059D01*
Y97000D01*
X236826Y98170D01*
X236163Y99163D01*
X236163Y99163D01*
X224163Y111163D01*
X224163Y111163D01*
X223171Y111826D01*
X222000Y112059D01*
X222000Y112059D01*
X161000D01*
X159829Y111826D01*
X158837Y111163D01*
X158837Y111163D01*
X153837Y106163D01*
X153174Y105170D01*
X152941Y104000D01*
X152941Y104000D01*
Y77941D01*
X151500Y76500D01*
X128500D01*
X127200Y77800D01*
Y100831D01*
X127200Y100831D01*
X127200Y101000D01*
X126000Y101000D01*
X125930Y101000D01*
X124295D01*
X124000Y101059D01*
X108898D01*
X108898Y101059D01*
X108603Y101000D01*
X105200D01*
Y101000D01*
X105000D01*
X105000Y97397D01*
X104941Y97102D01*
X104941Y97102D01*
X104941Y92267D01*
X76733Y64059D01*
X3000Y64059D01*
Y115774D01*
X4196Y116202D01*
X4994Y115230D01*
X8496Y112356D01*
X12492Y110220D01*
X16827Y108905D01*
X21336Y108461D01*
X25845Y108905D01*
X30180Y110220D01*
X34176Y112356D01*
X37678Y115230D01*
X40552Y118732D01*
X42688Y122728D01*
X44003Y127063D01*
X44447Y131572D01*
X44003Y136081D01*
X42688Y140416D01*
X40552Y144412D01*
X37678Y147914D01*
X34176Y150788D01*
X30180Y152924D01*
X25845Y154239D01*
X21336Y154683D01*
X16827Y154239D01*
X12492Y152924D01*
X8496Y150788D01*
X4994Y147914D01*
X4196Y146942D01*
X3000Y147369D01*
Y513000D01*
X4000Y514000D01*
X62000D01*
X64000Y512000D01*
D02*
G37*
G36*
X71000Y180002D02*
X78000Y173000D01*
X92102Y173000D01*
X93000Y172102D01*
X93000Y95898D01*
X92102Y95000D01*
X82898Y95000D01*
X82000Y95898D01*
X82000Y122000D01*
X73246Y130754D01*
Y146724D01*
X64000Y155971D01*
X64000Y170000D01*
X55000Y179000D01*
X55000Y238000D01*
X57000Y240000D01*
X71000Y240000D01*
X71000Y180002D01*
D02*
G37*
G36*
X234000Y97000D02*
Y94400D01*
X233800D01*
Y70187D01*
X233800Y69400D01*
X234000Y69000D01*
X234904Y69000D01*
X291000Y69000D01*
X298000Y62000D01*
X317409D01*
X318000Y61883D01*
X318591Y62000D01*
X357000D01*
X367000Y52000D01*
Y38296D01*
X366941Y38000D01*
Y14059D01*
X345000D01*
Y34000D01*
X340000Y39000D01*
X263000D01*
X257000Y45000D01*
X254296D01*
X254000Y45059D01*
X254000Y45059D01*
X225466D01*
X202766Y68340D01*
X203181Y69540D01*
X204563Y69722D01*
X207604Y70981D01*
X210215Y72985D01*
X212219Y75596D01*
X213478Y78637D01*
X213908Y81900D01*
X213478Y85163D01*
X212219Y88204D01*
X210215Y90815D01*
X207604Y92819D01*
X204563Y94078D01*
X201300Y94508D01*
X198037Y94078D01*
X194996Y92819D01*
X192385Y90815D01*
X190381Y88204D01*
X189122Y85163D01*
X188692Y81900D01*
X189122Y78637D01*
X189752Y77115D01*
X189047Y76059D01*
X156000Y76059D01*
Y104000D01*
X161000Y109000D01*
X222000D01*
X234000Y97000D01*
D02*
G37*
G36*
X124000Y73000D02*
X192374Y73000D01*
X192385Y72985D01*
X194996Y70981D01*
X196542Y70341D01*
X224176Y42000D01*
X254000D01*
X262000Y34000D01*
Y11000D01*
X370000D01*
Y38000D01*
X391000D01*
X392000Y37000D01*
Y3000D01*
X174186D01*
X173565Y4108D01*
X175450Y7184D01*
X177860Y13001D01*
X179330Y19123D01*
X179824Y25400D01*
X179330Y31677D01*
X177860Y37799D01*
X175450Y43616D01*
X172161Y48984D01*
X168072Y53772D01*
X163284Y57861D01*
X157916Y61150D01*
X152099Y63560D01*
X145977Y65030D01*
X139700Y65524D01*
X133423Y65030D01*
X127301Y63560D01*
X121484Y61150D01*
X116116Y57861D01*
X111328Y53772D01*
X107239Y48984D01*
X103949Y43616D01*
X101540Y37799D01*
X100070Y31677D01*
X99576Y25400D01*
X100070Y19123D01*
X101540Y13001D01*
X103949Y7184D01*
X105835Y4108D01*
X105214Y3000D01*
X3000D01*
Y61000D01*
X78000Y61000D01*
X108000Y91000D01*
X108000Y97102D01*
X108898Y98000D01*
X124000D01*
Y73000D01*
D02*
G37*
%LPC*%
G36*
X646000Y521000D02*
X624000D01*
Y495000D01*
X646000D01*
Y521000D01*
D02*
G37*
G36*
X427560D02*
X405560D01*
Y495000D01*
X427560D01*
Y521000D01*
D02*
G37*
G36*
X609600Y521095D02*
X606728Y520717D01*
X604053Y519608D01*
X601755Y517845D01*
X599991Y515547D01*
X598883Y512872D01*
X598505Y510000D01*
Y506000D01*
X598883Y503128D01*
X599991Y500452D01*
X601755Y498155D01*
X604053Y496391D01*
X606728Y495283D01*
X609600Y494905D01*
X612472Y495283D01*
X615147Y496391D01*
X617445Y498155D01*
X619208Y500452D01*
X620317Y503128D01*
X620695Y506000D01*
Y510000D01*
X620317Y512872D01*
X619208Y515547D01*
X617445Y517845D01*
X615147Y519608D01*
X612472Y520717D01*
X609600Y521095D01*
D02*
G37*
G36*
X584200D02*
X581328Y520717D01*
X578653Y519608D01*
X576355Y517845D01*
X574591Y515547D01*
X573483Y512872D01*
X573105Y510000D01*
Y506000D01*
X573483Y503128D01*
X574591Y500452D01*
X576355Y498155D01*
X578653Y496391D01*
X581328Y495283D01*
X584200Y494905D01*
X587072Y495283D01*
X589747Y496391D01*
X592045Y498155D01*
X593809Y500452D01*
X594917Y503128D01*
X595295Y506000D01*
Y510000D01*
X594917Y512872D01*
X593809Y515547D01*
X592045Y517845D01*
X589747Y519608D01*
X587072Y520717D01*
X584200Y521095D01*
D02*
G37*
G36*
X558800D02*
X555928Y520717D01*
X553253Y519608D01*
X550955Y517845D01*
X549192Y515547D01*
X548083Y512872D01*
X547705Y510000D01*
Y506000D01*
X548083Y503128D01*
X549192Y500452D01*
X550955Y498155D01*
X553253Y496391D01*
X555928Y495283D01*
X558800Y494905D01*
X561672Y495283D01*
X564347Y496391D01*
X566645Y498155D01*
X568409Y500452D01*
X569517Y503128D01*
X569895Y506000D01*
Y510000D01*
X569517Y512872D01*
X568409Y515547D01*
X566645Y517845D01*
X564347Y519608D01*
X561672Y520717D01*
X558800Y521095D01*
D02*
G37*
G36*
X533400D02*
X530528Y520717D01*
X527853Y519608D01*
X525555Y517845D01*
X523792Y515547D01*
X522683Y512872D01*
X522305Y510000D01*
Y506000D01*
X522683Y503128D01*
X523792Y500452D01*
X525555Y498155D01*
X527853Y496391D01*
X530528Y495283D01*
X533400Y494905D01*
X536272Y495283D01*
X538947Y496391D01*
X541245Y498155D01*
X543008Y500452D01*
X544117Y503128D01*
X544495Y506000D01*
Y510000D01*
X544117Y512872D01*
X543008Y515547D01*
X541245Y517845D01*
X538947Y519608D01*
X536272Y520717D01*
X533400Y521095D01*
D02*
G37*
G36*
X508000D02*
X505128Y520717D01*
X502453Y519608D01*
X500155Y517845D01*
X498391Y515547D01*
X497283Y512872D01*
X496905Y510000D01*
Y506000D01*
X497283Y503128D01*
X498391Y500452D01*
X500155Y498155D01*
X502453Y496391D01*
X505128Y495283D01*
X508000Y494905D01*
X510872Y495283D01*
X513547Y496391D01*
X515845Y498155D01*
X517608Y500452D01*
X518717Y503128D01*
X519095Y506000D01*
Y510000D01*
X518717Y512872D01*
X517608Y515547D01*
X515845Y517845D01*
X513547Y519608D01*
X510872Y520717D01*
X508000Y521095D01*
D02*
G37*
G36*
X482600D02*
X479728Y520717D01*
X477053Y519608D01*
X474755Y517845D01*
X472991Y515547D01*
X471883Y512872D01*
X471505Y510000D01*
Y506000D01*
X471883Y503128D01*
X472991Y500452D01*
X474755Y498155D01*
X477053Y496391D01*
X479728Y495283D01*
X482600Y494905D01*
X485472Y495283D01*
X488147Y496391D01*
X490445Y498155D01*
X492209Y500452D01*
X493317Y503128D01*
X493695Y506000D01*
Y510000D01*
X493317Y512872D01*
X492209Y515547D01*
X490445Y517845D01*
X488147Y519608D01*
X485472Y520717D01*
X482600Y521095D01*
D02*
G37*
G36*
X457200D02*
X454328Y520717D01*
X451653Y519608D01*
X449355Y517845D01*
X447592Y515547D01*
X446483Y512872D01*
X446105Y510000D01*
Y506000D01*
X446483Y503128D01*
X447592Y500452D01*
X449355Y498155D01*
X451653Y496391D01*
X454328Y495283D01*
X457200Y494905D01*
X460072Y495283D01*
X462747Y496391D01*
X465045Y498155D01*
X466809Y500452D01*
X467917Y503128D01*
X468295Y506000D01*
Y510000D01*
X467917Y512872D01*
X466809Y515547D01*
X465045Y517845D01*
X462747Y519608D01*
X460072Y520717D01*
X457200Y521095D01*
D02*
G37*
G36*
X391160D02*
X388288Y520717D01*
X385613Y519608D01*
X383315Y517845D01*
X381552Y515547D01*
X380443Y512872D01*
X380065Y510000D01*
Y506000D01*
X380443Y503128D01*
X381552Y500452D01*
X383315Y498155D01*
X385613Y496391D01*
X388288Y495283D01*
X391160Y494905D01*
X394032Y495283D01*
X396707Y496391D01*
X399005Y498155D01*
X400769Y500452D01*
X401877Y503128D01*
X402255Y506000D01*
Y510000D01*
X401877Y512872D01*
X400769Y515547D01*
X399005Y517845D01*
X396707Y519608D01*
X394032Y520717D01*
X391160Y521095D01*
D02*
G37*
G36*
X365760D02*
X362888Y520717D01*
X360213Y519608D01*
X357915Y517845D01*
X356152Y515547D01*
X355043Y512872D01*
X354665Y510000D01*
Y506000D01*
X355043Y503128D01*
X356152Y500452D01*
X357915Y498155D01*
X360213Y496391D01*
X362888Y495283D01*
X365760Y494905D01*
X368632Y495283D01*
X371307Y496391D01*
X373605Y498155D01*
X375368Y500452D01*
X376477Y503128D01*
X376855Y506000D01*
Y510000D01*
X376477Y512872D01*
X375368Y515547D01*
X373605Y517845D01*
X371307Y519608D01*
X368632Y520717D01*
X365760Y521095D01*
D02*
G37*
G36*
X340360D02*
X337488Y520717D01*
X334813Y519608D01*
X332515Y517845D01*
X330751Y515547D01*
X329643Y512872D01*
X329265Y510000D01*
Y506000D01*
X329643Y503128D01*
X330751Y500452D01*
X332515Y498155D01*
X334813Y496391D01*
X337488Y495283D01*
X340360Y494905D01*
X343232Y495283D01*
X345907Y496391D01*
X348205Y498155D01*
X349968Y500452D01*
X351077Y503128D01*
X351455Y506000D01*
Y510000D01*
X351077Y512872D01*
X349968Y515547D01*
X348205Y517845D01*
X345907Y519608D01*
X343232Y520717D01*
X340360Y521095D01*
D02*
G37*
G36*
X289560D02*
X286688Y520717D01*
X284013Y519608D01*
X281715Y517845D01*
X279951Y515547D01*
X278843Y512872D01*
X278465Y510000D01*
Y506000D01*
X278843Y503128D01*
X279951Y500452D01*
X281715Y498155D01*
X284013Y496391D01*
X286688Y495283D01*
X289560Y494905D01*
X292432Y495283D01*
X295107Y496391D01*
X297405Y498155D01*
X299168Y500452D01*
X300277Y503128D01*
X300655Y506000D01*
Y510000D01*
X300277Y512872D01*
X299168Y515547D01*
X297405Y517845D01*
X295107Y519608D01*
X292432Y520717D01*
X289560Y521095D01*
D02*
G37*
G36*
X152400Y527092D02*
X148675Y526725D01*
X145094Y525639D01*
X141793Y523874D01*
X138900Y521500D01*
X136526Y518607D01*
X134761Y515306D01*
X133675Y511725D01*
X133308Y508000D01*
X133675Y504275D01*
X134761Y500694D01*
X136526Y497393D01*
X138900Y494500D01*
X141793Y492126D01*
X145094Y490361D01*
X148675Y489275D01*
X152400Y488908D01*
X156125Y489275D01*
X159706Y490361D01*
X163007Y492126D01*
X165900Y494500D01*
X168274Y497393D01*
X170039Y500694D01*
X171125Y504275D01*
X171492Y508000D01*
X171125Y511725D01*
X170039Y515306D01*
X168274Y518607D01*
X165900Y521500D01*
X163007Y523874D01*
X159706Y525639D01*
X156125Y526725D01*
X152400Y527092D01*
D02*
G37*
G36*
X675000Y480000D02*
X649000D01*
Y458000D01*
X675000D01*
Y480000D01*
D02*
G37*
G36*
X664000Y454695D02*
X660000D01*
X657128Y454317D01*
X654453Y453209D01*
X652155Y451445D01*
X650391Y449147D01*
X649283Y446472D01*
X648905Y443600D01*
X649283Y440728D01*
X650391Y438052D01*
X652155Y435755D01*
X654453Y433992D01*
X657128Y432883D01*
X660000Y432505D01*
X664000D01*
X666872Y432883D01*
X669548Y433992D01*
X671845Y435755D01*
X673608Y438052D01*
X674717Y440728D01*
X675095Y443600D01*
X674717Y446472D01*
X673608Y449147D01*
X671845Y451445D01*
X669548Y453209D01*
X666872Y454317D01*
X664000Y454695D01*
D02*
G37*
G36*
Y429295D02*
X660000D01*
X657128Y428917D01*
X654453Y427808D01*
X652155Y426045D01*
X650391Y423747D01*
X649283Y421072D01*
X648905Y418200D01*
X649283Y415328D01*
X650391Y412653D01*
X652155Y410355D01*
X654453Y408591D01*
X657128Y407483D01*
X660000Y407105D01*
X664000D01*
X666872Y407483D01*
X669548Y408591D01*
X671845Y410355D01*
X673608Y412653D01*
X674717Y415328D01*
X675095Y418200D01*
X674717Y421072D01*
X673608Y423747D01*
X671845Y426045D01*
X669548Y427808D01*
X666872Y428917D01*
X664000Y429295D01*
D02*
G37*
G36*
X148000Y380895D02*
X144000D01*
X141128Y380517D01*
X138453Y379408D01*
X136155Y377645D01*
X134391Y375348D01*
X133283Y372672D01*
X132905Y369800D01*
X133283Y366928D01*
X134391Y364253D01*
X136155Y361955D01*
X138453Y360191D01*
X141128Y359083D01*
X144000Y358705D01*
X148000D01*
X150872Y359083D01*
X153547Y360191D01*
X155845Y361955D01*
X157608Y364253D01*
X158717Y366928D01*
X159095Y369800D01*
X158717Y372672D01*
X157608Y375348D01*
X155845Y377645D01*
X153547Y379408D01*
X150872Y380517D01*
X148000Y380895D01*
D02*
G37*
G36*
X598424Y275456D02*
X595161Y275026D01*
X592120Y273767D01*
X589509Y271763D01*
X587505Y269152D01*
X586246Y266111D01*
X585816Y262848D01*
X586246Y259585D01*
X587505Y256544D01*
X589509Y253933D01*
X592120Y251929D01*
X595161Y250670D01*
X598424Y250240D01*
X601687Y250670D01*
X604728Y251929D01*
X607339Y253933D01*
X609343Y256544D01*
X610602Y259585D01*
X611032Y262848D01*
X610602Y266111D01*
X609343Y269152D01*
X607339Y271763D01*
X604728Y273767D01*
X601687Y275026D01*
X598424Y275456D01*
D02*
G37*
G36*
X325000Y249118D02*
X322659Y248652D01*
X320674Y247326D01*
X319348Y245341D01*
X318883Y243000D01*
X319348Y240659D01*
X320674Y238674D01*
X320922Y238509D01*
Y231431D01*
X319652Y230389D01*
X318500Y230618D01*
X316159Y230152D01*
X314174Y228826D01*
X312848Y226841D01*
X312383Y224500D01*
X312440Y224208D01*
X300646Y212414D01*
X300069Y211550D01*
X298741Y211371D01*
X298570Y211418D01*
X298295Y211775D01*
X295997Y213538D01*
X293322Y214647D01*
X290450Y215025D01*
X287578Y214647D01*
X284903Y213538D01*
X282605Y211775D01*
X280842Y209478D01*
X279733Y206802D01*
X279355Y203930D01*
Y199930D01*
X279733Y197058D01*
X280842Y194382D01*
X282605Y192085D01*
X284163Y190889D01*
X284330Y189260D01*
X282649Y187578D01*
X253500D01*
X251939Y187268D01*
X250616Y186384D01*
X250616Y186384D01*
X247292Y183060D01*
X247000Y183118D01*
X244659Y182652D01*
X242674Y181326D01*
X241348Y179341D01*
X240882Y177000D01*
X241348Y174659D01*
X242674Y172674D01*
X244659Y171348D01*
X247000Y170882D01*
X249341Y171348D01*
X251326Y172674D01*
X252652Y174659D01*
X253118Y177000D01*
X253060Y177292D01*
X255189Y179422D01*
X283169D01*
X284144Y179228D01*
X285705Y179538D01*
X287028Y180422D01*
X293334Y186728D01*
X293334Y186728D01*
X294218Y188051D01*
X294528Y189612D01*
X294528Y189612D01*
Y189713D01*
X295997Y190322D01*
X298182Y191998D01*
X299097Y191813D01*
X299452Y191692D01*
Y177465D01*
X299204Y177300D01*
X297878Y175315D01*
X297412Y172974D01*
X297878Y170633D01*
X299204Y168648D01*
X301189Y167322D01*
X303530Y166856D01*
X305871Y167322D01*
X307856Y168648D01*
X309182Y170633D01*
X309648Y172974D01*
X309182Y175315D01*
X307856Y177300D01*
X307608Y177465D01*
Y190788D01*
X308878Y191414D01*
X310303Y190322D01*
X312978Y189213D01*
X315850Y188835D01*
X318722Y189213D01*
X321397Y190322D01*
X322133Y190886D01*
X323272Y190324D01*
Y177206D01*
X322008Y175315D01*
X321543Y172974D01*
X322008Y170633D01*
X323334Y168648D01*
X325319Y167322D01*
X327660Y166856D01*
X330001Y167322D01*
X331986Y168648D01*
X333312Y170633D01*
X333778Y172974D01*
X333312Y175315D01*
X331986Y177300D01*
X331428Y177672D01*
Y192574D01*
X332698Y193005D01*
X333405Y192085D01*
X335703Y190322D01*
X338378Y189213D01*
X341250Y188835D01*
X344122Y189213D01*
X346797Y190322D01*
X349095Y192085D01*
X350858Y194382D01*
X351967Y197058D01*
X352345Y199930D01*
Y203930D01*
X351967Y206802D01*
X350858Y209478D01*
X349095Y211775D01*
X346797Y213538D01*
X344122Y214647D01*
X341250Y215025D01*
X338378Y214647D01*
X335703Y213538D01*
X333405Y211775D01*
X332377Y210436D01*
X332020Y210384D01*
X330894Y210589D01*
X330234Y211577D01*
X330234Y211577D01*
X329078Y212733D01*
Y238509D01*
X329326Y238674D01*
X330652Y240659D01*
X331118Y243000D01*
X330652Y245341D01*
X329326Y247326D01*
X327341Y248652D01*
X325000Y249118D01*
D02*
G37*
G36*
X114074Y221529D02*
X111733Y221063D01*
X109748Y219737D01*
X108422Y217752D01*
X107956Y215411D01*
X108422Y213070D01*
X109748Y211085D01*
X111733Y209759D01*
X114074Y209294D01*
X114181Y209315D01*
X117109Y206388D01*
X117109Y206388D01*
X118432Y205504D01*
X119711Y205249D01*
Y203954D01*
X118774Y203768D01*
X117451Y202884D01*
X117451Y202884D01*
X114410Y199842D01*
X114118Y199900D01*
X111777Y199435D01*
X109792Y198109D01*
X108466Y196124D01*
X108000Y193783D01*
X108466Y191442D01*
X109792Y189457D01*
X111777Y188131D01*
X114118Y187665D01*
X116459Y188131D01*
X118444Y189457D01*
X119770Y191442D01*
X120236Y193783D01*
X120177Y194075D01*
X122024Y195922D01*
X152209D01*
X152374Y195674D01*
X154359Y194348D01*
X156700Y193883D01*
X159041Y194348D01*
X161026Y195674D01*
X162352Y197659D01*
X162817Y200000D01*
X162352Y202341D01*
X161930Y202972D01*
X162846Y203888D01*
X163899Y203184D01*
X166240Y202718D01*
X168581Y203184D01*
X170566Y204510D01*
X171892Y206495D01*
X172358Y208836D01*
X171892Y211177D01*
X170566Y213162D01*
X168581Y214488D01*
X166240Y214953D01*
X163899Y214488D01*
X162196Y213350D01*
X121682D01*
X120097Y214935D01*
X120192Y215411D01*
X119726Y217752D01*
X118400Y219737D01*
X116415Y221063D01*
X114074Y221529D01*
D02*
G37*
G36*
X244602Y223542D02*
X204224D01*
X201883Y223076D01*
X199898Y221750D01*
X182836Y204687D01*
X182659Y204652D01*
X180674Y203326D01*
X179348Y201341D01*
X178883Y199000D01*
X179348Y196659D01*
X180674Y194674D01*
X182659Y193348D01*
X185000Y192882D01*
X185800D01*
X188141Y193348D01*
X190126Y194674D01*
X206758Y211306D01*
X244602D01*
X246943Y211772D01*
X248928Y213098D01*
X250254Y215083D01*
X250720Y217424D01*
X250254Y219765D01*
X248928Y221750D01*
X246943Y223076D01*
X244602Y223542D01*
D02*
G37*
G36*
X595250Y215025D02*
X592378Y214647D01*
X589703Y213538D01*
X587405Y211775D01*
X585642Y209478D01*
X584533Y206802D01*
X584155Y203930D01*
Y199930D01*
X584533Y197058D01*
X585642Y194382D01*
X587405Y192085D01*
X589703Y190322D01*
X592378Y189213D01*
X595250Y188835D01*
X598122Y189213D01*
X600797Y190322D01*
X603095Y192085D01*
X604859Y194382D01*
X605967Y197058D01*
X606345Y199930D01*
Y203930D01*
X605967Y206802D01*
X604859Y209478D01*
X603095Y211775D01*
X600797Y213538D01*
X598122Y214647D01*
X595250Y215025D01*
D02*
G37*
G36*
X569850D02*
X566978Y214647D01*
X564303Y213538D01*
X562005Y211775D01*
X560242Y209478D01*
X559133Y206802D01*
X558755Y203930D01*
Y199930D01*
X559133Y197058D01*
X560242Y194382D01*
X562005Y192085D01*
X564303Y190322D01*
X566978Y189213D01*
X569850Y188835D01*
X572722Y189213D01*
X575397Y190322D01*
X577695Y192085D01*
X579459Y194382D01*
X580567Y197058D01*
X580945Y199930D01*
Y203930D01*
X580567Y206802D01*
X579459Y209478D01*
X577695Y211775D01*
X575397Y213538D01*
X572722Y214647D01*
X569850Y215025D01*
D02*
G37*
G36*
X544450D02*
X541578Y214647D01*
X538903Y213538D01*
X536605Y211775D01*
X534841Y209478D01*
X533733Y206802D01*
X533355Y203930D01*
Y199930D01*
X533733Y197058D01*
X534841Y194382D01*
X536605Y192085D01*
X538903Y190322D01*
X541578Y189213D01*
X544450Y188835D01*
X547322Y189213D01*
X549997Y190322D01*
X552295Y192085D01*
X554058Y194382D01*
X555167Y197058D01*
X555545Y199930D01*
Y203930D01*
X555167Y206802D01*
X554058Y209478D01*
X552295Y211775D01*
X549997Y213538D01*
X547322Y214647D01*
X544450Y215025D01*
D02*
G37*
G36*
X519050D02*
X516178Y214647D01*
X513503Y213538D01*
X511205Y211775D01*
X509441Y209478D01*
X508333Y206802D01*
X507955Y203930D01*
Y199930D01*
X508333Y197058D01*
X509441Y194382D01*
X511205Y192085D01*
X513503Y190322D01*
X516178Y189213D01*
X519050Y188835D01*
X521922Y189213D01*
X524597Y190322D01*
X526895Y192085D01*
X528658Y194382D01*
X529767Y197058D01*
X530145Y199930D01*
Y203930D01*
X529767Y206802D01*
X528658Y209478D01*
X526895Y211775D01*
X524597Y213538D01*
X521922Y214647D01*
X519050Y215025D01*
D02*
G37*
G36*
X458000Y220059D02*
X456830Y219826D01*
X455837Y219163D01*
X455837Y219163D01*
X451837Y215163D01*
X451174Y214170D01*
X450941Y213000D01*
X450941Y213000D01*
X450941Y163000D01*
X451174Y161829D01*
X451837Y160837D01*
X451837Y160837D01*
X473941Y138733D01*
X473941Y134396D01*
X474019Y134004D01*
X474045Y133604D01*
X474135Y133424D01*
X474174Y133226D01*
X474397Y132893D01*
X474573Y132534D01*
X475187Y131735D01*
X475987Y129803D01*
X476286Y127529D01*
Y123931D01*
X475987Y121657D01*
X475187Y119725D01*
X474574Y118926D01*
X474397Y118567D01*
X474174Y118235D01*
X474135Y118037D01*
X474046Y117856D01*
X474019Y117456D01*
X473941Y117064D01*
X473941Y103000D01*
X474174Y101830D01*
X474837Y100837D01*
X474837Y100837D01*
X479837Y95837D01*
X480830Y95174D01*
X482000Y94941D01*
X482000Y94941D01*
X497000Y94941D01*
X497000Y94941D01*
X498171Y95174D01*
X499163Y95837D01*
X499163Y95837D01*
X505163Y101837D01*
X505826Y102829D01*
X506059Y104000D01*
X506059Y104000D01*
Y115870D01*
X506039Y115970D01*
X506052Y116070D01*
X505923Y116552D01*
X505826Y117041D01*
X505770Y117125D01*
X505743Y117223D01*
X505440Y117618D01*
X505163Y118033D01*
X505078Y118089D01*
X505017Y118170D01*
X504585Y118419D01*
X504170Y118696D01*
X503966Y119891D01*
X504367Y120858D01*
X504745Y123730D01*
Y127730D01*
X504367Y130602D01*
X503966Y131569D01*
X504170Y132764D01*
X504585Y133041D01*
X505017Y133290D01*
X505078Y133371D01*
X505163Y133427D01*
X505440Y133842D01*
X505743Y134237D01*
X505770Y134335D01*
X505826Y134419D01*
X505923Y134908D01*
X506052Y135390D01*
X506039Y135490D01*
X506059Y135590D01*
Y152000D01*
X506059Y152000D01*
X505826Y153170D01*
X505163Y154163D01*
X486059Y173267D01*
X486059Y190454D01*
X487198Y191016D01*
X488103Y190322D01*
X490778Y189213D01*
X493650Y188835D01*
X496522Y189213D01*
X499197Y190322D01*
X501495Y192085D01*
X503259Y194382D01*
X504367Y197058D01*
X504745Y199930D01*
Y203930D01*
X504367Y206802D01*
X503259Y209478D01*
X501495Y211775D01*
X499197Y213538D01*
X496522Y214647D01*
X493650Y215025D01*
X490778Y214647D01*
X488103Y213538D01*
X487274Y212903D01*
X487136Y212914D01*
X485960Y213496D01*
X485826Y214171D01*
X485163Y215163D01*
X485163Y215163D01*
X481163Y219163D01*
X480171Y219826D01*
X479000Y220059D01*
X479000Y220059D01*
X458000Y220059D01*
X458000Y220059D01*
D02*
G37*
G36*
X417450Y215025D02*
X414578Y214647D01*
X411903Y213538D01*
X409605Y211775D01*
X407841Y209478D01*
X406733Y206802D01*
X406355Y203930D01*
Y199930D01*
X406733Y197058D01*
X407841Y194382D01*
X409605Y192085D01*
X411903Y190322D01*
X414578Y189213D01*
X417450Y188835D01*
X420322Y189213D01*
X422997Y190322D01*
X425295Y192085D01*
X427058Y194382D01*
X428167Y197058D01*
X428545Y199930D01*
Y203930D01*
X428167Y206802D01*
X427058Y209478D01*
X425295Y211775D01*
X422997Y213538D01*
X420322Y214647D01*
X417450Y215025D01*
D02*
G37*
G36*
X392050D02*
X389178Y214647D01*
X386503Y213538D01*
X384205Y211775D01*
X382441Y209478D01*
X381333Y206802D01*
X380955Y203930D01*
Y199930D01*
X381333Y197058D01*
X382441Y194382D01*
X384205Y192085D01*
X386503Y190322D01*
X389178Y189213D01*
X392050Y188835D01*
X394922Y189213D01*
X397597Y190322D01*
X399895Y192085D01*
X401659Y194382D01*
X402767Y197058D01*
X403145Y199930D01*
Y203930D01*
X402767Y206802D01*
X401659Y209478D01*
X399895Y211775D01*
X397597Y213538D01*
X394922Y214647D01*
X392050Y215025D01*
D02*
G37*
G36*
X366650D02*
X363778Y214647D01*
X361103Y213538D01*
X358805Y211775D01*
X357042Y209478D01*
X355933Y206802D01*
X355555Y203930D01*
Y199930D01*
X355933Y197058D01*
X357042Y194382D01*
X358805Y192085D01*
X361103Y190322D01*
X363778Y189213D01*
X366650Y188835D01*
X369522Y189213D01*
X372197Y190322D01*
X374495Y192085D01*
X376259Y194382D01*
X377367Y197058D01*
X377745Y199930D01*
Y203930D01*
X377367Y206802D01*
X376259Y209478D01*
X374495Y211775D01*
X372197Y213538D01*
X369522Y214647D01*
X366650Y215025D01*
D02*
G37*
G36*
X569850Y138825D02*
X566978Y138447D01*
X564303Y137338D01*
X562005Y135575D01*
X560242Y133278D01*
X559133Y130602D01*
X558755Y127730D01*
Y123730D01*
X559133Y120858D01*
X560242Y118182D01*
X562005Y115885D01*
X564303Y114122D01*
X566978Y113013D01*
X569850Y112635D01*
X572722Y113013D01*
X575397Y114122D01*
X577695Y115885D01*
X579459Y118182D01*
X580567Y120858D01*
X580945Y123730D01*
Y127730D01*
X580567Y130602D01*
X579459Y133278D01*
X577695Y135575D01*
X575397Y137338D01*
X572722Y138447D01*
X569850Y138825D01*
D02*
G37*
G36*
X544450D02*
X541578Y138447D01*
X538903Y137338D01*
X536605Y135575D01*
X534841Y133278D01*
X533733Y130602D01*
X533355Y127730D01*
Y123730D01*
X533733Y120858D01*
X534841Y118182D01*
X536605Y115885D01*
X538903Y114122D01*
X541578Y113013D01*
X544450Y112635D01*
X547322Y113013D01*
X549997Y114122D01*
X552295Y115885D01*
X554058Y118182D01*
X555167Y120858D01*
X555545Y123730D01*
Y127730D01*
X555167Y130602D01*
X554058Y133278D01*
X552295Y135575D01*
X549997Y137338D01*
X547322Y138447D01*
X544450Y138825D01*
D02*
G37*
G36*
X519050D02*
X516178Y138447D01*
X513503Y137338D01*
X511205Y135575D01*
X509441Y133278D01*
X508333Y130602D01*
X507955Y127730D01*
Y123730D01*
X508333Y120858D01*
X509441Y118182D01*
X511205Y115885D01*
X513503Y114122D01*
X516178Y113013D01*
X519050Y112635D01*
X521922Y113013D01*
X524597Y114122D01*
X526895Y115885D01*
X528658Y118182D01*
X529767Y120858D01*
X530145Y123730D01*
Y127730D01*
X529767Y130602D01*
X528658Y133278D01*
X526895Y135575D01*
X524597Y137338D01*
X521922Y138447D01*
X519050Y138825D01*
D02*
G37*
G36*
X442850D02*
X439978Y138447D01*
X437303Y137338D01*
X435005Y135575D01*
X433242Y133278D01*
X432133Y130602D01*
X431755Y127730D01*
Y123730D01*
X432133Y120858D01*
X433242Y118182D01*
X435005Y115885D01*
X437303Y114122D01*
X439978Y113013D01*
X442850Y112635D01*
X445722Y113013D01*
X448397Y114122D01*
X450695Y115885D01*
X452458Y118182D01*
X453567Y120858D01*
X453945Y123730D01*
Y127730D01*
X453567Y130602D01*
X452458Y133278D01*
X450695Y135575D01*
X448397Y137338D01*
X445722Y138447D01*
X442850Y138825D01*
D02*
G37*
G36*
X417450D02*
X414578Y138447D01*
X411903Y137338D01*
X409605Y135575D01*
X407841Y133278D01*
X406733Y130602D01*
X406355Y127730D01*
Y123730D01*
X406733Y120858D01*
X407841Y118182D01*
X409605Y115885D01*
X411903Y114122D01*
X414578Y113013D01*
X417450Y112635D01*
X420322Y113013D01*
X422997Y114122D01*
X425295Y115885D01*
X427058Y118182D01*
X428167Y120858D01*
X428545Y123730D01*
Y127730D01*
X428167Y130602D01*
X427058Y133278D01*
X425295Y135575D01*
X422997Y137338D01*
X420322Y138447D01*
X417450Y138825D01*
D02*
G37*
G36*
X392050D02*
X389178Y138447D01*
X386503Y137338D01*
X384205Y135575D01*
X382441Y133278D01*
X381333Y130602D01*
X380955Y127730D01*
Y123730D01*
X381333Y120858D01*
X382441Y118182D01*
X384205Y115885D01*
X386503Y114122D01*
X389178Y113013D01*
X392050Y112635D01*
X394922Y113013D01*
X397597Y114122D01*
X399895Y115885D01*
X401659Y118182D01*
X402767Y120858D01*
X403145Y123730D01*
Y127730D01*
X402767Y130602D01*
X401659Y133278D01*
X399895Y135575D01*
X397597Y137338D01*
X394922Y138447D01*
X392050Y138825D01*
D02*
G37*
G36*
X366650D02*
X363778Y138447D01*
X361103Y137338D01*
X358805Y135575D01*
X357042Y133278D01*
X355933Y130602D01*
X355555Y127730D01*
Y123730D01*
X355933Y120858D01*
X357042Y118182D01*
X358805Y115885D01*
X361103Y114122D01*
X363778Y113013D01*
X366650Y112635D01*
X369522Y113013D01*
X372197Y114122D01*
X374495Y115885D01*
X376259Y118182D01*
X377367Y120858D01*
X377745Y123730D01*
Y127730D01*
X377367Y130602D01*
X376259Y133278D01*
X374495Y135575D01*
X372197Y137338D01*
X369522Y138447D01*
X366650Y138825D01*
D02*
G37*
G36*
X341250D02*
X338378Y138447D01*
X335703Y137338D01*
X333405Y135575D01*
X331642Y133278D01*
X330533Y130602D01*
X330155Y127730D01*
Y123730D01*
X330533Y120858D01*
X331642Y118182D01*
X333405Y115885D01*
X335703Y114122D01*
X338378Y113013D01*
X341250Y112635D01*
X344122Y113013D01*
X346797Y114122D01*
X349095Y115885D01*
X350858Y118182D01*
X351967Y120858D01*
X352345Y123730D01*
Y127730D01*
X351967Y130602D01*
X350858Y133278D01*
X349095Y135575D01*
X346797Y137338D01*
X344122Y138447D01*
X341250Y138825D01*
D02*
G37*
G36*
X315850D02*
X312978Y138447D01*
X310303Y137338D01*
X308005Y135575D01*
X306241Y133278D01*
X305133Y130602D01*
X304755Y127730D01*
Y123730D01*
X305133Y120858D01*
X306241Y118182D01*
X308005Y115885D01*
X310303Y114122D01*
X312978Y113013D01*
X315850Y112635D01*
X318722Y113013D01*
X321397Y114122D01*
X323695Y115885D01*
X325458Y118182D01*
X326567Y120858D01*
X326945Y123730D01*
Y127730D01*
X326567Y130602D01*
X325458Y133278D01*
X323695Y135575D01*
X321397Y137338D01*
X318722Y138447D01*
X315850Y138825D01*
D02*
G37*
G36*
X290450D02*
X287578Y138447D01*
X284903Y137338D01*
X282605Y135575D01*
X280842Y133278D01*
X279733Y130602D01*
X279355Y127730D01*
Y123730D01*
X279733Y120858D01*
X280842Y118182D01*
X282605Y115885D01*
X284903Y114122D01*
X287578Y113013D01*
X290450Y112635D01*
X293322Y113013D01*
X295997Y114122D01*
X298295Y115885D01*
X300058Y118182D01*
X301167Y120858D01*
X301545Y123730D01*
Y127730D01*
X301167Y130602D01*
X300058Y133278D01*
X298295Y135575D01*
X295997Y137338D01*
X293322Y138447D01*
X290450Y138825D01*
D02*
G37*
%LPD*%
G36*
X479000Y217000D02*
X483000Y213000D01*
X483000Y206963D01*
X482933Y206802D01*
X482555Y203930D01*
Y199930D01*
X482933Y197058D01*
X483000Y196897D01*
X483000Y172000D01*
X503000Y152000D01*
Y135590D01*
X501797Y135182D01*
X501495Y135575D01*
X499197Y137338D01*
X496522Y138447D01*
X493650Y138825D01*
X490778Y138447D01*
X488103Y137338D01*
X485805Y135575D01*
X484041Y133278D01*
X482933Y130602D01*
X482555Y127730D01*
Y123730D01*
X482933Y120858D01*
X484041Y118182D01*
X485805Y115885D01*
X488103Y114122D01*
X490778Y113013D01*
X493650Y112635D01*
X496522Y113013D01*
X499197Y114122D01*
X501495Y115885D01*
X501797Y116278D01*
X503000Y115870D01*
Y104000D01*
X497000Y98000D01*
X482000Y98000D01*
X477000Y103000D01*
X477000Y117064D01*
X477859Y118182D01*
X478967Y120858D01*
X479345Y123730D01*
Y127730D01*
X478967Y130602D01*
X477859Y133278D01*
X477000Y134396D01*
X477000Y140000D01*
X454000Y163000D01*
X454000Y213000D01*
X458000Y217000D01*
X479000Y217000D01*
D02*
G37*
%LPC*%
G36*
X50800Y509439D02*
X47798Y509044D01*
X45000Y507885D01*
X42598Y506042D01*
X40755Y503640D01*
X39596Y500842D01*
X39201Y497840D01*
X39596Y494838D01*
X40755Y492040D01*
X42598Y489638D01*
X45000Y487795D01*
X47798Y486636D01*
X50800Y486241D01*
X53802Y486636D01*
X56600Y487795D01*
X59002Y489638D01*
X60845Y492040D01*
X62004Y494838D01*
X62399Y497840D01*
X62004Y500842D01*
X60845Y503640D01*
X59002Y506042D01*
X56600Y507885D01*
X53802Y509044D01*
X50800Y509439D01*
D02*
G37*
G36*
X36900Y483940D02*
X13900D01*
Y460940D01*
X36900D01*
Y483940D01*
D02*
G37*
G36*
X50800Y484039D02*
X47798Y483644D01*
X45000Y482485D01*
X42598Y480642D01*
X40755Y478240D01*
X39596Y475442D01*
X39201Y472440D01*
X39596Y469438D01*
X40755Y466640D01*
X42598Y464238D01*
X45000Y462395D01*
X47798Y461236D01*
X50800Y460841D01*
X53802Y461236D01*
X56600Y462395D01*
X59002Y464238D01*
X60845Y466640D01*
X62004Y469438D01*
X62399Y472440D01*
X62004Y475442D01*
X60845Y478240D01*
X59002Y480642D01*
X56600Y482485D01*
X53802Y483644D01*
X50800Y484039D01*
D02*
G37*
G36*
X148000Y431695D02*
X144000D01*
X141128Y431317D01*
X138453Y430209D01*
X136155Y428445D01*
X134391Y426147D01*
X133283Y423472D01*
X132905Y420600D01*
X133283Y417728D01*
X134391Y415052D01*
X136155Y412755D01*
X138453Y410992D01*
X141128Y409883D01*
X144000Y409505D01*
X148000D01*
X150872Y409883D01*
X153547Y410992D01*
X155845Y412755D01*
X157608Y415052D01*
X158717Y417728D01*
X159095Y420600D01*
X158717Y423472D01*
X157608Y426147D01*
X155845Y428445D01*
X153547Y430209D01*
X150872Y431317D01*
X148000Y431695D01*
D02*
G37*
G36*
X50800Y423079D02*
X47798Y422684D01*
X45000Y421525D01*
X42598Y419682D01*
X40755Y417280D01*
X39596Y414482D01*
X39201Y411480D01*
X39596Y408478D01*
X40755Y405680D01*
X42598Y403278D01*
X45000Y401435D01*
X47798Y400276D01*
X50800Y399881D01*
X53802Y400276D01*
X56600Y401435D01*
X59002Y403278D01*
X60845Y405680D01*
X62004Y408478D01*
X62399Y411480D01*
X62004Y414482D01*
X60845Y417280D01*
X59002Y419682D01*
X56600Y421525D01*
X53802Y422684D01*
X50800Y423079D01*
D02*
G37*
G36*
X36900Y397580D02*
X13900D01*
Y374580D01*
X36900D01*
Y397580D01*
D02*
G37*
G36*
X50800Y397679D02*
X47798Y397284D01*
X45000Y396125D01*
X42598Y394282D01*
X40755Y391880D01*
X39596Y389082D01*
X39201Y386080D01*
X39596Y383078D01*
X40755Y380280D01*
X42598Y377878D01*
X45000Y376035D01*
X47798Y374876D01*
X50800Y374481D01*
X53802Y374876D01*
X56600Y376035D01*
X59002Y377878D01*
X60845Y380280D01*
X62004Y383078D01*
X62399Y386080D01*
X62004Y389082D01*
X60845Y391880D01*
X59002Y394282D01*
X56600Y396125D01*
X53802Y397284D01*
X50800Y397679D01*
D02*
G37*
G36*
X62300Y353500D02*
X39300D01*
Y330500D01*
X62300D01*
Y353500D01*
D02*
G37*
G36*
X25400Y353599D02*
X22398Y353204D01*
X19600Y352045D01*
X17198Y350202D01*
X15355Y347800D01*
X14196Y345002D01*
X13801Y342000D01*
X14196Y338998D01*
X15355Y336200D01*
X17198Y333798D01*
X19600Y331955D01*
X22398Y330796D01*
X25400Y330401D01*
X28402Y330796D01*
X31200Y331955D01*
X33602Y333798D01*
X35445Y336200D01*
X36604Y338998D01*
X36999Y342000D01*
X36604Y345002D01*
X35445Y347800D01*
X33602Y350202D01*
X31200Y352045D01*
X28402Y353204D01*
X25400Y353599D01*
D02*
G37*
G36*
X50800Y328199D02*
X47798Y327804D01*
X45000Y326645D01*
X42598Y324802D01*
X40755Y322400D01*
X39596Y319602D01*
X39201Y316600D01*
X39596Y313598D01*
X40755Y310800D01*
X42598Y308398D01*
X45000Y306555D01*
X47798Y305396D01*
X50800Y305001D01*
X53802Y305396D01*
X56600Y306555D01*
X59002Y308398D01*
X60845Y310800D01*
X62004Y313598D01*
X62399Y316600D01*
X62004Y319602D01*
X60845Y322400D01*
X59002Y324802D01*
X56600Y326645D01*
X53802Y327804D01*
X50800Y328199D01*
D02*
G37*
G36*
X25400D02*
X22398Y327804D01*
X19600Y326645D01*
X17198Y324802D01*
X15355Y322400D01*
X14196Y319602D01*
X13801Y316600D01*
X14196Y313598D01*
X15355Y310800D01*
X17198Y308398D01*
X19600Y306555D01*
X22398Y305396D01*
X25400Y305001D01*
X28402Y305396D01*
X31200Y306555D01*
X33602Y308398D01*
X35445Y310800D01*
X36604Y313598D01*
X36999Y316600D01*
X36604Y319602D01*
X35445Y322400D01*
X33602Y324802D01*
X31200Y326645D01*
X28402Y327804D01*
X25400Y328199D01*
D02*
G37*
G36*
X28395Y243057D02*
X15595D01*
X13872Y242830D01*
X12266Y242165D01*
X10888Y241107D01*
X9830Y239729D01*
X9165Y238123D01*
X8938Y236400D01*
Y231600D01*
X9165Y229877D01*
X9830Y228272D01*
X10888Y226893D01*
X12266Y225835D01*
X13872Y225170D01*
X15595Y224943D01*
X28395D01*
X30118Y225170D01*
X31723Y225835D01*
X33102Y226893D01*
X34160Y228272D01*
X34825Y229877D01*
X35052Y231600D01*
Y236400D01*
X34825Y238123D01*
X34160Y239729D01*
X33102Y241107D01*
X31723Y242165D01*
X30118Y242830D01*
X28395Y243057D01*
D02*
G37*
G36*
Y177057D02*
X15595D01*
X13872Y176830D01*
X12266Y176165D01*
X10888Y175107D01*
X9830Y173729D01*
X9165Y172123D01*
X8938Y170400D01*
Y165600D01*
X9165Y163877D01*
X9830Y162271D01*
X10888Y160893D01*
X12266Y159835D01*
X13872Y159170D01*
X15595Y158943D01*
X28395D01*
X30118Y159170D01*
X31723Y159835D01*
X33102Y160893D01*
X34160Y162271D01*
X34825Y163877D01*
X35052Y165600D01*
Y170400D01*
X34825Y172123D01*
X34160Y173729D01*
X33102Y175107D01*
X31723Y176165D01*
X30118Y176830D01*
X28395Y177057D01*
D02*
G37*
G36*
X519000Y38400D02*
X497000D01*
Y12400D01*
X519000D01*
Y38400D01*
D02*
G37*
G36*
X584200Y38495D02*
X581328Y38117D01*
X578653Y37009D01*
X576355Y35245D01*
X574591Y32947D01*
X573483Y30272D01*
X573105Y27400D01*
Y23400D01*
X573483Y20528D01*
X574591Y17852D01*
X576355Y15555D01*
X578653Y13792D01*
X581328Y12683D01*
X584200Y12305D01*
X587072Y12683D01*
X589747Y13792D01*
X592045Y15555D01*
X593809Y17852D01*
X594917Y20528D01*
X595295Y23400D01*
Y27400D01*
X594917Y30272D01*
X593809Y32947D01*
X592045Y35245D01*
X589747Y37009D01*
X587072Y38117D01*
X584200Y38495D01*
D02*
G37*
G36*
X558800D02*
X555928Y38117D01*
X553253Y37009D01*
X550955Y35245D01*
X549192Y32947D01*
X548083Y30272D01*
X547705Y27400D01*
Y23400D01*
X548083Y20528D01*
X549192Y17852D01*
X550955Y15555D01*
X553253Y13792D01*
X555928Y12683D01*
X558800Y12305D01*
X561672Y12683D01*
X564347Y13792D01*
X566645Y15555D01*
X568409Y17852D01*
X569517Y20528D01*
X569895Y23400D01*
Y27400D01*
X569517Y30272D01*
X568409Y32947D01*
X566645Y35245D01*
X564347Y37009D01*
X561672Y38117D01*
X558800Y38495D01*
D02*
G37*
G36*
X533400D02*
X530528Y38117D01*
X527853Y37009D01*
X525555Y35245D01*
X523792Y32947D01*
X522683Y30272D01*
X522305Y27400D01*
Y23400D01*
X522683Y20528D01*
X523792Y17852D01*
X525555Y15555D01*
X527853Y13792D01*
X530528Y12683D01*
X533400Y12305D01*
X536272Y12683D01*
X538947Y13792D01*
X541245Y15555D01*
X543008Y17852D01*
X544117Y20528D01*
X544495Y23400D01*
Y27400D01*
X544117Y30272D01*
X543008Y32947D01*
X541245Y35245D01*
X538947Y37009D01*
X536272Y38117D01*
X533400Y38495D01*
D02*
G37*
G36*
X457200D02*
X454328Y38117D01*
X451653Y37009D01*
X449355Y35245D01*
X447592Y32947D01*
X446483Y30272D01*
X446105Y27400D01*
Y23400D01*
X446483Y20528D01*
X447592Y17852D01*
X449355Y15555D01*
X451653Y13792D01*
X454328Y12683D01*
X457200Y12305D01*
X460072Y12683D01*
X462747Y13792D01*
X465045Y15555D01*
X466809Y17852D01*
X467917Y20528D01*
X468295Y23400D01*
Y27400D01*
X467917Y30272D01*
X466809Y32947D01*
X465045Y35245D01*
X462747Y37009D01*
X460072Y38117D01*
X457200Y38495D01*
D02*
G37*
G36*
X431800D02*
X428928Y38117D01*
X426253Y37009D01*
X423955Y35245D01*
X422192Y32947D01*
X421083Y30272D01*
X420705Y27400D01*
Y23400D01*
X421083Y20528D01*
X422192Y17852D01*
X423955Y15555D01*
X426253Y13792D01*
X428928Y12683D01*
X431800Y12305D01*
X434672Y12683D01*
X437347Y13792D01*
X439645Y15555D01*
X441409Y17852D01*
X442517Y20528D01*
X442895Y23400D01*
Y27400D01*
X442517Y30272D01*
X441409Y32947D01*
X439645Y35245D01*
X437347Y37009D01*
X434672Y38117D01*
X431800Y38495D01*
D02*
G37*
G36*
X246300Y29508D02*
X243037Y29078D01*
X239996Y27819D01*
X237385Y25815D01*
X235381Y23204D01*
X234122Y20163D01*
X233692Y16900D01*
X234122Y13637D01*
X235381Y10596D01*
X237385Y7985D01*
X239996Y5981D01*
X243037Y4722D01*
X246300Y4292D01*
X249563Y4722D01*
X252604Y5981D01*
X255215Y7985D01*
X257219Y10596D01*
X258478Y13637D01*
X258908Y16900D01*
X258478Y20163D01*
X257219Y23204D01*
X255215Y25815D01*
X252604Y27819D01*
X249563Y29078D01*
X246300Y29508D01*
D02*
G37*
G36*
X201300D02*
X198037Y29078D01*
X194996Y27819D01*
X192385Y25815D01*
X190381Y23204D01*
X189122Y20163D01*
X188692Y16900D01*
X189122Y13637D01*
X190381Y10596D01*
X192385Y7985D01*
X194996Y5981D01*
X198037Y4722D01*
X201300Y4292D01*
X204563Y4722D01*
X207604Y5981D01*
X210215Y7985D01*
X212219Y10596D01*
X213478Y13637D01*
X213908Y16900D01*
X213478Y20163D01*
X212219Y23204D01*
X210215Y25815D01*
X207604Y27819D01*
X204563Y29078D01*
X201300Y29508D01*
D02*
G37*
%LPD*%
D10*
X188331Y511331D02*
X199500Y522500D01*
X245850D01*
X251206Y517144D01*
X188331Y508927D02*
Y511331D01*
X551000Y438000D02*
X563000Y426000D01*
X573500D01*
X571000Y440000D02*
X572000D01*
X564000Y447000D02*
X571000Y440000D01*
X76200Y458800D02*
X83500Y451500D01*
X140500D01*
X76200Y458800D02*
Y472440D01*
X140500Y451500D02*
X145000Y447000D01*
X213360Y508000D02*
X252360Y469000D01*
X572000D01*
X303530Y209530D02*
X318500Y224500D01*
X303530Y172974D02*
Y209530D01*
X327350Y173284D02*
Y208693D01*
Y173284D02*
X327660Y172974D01*
X325000Y211043D02*
Y243000D01*
Y211043D02*
X327350Y208693D01*
X282500Y483000D02*
X293516D01*
X314960Y504444D01*
X284144Y183306D02*
X290450Y189612D01*
X253500Y183500D02*
X283950D01*
X284144Y183306D01*
X247000Y177000D02*
X253500Y183500D01*
X614000Y343000D02*
Y420500D01*
Y343000D02*
X648000Y309000D01*
X548000Y413000D02*
X572500D01*
X540000Y421000D02*
X548000Y413000D01*
X251206Y481584D02*
X257716Y475074D01*
X251206Y481584D02*
Y517144D01*
X213360Y508000D02*
Y508000D01*
X147000Y447000D02*
X564000D01*
X146000Y446000D02*
X147000Y447000D01*
X572000Y469000D02*
X601000Y440000D01*
X257716Y475074D02*
X574921D01*
X607000Y442995D01*
X655998Y172998D02*
Y216002D01*
X625368Y142368D02*
X655998Y172998D01*
X635000Y237000D02*
X655998Y216002D01*
X607000Y341698D02*
X641000Y307698D01*
X601000Y340627D02*
Y440000D01*
X641000Y241000D02*
Y307698D01*
X648000Y243000D02*
Y309000D01*
X635000Y237000D02*
Y306627D01*
X607000Y341698D02*
Y442995D01*
X601000Y340627D02*
X635000Y306627D01*
X648000Y243000D02*
X670000Y221000D01*
X641000Y241000D02*
X663688Y218312D01*
X609888Y142368D02*
X625368D01*
X313000Y438000D02*
X551000D01*
X663688Y169404D02*
Y218312D01*
X670000Y159310D02*
X670560Y158750D01*
X670000Y159310D02*
Y221000D01*
X544000Y431000D02*
X554000Y421000D01*
X319947Y431000D02*
X320373Y430574D01*
X322695D01*
X323121Y431000D01*
X544000D01*
X294000Y405000D02*
X310000Y421000D01*
X540000D01*
X595250Y127730D02*
X609888Y142368D01*
X276000Y405000D02*
X294000D01*
X273000Y408000D02*
X276000Y405000D01*
X222000D02*
X222257D01*
X225257Y408000D01*
X273000D01*
X79500Y370500D02*
X86000Y364000D01*
X73308Y370500D02*
X79500D01*
X69500Y366692D02*
X73308Y370500D01*
X69500Y299500D02*
Y366692D01*
X76000Y324000D02*
Y364000D01*
X59000Y289000D02*
X69500Y299500D01*
X59000Y277000D02*
Y289000D01*
X620650Y126366D02*
X663688Y169404D01*
X595250Y125730D02*
Y127730D01*
X290450Y189612D02*
Y201930D01*
X114118Y193783D02*
X120335Y200000D01*
X156700D01*
X114074Y215190D02*
X119993Y209272D01*
X114074Y215190D02*
Y215411D01*
X119993Y209272D02*
X165802D01*
X314960Y504444D02*
Y508000D01*
X620650Y125730D02*
Y126366D01*
D16*
X93160Y497840D02*
X106000Y485000D01*
Y462000D02*
Y485000D01*
X76200Y497840D02*
X93160D01*
X54000Y525000D02*
X60688D01*
X63754Y528066D01*
X76200Y497840D02*
X77000Y498640D01*
X680168Y140000D02*
X680214Y139954D01*
X660765Y107235D02*
X662000Y106000D01*
X660765Y153695D02*
X661130Y154061D01*
X77000Y498640D02*
Y528000D01*
X660400Y355600D02*
X661912Y354088D01*
Y309360D02*
X663424Y307848D01*
D28*
X246300Y81900D02*
D03*
D67*
X598424Y262848D02*
D03*
Y307848D02*
D03*
X663424D02*
D03*
X246300Y16900D02*
D03*
X201300D02*
D03*
Y81900D02*
D03*
D68*
X663424Y262848D02*
D03*
D75*
X185000Y199000D02*
X185800D01*
X204224Y217424D01*
X244602D01*
D77*
X589000Y340606D02*
Y437142D01*
X567142Y459000D02*
X589000Y437142D01*
X244000Y459000D02*
X567142D01*
X220500Y482500D02*
X244000Y459000D01*
X589000Y340606D02*
X626000Y303606D01*
Y232000D02*
Y303606D01*
X646000Y179000D02*
Y212000D01*
X626000Y232000D02*
X646000Y212000D01*
X620000Y153000D02*
X646000Y179000D01*
X612000Y153000D02*
X620000D01*
D79*
X416560Y508000D02*
D03*
X279400Y25400D02*
D03*
X635000Y508000D02*
D03*
X508000Y25400D02*
D03*
X116200Y88000D02*
D03*
X620650Y201930D02*
D03*
D80*
X187960Y508000D02*
D03*
X213360D02*
D03*
X238760D02*
D03*
X264160D02*
D03*
X289560D02*
D03*
X314960D02*
D03*
X340360D02*
D03*
X365760D02*
D03*
X391160D02*
D03*
X431800Y25400D02*
D03*
X330200D02*
D03*
X381000D02*
D03*
X406400D02*
D03*
X355600D02*
D03*
X304800D02*
D03*
X457200D02*
D03*
X482600Y508000D02*
D03*
X584200D02*
D03*
X533400D02*
D03*
X508000D02*
D03*
X558800D02*
D03*
X609600D02*
D03*
X457200D02*
D03*
X533400Y25400D02*
D03*
X584200D02*
D03*
X635000D02*
D03*
X609600D02*
D03*
X558800D02*
D03*
X167000Y88000D02*
D03*
X141600D02*
D03*
X595250Y201930D02*
D03*
X569850D02*
D03*
X544450D02*
D03*
X519050D02*
D03*
X493650D02*
D03*
X468250D02*
D03*
X442850D02*
D03*
X417450D02*
D03*
X392050D02*
D03*
X366650D02*
D03*
X341250D02*
D03*
X315850D02*
D03*
X290450D02*
D03*
X620650Y125730D02*
D03*
X595250D02*
D03*
X569850D02*
D03*
X544450D02*
D03*
X519050D02*
D03*
X493650D02*
D03*
X468250D02*
D03*
X442850D02*
D03*
X417450D02*
D03*
X392050D02*
D03*
X366650D02*
D03*
X341250D02*
D03*
X315850D02*
D03*
X290450D02*
D03*
D81*
X152400Y508000D02*
D03*
D82*
X21336Y23876D02*
D03*
Y131572D02*
D03*
D83*
X146000Y395200D02*
D03*
Y369800D02*
D03*
Y420600D02*
D03*
X662000Y418200D02*
D03*
Y443600D02*
D03*
D84*
X146000Y446000D02*
D03*
X662000Y469000D02*
D03*
D85*
X139700Y25400D02*
D03*
X660400Y76200D02*
D03*
Y355600D02*
D03*
D86*
X76200Y497840D02*
D03*
X50800D02*
D03*
X25400D02*
D03*
X76200Y472440D02*
D03*
X50800D02*
D03*
X76200Y411480D02*
D03*
X50800D02*
D03*
X25400D02*
D03*
X76200Y386080D02*
D03*
X50800D02*
D03*
X25400Y342000D02*
D03*
X50800Y316600D02*
D03*
X25400D02*
D03*
D87*
Y472440D02*
D03*
Y386080D02*
D03*
X50800Y342000D02*
D03*
D88*
X21995Y234000D02*
D03*
Y168000D02*
D03*
D89*
X155448Y272288D02*
D03*
X103378Y250937D02*
D03*
X572000Y440000D02*
D03*
X573500Y426000D02*
D03*
X106000Y171000D02*
D03*
X168500Y176000D02*
D03*
Y185000D02*
D03*
Y167500D02*
D03*
X124500Y171000D02*
D03*
X115000D02*
D03*
Y162000D02*
D03*
X283000Y438000D02*
D03*
X283210Y417576D02*
D03*
X244500Y437500D02*
D03*
X477000Y252000D02*
D03*
X397000D02*
D03*
X318500Y224500D02*
D03*
X325000Y243000D02*
D03*
X305500Y96000D02*
D03*
X285500Y337500D02*
D03*
X258654Y221500D02*
D03*
X282500Y483000D02*
D03*
X247000Y177000D02*
D03*
X626000Y182000D02*
D03*
X320000Y430000D02*
D03*
X614000Y420500D02*
D03*
X572500Y413000D02*
D03*
X571000Y387500D02*
D03*
X614500Y73750D02*
D03*
X615000Y56750D02*
D03*
X399000Y97750D02*
D03*
X407750Y88500D02*
D03*
X318000Y68000D02*
D03*
X45000Y437000D02*
D03*
X52000Y427000D02*
D03*
X36000D02*
D03*
X206000Y405000D02*
D03*
X185000Y199000D02*
D03*
X313000Y438000D02*
D03*
X554000Y421000D02*
D03*
X446000Y218000D02*
D03*
X222000Y405000D02*
D03*
X195000Y432000D02*
D03*
X86000Y364000D02*
D03*
X76000Y324000D02*
D03*
Y364000D02*
D03*
X59000Y277000D02*
D03*
X571500Y402000D02*
D03*
X243000Y203000D02*
D03*
X349000Y88000D02*
D03*
X408750Y108750D02*
D03*
X456750Y114750D02*
D03*
X483250Y102250D02*
D03*
X54000Y525000D02*
D03*
X177000Y420000D02*
D03*
X167000Y412000D02*
D03*
X202000Y132000D02*
D03*
X256000Y127000D02*
D03*
X87500Y110900D02*
D03*
X59690Y234442D02*
D03*
X59622Y220127D02*
D03*
X159000Y176000D02*
D03*
X77237Y226702D02*
D03*
X192024Y140716D02*
D03*
X318000Y77000D02*
D03*
X680214Y139954D02*
D03*
X661130Y154061D02*
D03*
X462534Y43180D02*
D03*
X81280Y291084D02*
D03*
X80772Y252476D02*
D03*
X230361Y332977D02*
D03*
X140716Y234950D02*
D03*
X205994Y227584D02*
D03*
X179832Y206502D02*
D03*
X228346Y250952D02*
D03*
X214630Y288036D02*
D03*
X153162Y139700D02*
D03*
X78232Y182626D02*
D03*
X41378Y286185D02*
D03*
X244602Y217424D02*
D03*
X87300Y99800D02*
D03*
X156700Y200000D02*
D03*
X166240Y208836D02*
D03*
X114118Y193783D02*
D03*
X114074Y215411D02*
D03*
X670560Y158750D02*
D03*
X327660Y172974D02*
D03*
X303530D02*
D03*
D90*
X220500Y482500D02*
D03*
X612000Y153000D02*
D03*
M02*
