G04*
G04 #@! TF.GenerationSoftware,Altium Limited,Altium Designer,20.1.7 (139)*
G04*
G04 Layer_Color=8421504*
%FSLAX44Y44*%
%MOMM*%
G71*
G04*
G04 #@! TF.SameCoordinates,5176B2A9-6DC6-4D15-A643-430D7AC4E40B*
G04*
G04*
G04 #@! TF.FilePolarity,Positive*
G04*
G01*
G75*
%ADD17R,3.5000X2.2000*%
%ADD18R,0.6000X2.2000*%
%ADD19R,2.5000X1.6000*%
%ADD20R,1.6000X2.5000*%
%ADD21R,1.0000X0.5500*%
%ADD22R,0.5500X1.0000*%
%ADD23R,1.6000X3.0000*%
%ADD24R,2.7000X2.0000*%
%ADD25R,0.8000X0.8000*%
%ADD26R,1.3500X0.4000*%
%ADD27R,1.4000X1.6000*%
%ADD28R,1.9000X1.9000*%
%ADD29R,0.5500X1.5000*%
%ADD30R,1.5000X0.5500*%
%ADD31R,0.6858X0.5588*%
%ADD32R,0.5588X0.6858*%
%ADD33R,1.3000X0.7000*%
%ADD34R,0.7000X1.3000*%
%ADD35R,0.9000X0.6000*%
%ADD36R,1.3000X0.9000*%
%ADD37R,0.9000X1.3000*%
D17*
X162306Y177558D02*
D03*
D18*
X187706Y115558D02*
D03*
X175006D02*
D03*
X162306D02*
D03*
X149606D02*
D03*
X136906D02*
D03*
D19*
X412380Y282956D02*
D03*
X461380D02*
D03*
D20*
X264160Y316092D02*
D03*
Y267092D02*
D03*
D21*
X167856Y440792D02*
D03*
Y431292D02*
D03*
Y421792D02*
D03*
X194856Y440792D02*
D03*
Y421792D02*
D03*
X211036Y159106D02*
D03*
Y149606D02*
D03*
Y140106D02*
D03*
X238036Y159106D02*
D03*
Y140106D02*
D03*
D22*
X49784Y249606D02*
D03*
X59284D02*
D03*
X68784D02*
D03*
X49784Y276606D02*
D03*
X68784D02*
D03*
X671170Y169964D02*
D03*
X661670D02*
D03*
X652170D02*
D03*
X671170Y142964D02*
D03*
X652170D02*
D03*
D23*
X71628Y134620D02*
D03*
Y93620D02*
D03*
Y60198D02*
D03*
Y19198D02*
D03*
D24*
X22098Y93978D02*
D03*
Y61978D02*
D03*
D25*
X574930Y373126D02*
D03*
X590930D02*
D03*
X237872Y420370D02*
D03*
X253872D02*
D03*
X237364Y395986D02*
D03*
X253364D02*
D03*
X237364Y379476D02*
D03*
X253364D02*
D03*
D26*
X48745Y214000D02*
D03*
Y207500D02*
D03*
Y201000D02*
D03*
Y194500D02*
D03*
Y188000D02*
D03*
D27*
X46495Y233000D02*
D03*
Y169000D02*
D03*
D28*
X21995Y213000D02*
D03*
Y189000D02*
D03*
D29*
X187500Y258000D02*
D03*
X179500D02*
D03*
X171500D02*
D03*
X163500D02*
D03*
X155500D02*
D03*
X147500D02*
D03*
X139500D02*
D03*
X131500D02*
D03*
Y342000D02*
D03*
X139500D02*
D03*
X147500D02*
D03*
X155500D02*
D03*
X163500D02*
D03*
X171500D02*
D03*
X179500D02*
D03*
X187500D02*
D03*
D30*
X117500Y272000D02*
D03*
Y280000D02*
D03*
Y288000D02*
D03*
Y296000D02*
D03*
Y304000D02*
D03*
Y312000D02*
D03*
Y320000D02*
D03*
Y328000D02*
D03*
X201500D02*
D03*
Y320000D02*
D03*
Y312000D02*
D03*
Y304000D02*
D03*
Y296000D02*
D03*
Y288000D02*
D03*
Y280000D02*
D03*
Y272000D02*
D03*
D31*
X13208Y271272D02*
D03*
Y295656D02*
D03*
D32*
X627126Y244348D02*
D03*
X602742D02*
D03*
D33*
X172974Y403962D02*
D03*
Y384962D02*
D03*
X96774Y262788D02*
D03*
Y281788D02*
D03*
X233426Y282194D02*
D03*
Y263194D02*
D03*
X612902Y471932D02*
D03*
Y452932D02*
D03*
X587248Y471932D02*
D03*
Y452932D02*
D03*
X636000Y434000D02*
D03*
Y415000D02*
D03*
X667244Y205920D02*
D03*
Y186920D02*
D03*
X31496Y295758D02*
D03*
Y276758D02*
D03*
X667244Y223852D02*
D03*
Y242852D02*
D03*
X274574Y50190D02*
D03*
Y69190D02*
D03*
X260096Y159106D02*
D03*
Y140106D02*
D03*
X645400Y223852D02*
D03*
Y242852D02*
D03*
X330708Y67716D02*
D03*
Y86716D02*
D03*
Y48666D02*
D03*
Y67666D02*
D03*
D34*
X272440Y439420D02*
D03*
X291440D02*
D03*
X272440Y417576D02*
D03*
X291440D02*
D03*
X84988Y348234D02*
D03*
X103988D02*
D03*
X106122Y215392D02*
D03*
X87122D02*
D03*
X106122Y193802D02*
D03*
X87122D02*
D03*
X87020Y172212D02*
D03*
X106020D02*
D03*
X367080Y99568D02*
D03*
X386080D02*
D03*
X625450Y227330D02*
D03*
X606450D02*
D03*
X254102Y439674D02*
D03*
X235102D02*
D03*
X408736Y230632D02*
D03*
X427736D02*
D03*
X590144Y353822D02*
D03*
X571144D02*
D03*
X33528Y255016D02*
D03*
X14528D02*
D03*
X272440Y89154D02*
D03*
X291440D02*
D03*
X148946Y213868D02*
D03*
X129946D02*
D03*
D35*
X69850Y226702D02*
D03*
Y211702D02*
D03*
Y182612D02*
D03*
Y197612D02*
D03*
D36*
X228092Y219862D02*
D03*
Y238862D02*
D03*
X206000Y220000D02*
D03*
Y239000D02*
D03*
X233426Y300024D02*
D03*
Y319024D02*
D03*
X182000Y220000D02*
D03*
Y239000D02*
D03*
X21844Y450698D02*
D03*
Y431698D02*
D03*
X636000Y453000D02*
D03*
Y472000D02*
D03*
X116300Y131700D02*
D03*
Y112700D02*
D03*
X210820Y101752D02*
D03*
Y120752D02*
D03*
X304800Y50342D02*
D03*
Y69342D02*
D03*
X352552Y67564D02*
D03*
Y48564D02*
D03*
X213614Y440538D02*
D03*
Y421538D02*
D03*
X228092Y201778D02*
D03*
Y182778D02*
D03*
X645400Y205920D02*
D03*
Y186920D02*
D03*
X235712Y120498D02*
D03*
Y101498D02*
D03*
X206248Y182676D02*
D03*
Y201676D02*
D03*
X442722Y60756D02*
D03*
Y79756D02*
D03*
D37*
X129946Y235458D02*
D03*
X148946D02*
D03*
X254406Y345186D02*
D03*
X273406D02*
D03*
Y238252D02*
D03*
X254406D02*
D03*
X400152Y51308D02*
D03*
X381152D02*
D03*
X19964Y520192D02*
D03*
X38964D02*
D03*
X445770Y230632D02*
D03*
X464770D02*
D03*
X481534Y77978D02*
D03*
X462534D02*
D03*
X257658Y481584D02*
D03*
X238658D02*
D03*
X422910Y77978D02*
D03*
X403910D02*
D03*
X404012Y99568D02*
D03*
X423012D02*
D03*
X440842D02*
D03*
X459842D02*
D03*
X464770Y252222D02*
D03*
X445770D02*
D03*
X408838D02*
D03*
X427838D02*
D03*
X650900Y125984D02*
D03*
X669900D02*
D03*
X51206Y293878D02*
D03*
X70206D02*
D03*
X106122Y236982D02*
D03*
X87122D02*
D03*
X570890Y331978D02*
D03*
X589890D02*
D03*
X481432Y56388D02*
D03*
X462432D02*
D03*
M02*
