G04*
G04 #@! TF.GenerationSoftware,Altium Limited,Altium Designer,20.1.7 (139)*
G04*
G04 Layer_Color=16711935*
%FSLAX44Y44*%
%MOMM*%
G71*
G04*
G04 #@! TF.SameCoordinates,5176B2A9-6DC6-4D15-A643-430D7AC4E40B*
G04*
G04*
G04 #@! TF.FilePolarity,Negative*
G04*
G01*
G75*
%ADD50R,2.1000X2.1000*%
%ADD60R,1.8000X2.2000*%
%ADD61O,1.8000X2.2000*%
%ADD62C,3.4000*%
%ADD63C,4.2000*%
%ADD64O,2.2000X1.8000*%
%ADD65R,2.2000X1.8000*%
%ADD66C,7.6000*%
%ADD67C,1.9000*%
%ADD68R,1.9000X1.9000*%
%ADD69C,2.1000*%
%ADD70R,2.1000X2.1000*%
G04:AMPARAMS|DCode=71|XSize=2.2mm|YSize=1.4mm|CornerRadius=0.46mm|HoleSize=0mm|Usage=FLASHONLY|Rotation=0.000|XOffset=0mm|YOffset=0mm|HoleType=Round|Shape=RoundedRectangle|*
%AMROUNDEDRECTD71*
21,1,2.2000,0.4800,0,0,0.0*
21,1,1.2800,1.4000,0,0,0.0*
1,1,0.9200,0.6400,-0.2400*
1,1,0.9200,-0.6400,-0.2400*
1,1,0.9200,-0.6400,0.2400*
1,1,0.9200,0.6400,0.2400*
%
%ADD71ROUNDEDRECTD71*%
%ADD72C,0.8000*%
%ADD73C,1.2000*%
G36*
X514770Y378054D02*
X517230D01*
Y377439D01*
X518767D01*
Y377746D01*
X519074D01*
Y377131D01*
X520611D01*
Y376824D01*
X521841D01*
Y376516D01*
X522456D01*
Y376209D01*
X522763D01*
Y375901D01*
X523378D01*
Y376209D01*
X523686D01*
Y375594D01*
X524608D01*
Y375287D01*
X525223D01*
Y374979D01*
X526145D01*
Y374672D01*
X526760D01*
Y374057D01*
X527682D01*
Y373750D01*
X527990D01*
Y373442D01*
X528605D01*
Y373135D01*
X529219D01*
Y372520D01*
X529834D01*
Y372212D01*
X530142D01*
Y371905D01*
X531064D01*
Y371598D01*
X531371D01*
Y371290D01*
X531679D01*
Y370983D01*
X531986D01*
Y370675D01*
X532294D01*
Y370368D01*
X532601D01*
Y370060D01*
X532909D01*
Y369753D01*
X533216D01*
Y369446D01*
X533523D01*
Y369138D01*
X533831D01*
Y368831D01*
X534138D01*
Y368523D01*
X534446D01*
Y368216D01*
X534753D01*
Y367908D01*
X535060D01*
Y367601D01*
X535368D01*
Y367294D01*
X535675D01*
Y366679D01*
X535983D01*
Y366064D01*
X536598D01*
Y365756D01*
X536905D01*
Y365142D01*
X537212D01*
Y364527D01*
X537520D01*
Y363912D01*
X537827D01*
Y363297D01*
X538135D01*
Y362990D01*
X538442D01*
Y362375D01*
X538750D01*
Y362067D01*
X539057D01*
Y361145D01*
X539364D01*
Y360223D01*
X539672D01*
Y359915D01*
X539979D01*
Y358993D01*
X540287D01*
Y358071D01*
X540594D01*
Y356534D01*
X540901D01*
Y355304D01*
X541209D01*
Y354996D01*
X541516D01*
Y352845D01*
X541824D01*
Y346389D01*
X541516D01*
Y344237D01*
X541209D01*
Y343929D01*
X540901D01*
Y342700D01*
X540594D01*
Y341162D01*
X540287D01*
Y339933D01*
X539979D01*
Y339318D01*
X539672D01*
Y339010D01*
X539364D01*
Y338088D01*
X539057D01*
Y337166D01*
X538750D01*
Y336858D01*
X538442D01*
Y336244D01*
X538135D01*
Y335936D01*
X537827D01*
Y335321D01*
X537520D01*
Y334706D01*
X537212D01*
Y334092D01*
X536905D01*
Y333477D01*
X536598D01*
Y333169D01*
X535983D01*
Y332555D01*
X535675D01*
Y331940D01*
X535368D01*
Y331632D01*
X535060D01*
Y331325D01*
X534753D01*
Y331017D01*
X534446D01*
Y330710D01*
X534138D01*
Y330402D01*
X533831D01*
Y330095D01*
X533523D01*
Y329788D01*
X533216D01*
Y329480D01*
X532909D01*
Y329173D01*
X532601D01*
Y328865D01*
X532294D01*
Y328558D01*
X531986D01*
Y328251D01*
X531679D01*
Y327943D01*
X531371D01*
Y327636D01*
X531064D01*
Y327328D01*
X530142D01*
Y327021D01*
X529834D01*
Y326406D01*
X529527D01*
Y326099D01*
X528605D01*
Y325791D01*
X528297D01*
Y325484D01*
X527682D01*
Y325176D01*
X526760D01*
Y324561D01*
X526452D01*
Y324869D01*
X526145D01*
Y324254D01*
X525223D01*
Y323946D01*
X524608D01*
Y323639D01*
X523686D01*
Y323024D01*
X523378D01*
Y323332D01*
X523071D01*
Y322717D01*
X521841D01*
Y322409D01*
X520611D01*
Y322102D01*
X519074D01*
Y321487D01*
X518767D01*
Y321795D01*
X517845D01*
Y321487D01*
X517537D01*
Y321180D01*
X514770D01*
Y320872D01*
X508314D01*
Y321180D01*
X505855D01*
Y321487D01*
X505547D01*
Y321795D01*
X504625D01*
Y321487D01*
X504318D01*
Y322102D01*
X502781D01*
Y322409D01*
X501551D01*
Y322717D01*
X500321D01*
Y323024D01*
X499706D01*
Y323639D01*
X498784D01*
Y323946D01*
X498169D01*
Y324254D01*
X497247D01*
Y324561D01*
X496632D01*
Y325176D01*
X495710D01*
Y325484D01*
X495095D01*
Y325791D01*
X494480D01*
Y326099D01*
X494173D01*
Y326713D01*
X493251D01*
Y327021D01*
X492943D01*
Y327328D01*
X492636D01*
Y327636D01*
X492328D01*
Y328251D01*
X492021D01*
Y328558D01*
X491406D01*
Y328865D01*
X490791D01*
Y329173D01*
X490484D01*
Y329480D01*
X490176D01*
Y329788D01*
X489869D01*
Y330095D01*
X489561D01*
Y330402D01*
X489254D01*
Y330710D01*
X488946D01*
Y331017D01*
X488639D01*
Y331325D01*
X488332D01*
Y331632D01*
X488024D01*
Y331940D01*
X487717D01*
Y332555D01*
X487409D01*
Y332862D01*
X487102D01*
Y333169D01*
X486795D01*
Y333477D01*
X486487D01*
Y334092D01*
X486180D01*
Y334706D01*
X485872D01*
Y335321D01*
X485257D01*
Y336244D01*
X484950D01*
Y336858D01*
X484643D01*
Y337781D01*
X484335D01*
Y338396D01*
X483720D01*
Y339318D01*
X483413D01*
Y340240D01*
X483105D01*
Y341162D01*
X482798D01*
Y342392D01*
X482491D01*
Y342700D01*
X482183D01*
Y344237D01*
X481876D01*
Y346696D01*
X481261D01*
Y352537D01*
X481876D01*
Y354996D01*
X482183D01*
Y356534D01*
X482491D01*
Y356841D01*
X482798D01*
Y358071D01*
X483105D01*
Y358993D01*
X483413D01*
Y359915D01*
X483720D01*
Y360838D01*
X484335D01*
Y361452D01*
X484643D01*
Y362375D01*
X484950D01*
Y362990D01*
X485257D01*
Y363912D01*
X485872D01*
Y364219D01*
X486180D01*
Y365142D01*
X486487D01*
Y365756D01*
X486795D01*
Y366064D01*
X487102D01*
Y366371D01*
X487409D01*
Y366679D01*
X487717D01*
Y366986D01*
X488024D01*
Y367601D01*
X488332D01*
Y367908D01*
X488639D01*
Y368216D01*
X488946D01*
Y368523D01*
X489254D01*
Y368831D01*
X489561D01*
Y369138D01*
X489869D01*
Y369446D01*
X490176D01*
Y369753D01*
X490484D01*
Y370060D01*
X490791D01*
Y370368D01*
X491099D01*
Y370675D01*
X491406D01*
Y370983D01*
X491713D01*
Y371290D01*
X492021D01*
Y371598D01*
X492636D01*
Y371905D01*
X492943D01*
Y372212D01*
X493251D01*
Y372520D01*
X494173D01*
Y373135D01*
X494480D01*
Y373442D01*
X495402D01*
Y373750D01*
X495710D01*
Y374057D01*
X496632D01*
Y374672D01*
X497247D01*
Y374979D01*
X498169D01*
Y375287D01*
X498784D01*
Y375594D01*
X499706D01*
Y376209D01*
X500014D01*
Y375901D01*
X500629D01*
Y376516D01*
X501858D01*
Y376824D01*
X503088D01*
Y377131D01*
X504318D01*
Y377746D01*
X504625D01*
Y377439D01*
X505855D01*
Y377746D01*
X506162D01*
Y378054D01*
X508929D01*
Y378361D01*
X514770D01*
Y378054D01*
D02*
G37*
%LPC*%
G36*
X513541Y375594D02*
X512618D01*
Y374979D01*
X513233D01*
Y375287D01*
X513541D01*
Y375594D01*
D02*
G37*
G36*
X492328Y362990D02*
X492021D01*
Y361760D01*
X492943D01*
Y362682D01*
X492328D01*
Y362990D01*
D02*
G37*
G36*
X505240Y359915D02*
X500014D01*
Y357149D01*
X499706D01*
Y357456D01*
X497862D01*
Y356841D01*
X496940D01*
Y356534D01*
X496325D01*
Y356226D01*
X495710D01*
Y355611D01*
X495402D01*
Y355304D01*
X494788D01*
Y354996D01*
X494480D01*
Y354689D01*
X494173D01*
Y354074D01*
X493865D01*
Y353767D01*
X493251D01*
Y353459D01*
X492943D01*
Y352537D01*
X492636D01*
Y352230D01*
X492328D01*
Y351615D01*
X492021D01*
Y351307D01*
X491713D01*
Y350693D01*
X491406D01*
Y349463D01*
X491099D01*
Y348848D01*
X490791D01*
Y336551D01*
X491099D01*
Y335321D01*
X491406D01*
Y335014D01*
X491713D01*
Y334399D01*
X492021D01*
Y334092D01*
X492328D01*
Y333477D01*
X492636D01*
Y333169D01*
X492943D01*
Y332862D01*
X493251D01*
Y332555D01*
X493558D01*
Y332247D01*
X493865D01*
Y331940D01*
X494173D01*
Y331632D01*
X494480D01*
Y331017D01*
X494788D01*
Y331325D01*
X495095D01*
Y331017D01*
X495402D01*
Y330710D01*
X495710D01*
Y330402D01*
X496325D01*
Y330095D01*
X497247D01*
Y329480D01*
X497862D01*
Y329788D01*
X498169D01*
Y329480D01*
X498477D01*
Y329173D01*
X499399D01*
Y328865D01*
X500014D01*
Y327328D01*
X505240D01*
Y338703D01*
X515385D01*
Y329173D01*
X516000D01*
Y328865D01*
X516922D01*
Y328558D01*
X517845D01*
Y328251D01*
X518152D01*
Y327943D01*
X519074D01*
Y328251D01*
X519382D01*
Y327636D01*
X524915D01*
Y328251D01*
X525223D01*
Y327943D01*
X526452D01*
Y328558D01*
X527682D01*
Y328865D01*
X528297D01*
Y329173D01*
X529219D01*
Y329788D01*
X529527D01*
Y329480D01*
X529834D01*
Y330095D01*
X530756D01*
Y330402D01*
X531064D01*
Y330710D01*
X531371D01*
Y331017D01*
X531679D01*
Y331325D01*
X531986D01*
Y331632D01*
X532294D01*
Y331940D01*
X532909D01*
Y332555D01*
X533216D01*
Y332862D01*
X533523D01*
Y333169D01*
X533831D01*
Y333477D01*
X534138D01*
Y333784D01*
X534446D01*
Y334706D01*
X535060D01*
Y335629D01*
X535368D01*
Y346389D01*
X535060D01*
Y347311D01*
X534446D01*
Y347926D01*
X534138D01*
Y348541D01*
X533831D01*
Y349156D01*
X533523D01*
Y349463D01*
X533216D01*
Y349770D01*
X532909D01*
Y350385D01*
X532601D01*
Y350693D01*
X532294D01*
Y351000D01*
X531986D01*
Y351307D01*
X531679D01*
Y351615D01*
X531371D01*
Y351922D01*
X531064D01*
Y352230D01*
X530756D01*
Y352537D01*
X530449D01*
Y353152D01*
X529527D01*
Y353459D01*
X529219D01*
Y353767D01*
X528912D01*
Y354382D01*
X528297D01*
Y354074D01*
X527990D01*
Y354689D01*
X527375D01*
Y354996D01*
X526452D01*
Y355304D01*
X525838D01*
Y355919D01*
X524300D01*
Y356226D01*
X506162D01*
Y351307D01*
X506470D01*
Y350693D01*
X510466D01*
Y351000D01*
X518459D01*
Y350693D01*
X521841D01*
Y350385D01*
X523378D01*
Y350078D01*
X524608D01*
Y349463D01*
X525530D01*
Y349156D01*
X526452D01*
Y348848D01*
X527067D01*
Y348541D01*
X527682D01*
Y348233D01*
X527990D01*
Y347618D01*
X528297D01*
Y347311D01*
X528605D01*
Y347004D01*
X529219D01*
Y346696D01*
X529527D01*
Y346081D01*
X529834D01*
Y345466D01*
X530142D01*
Y344544D01*
X530449D01*
Y344237D01*
X530756D01*
Y343007D01*
X531064D01*
Y339625D01*
X530756D01*
Y338088D01*
X530142D01*
Y337781D01*
X529834D01*
Y337166D01*
X529527D01*
Y336551D01*
X529219D01*
Y336244D01*
X528912D01*
Y335936D01*
X528605D01*
Y335321D01*
X528297D01*
Y335014D01*
X527682D01*
Y334706D01*
X527375D01*
Y334399D01*
X526452D01*
Y333784D01*
X525530D01*
Y333477D01*
X524915D01*
Y333169D01*
X523686D01*
Y332862D01*
X521841D01*
Y333169D01*
X520611D01*
Y344237D01*
X505240D01*
Y359915D01*
D02*
G37*
%LPD*%
G36*
X500014Y334706D02*
X499092D01*
Y335014D01*
X498477D01*
Y335321D01*
X497555D01*
Y335629D01*
X497247D01*
Y336244D01*
X496940D01*
Y336858D01*
X496632D01*
Y337166D01*
X496325D01*
Y337473D01*
X496017D01*
Y338088D01*
X495710D01*
Y339318D01*
X495402D01*
Y340855D01*
X495095D01*
Y345159D01*
X495402D01*
Y346696D01*
X495710D01*
Y347618D01*
X496017D01*
Y348541D01*
X496632D01*
Y349463D01*
X496940D01*
Y349770D01*
X497247D01*
Y350385D01*
X497555D01*
Y350693D01*
X498477D01*
Y351307D01*
X498784D01*
Y351615D01*
X499399D01*
Y351922D01*
X500014D01*
Y334706D01*
D02*
G37*
D50*
X246300Y81900D02*
D03*
D60*
X416560Y508000D02*
D03*
X279400Y25400D02*
D03*
X635000Y508000D02*
D03*
X508000Y25400D02*
D03*
X116200Y88000D02*
D03*
X620650Y201930D02*
D03*
D61*
X187960Y508000D02*
D03*
X213360D02*
D03*
X238760D02*
D03*
X264160D02*
D03*
X289560D02*
D03*
X314960D02*
D03*
X340360D02*
D03*
X365760D02*
D03*
X391160D02*
D03*
X431800Y25400D02*
D03*
X330200D02*
D03*
X381000D02*
D03*
X406400D02*
D03*
X355600D02*
D03*
X304800D02*
D03*
X457200D02*
D03*
X482600Y508000D02*
D03*
X584200D02*
D03*
X533400D02*
D03*
X508000D02*
D03*
X558800D02*
D03*
X609600D02*
D03*
X457200D02*
D03*
X533400Y25400D02*
D03*
X584200D02*
D03*
X635000D02*
D03*
X609600D02*
D03*
X558800D02*
D03*
X167000Y88000D02*
D03*
X141600D02*
D03*
X595250Y201930D02*
D03*
X569850D02*
D03*
X544450D02*
D03*
X519050D02*
D03*
X493650D02*
D03*
X468250D02*
D03*
X442850D02*
D03*
X417450D02*
D03*
X392050D02*
D03*
X366650D02*
D03*
X341250D02*
D03*
X315850D02*
D03*
X290450D02*
D03*
X620650Y125730D02*
D03*
X595250D02*
D03*
X569850D02*
D03*
X544450D02*
D03*
X519050D02*
D03*
X493650D02*
D03*
X468250D02*
D03*
X442850D02*
D03*
X417450D02*
D03*
X392050D02*
D03*
X366650D02*
D03*
X341250D02*
D03*
X315850D02*
D03*
X290450D02*
D03*
D62*
X152400Y508000D02*
D03*
D63*
X21336Y23876D02*
D03*
Y131572D02*
D03*
D64*
X146000Y395200D02*
D03*
Y369800D02*
D03*
Y420600D02*
D03*
X662000Y418200D02*
D03*
Y443600D02*
D03*
D65*
X146000Y446000D02*
D03*
X662000Y469000D02*
D03*
D66*
X139700Y25400D02*
D03*
X660400Y76200D02*
D03*
Y355600D02*
D03*
D67*
X76200Y497840D02*
D03*
X50800D02*
D03*
X25400D02*
D03*
X76200Y472440D02*
D03*
X50800D02*
D03*
X76200Y411480D02*
D03*
X50800D02*
D03*
X25400D02*
D03*
X76200Y386080D02*
D03*
X50800D02*
D03*
X25400Y342000D02*
D03*
X50800Y316600D02*
D03*
X25400D02*
D03*
D68*
Y472440D02*
D03*
Y386080D02*
D03*
X50800Y342000D02*
D03*
D69*
X598424Y262848D02*
D03*
Y307848D02*
D03*
X663424D02*
D03*
X246300Y16900D02*
D03*
X201300D02*
D03*
Y81900D02*
D03*
D70*
X663424Y262848D02*
D03*
D71*
X21995Y234000D02*
D03*
Y168000D02*
D03*
D72*
X155448Y272288D02*
D03*
X103378Y250937D02*
D03*
X572000Y440000D02*
D03*
X573500Y426000D02*
D03*
X283000Y438000D02*
D03*
X283210Y417576D02*
D03*
X477000Y252000D02*
D03*
X397000D02*
D03*
X318500Y224500D02*
D03*
X325000Y243000D02*
D03*
X305500Y96000D02*
D03*
X285500Y337500D02*
D03*
X258654Y221500D02*
D03*
X282500Y483000D02*
D03*
X247000Y177000D02*
D03*
X626000Y182000D02*
D03*
X320000Y430000D02*
D03*
X614000Y420500D02*
D03*
X572500Y413000D02*
D03*
X571000Y387500D02*
D03*
X614500Y73750D02*
D03*
X615000Y56750D02*
D03*
X399000Y97750D02*
D03*
X407750Y88500D02*
D03*
X318000Y68000D02*
D03*
X45000Y437000D02*
D03*
X52000Y427000D02*
D03*
X36000D02*
D03*
X206000Y405000D02*
D03*
X185000Y199000D02*
D03*
X313000Y438000D02*
D03*
X554000Y421000D02*
D03*
X446000Y218000D02*
D03*
X222000Y405000D02*
D03*
X195000Y432000D02*
D03*
X86000Y364000D02*
D03*
X76000Y324000D02*
D03*
Y364000D02*
D03*
X59000Y277000D02*
D03*
X571500Y402000D02*
D03*
X243000Y203000D02*
D03*
X349000Y88000D02*
D03*
X408750Y108750D02*
D03*
X456750Y114750D02*
D03*
X483250Y102250D02*
D03*
X54000Y525000D02*
D03*
X177000Y420000D02*
D03*
X167000Y412000D02*
D03*
X202000Y132000D02*
D03*
X256000Y127000D02*
D03*
X59690Y234442D02*
D03*
X77237Y226702D02*
D03*
X192024Y140716D02*
D03*
X318000Y77000D02*
D03*
X680214Y139954D02*
D03*
X661130Y154061D02*
D03*
X462534Y43180D02*
D03*
X81280Y291084D02*
D03*
X80772Y252476D02*
D03*
X230361Y332977D02*
D03*
X140716Y234950D02*
D03*
X205994Y227584D02*
D03*
X179832Y206502D02*
D03*
X228346Y250952D02*
D03*
X214630Y288036D02*
D03*
X153162Y139700D02*
D03*
X78232Y182626D02*
D03*
X244602Y217424D02*
D03*
X156700Y200000D02*
D03*
X166240Y208836D02*
D03*
X114118Y193783D02*
D03*
X114074Y215411D02*
D03*
X670560Y158750D02*
D03*
X327660Y172974D02*
D03*
X303530D02*
D03*
D73*
X220500Y482500D02*
D03*
X612000Y153000D02*
D03*
M02*
