G04*
G04 #@! TF.GenerationSoftware,Altium Limited,Altium Designer,20.1.7 (139)*
G04*
G04 Layer_Color=8388736*
%FSLAX44Y44*%
%MOMM*%
G71*
G04*
G04 #@! TF.SameCoordinates,5176B2A9-6DC6-4D15-A643-430D7AC4E40B*
G04*
G04*
G04 #@! TF.FilePolarity,Negative*
G04*
G01*
G75*
%ADD38R,3.7000X2.4000*%
%ADD39R,0.8000X2.4000*%
%ADD40R,2.7000X1.8000*%
%ADD41R,1.8000X2.7000*%
%ADD42R,1.2000X0.7500*%
%ADD43R,0.7500X1.2000*%
%ADD44R,1.8000X3.2000*%
%ADD45C,3.0480*%
%ADD46R,2.9000X2.2000*%
%ADD47R,1.0000X1.0000*%
%ADD48R,1.4500X0.5000*%
%ADD49R,1.6000X1.8000*%
%ADD50R,2.1000X2.1000*%
%ADD51R,0.6700X1.6200*%
%ADD52R,1.6200X0.6700*%
%ADD53R,0.8858X0.7588*%
%ADD54R,0.7588X0.8858*%
%ADD55R,1.5000X0.9000*%
%ADD56R,0.9000X1.5000*%
%ADD57R,1.1000X0.8000*%
%ADD58R,1.5000X1.1000*%
%ADD59R,1.1000X1.5000*%
%ADD60R,1.8000X2.2000*%
%ADD61O,1.8000X2.2000*%
%ADD62C,3.4000*%
%ADD63C,4.2000*%
%ADD64O,2.2000X1.8000*%
%ADD65R,2.2000X1.8000*%
%ADD66C,7.6000*%
%ADD67C,1.9000*%
%ADD68R,1.9000X1.9000*%
%ADD69C,2.1000*%
%ADD70R,2.1000X2.1000*%
G04:AMPARAMS|DCode=71|XSize=2.2mm|YSize=1.4mm|CornerRadius=0.46mm|HoleSize=0mm|Usage=FLASHONLY|Rotation=0.000|XOffset=0mm|YOffset=0mm|HoleType=Round|Shape=RoundedRectangle|*
%AMROUNDEDRECTD71*
21,1,2.2000,0.4800,0,0,0.0*
21,1,1.2800,1.4000,0,0,0.0*
1,1,0.9200,0.6400,-0.2400*
1,1,0.9200,-0.6400,-0.2400*
1,1,0.9200,-0.6400,0.2400*
1,1,0.9200,0.6400,0.2400*
%
%ADD71ROUNDEDRECTD71*%
%ADD72C,0.8000*%
%ADD73C,1.2000*%
D38*
X162306Y177558D02*
D03*
D39*
X187706Y115558D02*
D03*
X175006D02*
D03*
X162306D02*
D03*
X149606D02*
D03*
X136906D02*
D03*
D40*
X412380Y282956D02*
D03*
X461380D02*
D03*
D41*
X264160Y316092D02*
D03*
Y267092D02*
D03*
D42*
X167856Y440792D02*
D03*
Y431292D02*
D03*
Y421792D02*
D03*
X194856Y440792D02*
D03*
Y421792D02*
D03*
X211036Y159106D02*
D03*
Y149606D02*
D03*
Y140106D02*
D03*
X238036Y159106D02*
D03*
Y140106D02*
D03*
D43*
X49784Y249606D02*
D03*
X59284D02*
D03*
X68784D02*
D03*
X49784Y276606D02*
D03*
X68784D02*
D03*
X671170Y169964D02*
D03*
X661670D02*
D03*
X652170D02*
D03*
X671170Y142964D02*
D03*
X652170D02*
D03*
D44*
X71628Y134620D02*
D03*
Y93620D02*
D03*
Y60198D02*
D03*
Y19198D02*
D03*
D45*
X106172Y514858D02*
D03*
X667766Y510032D02*
D03*
Y20066D02*
D03*
X224282Y41402D02*
D03*
D46*
X22098Y93978D02*
D03*
Y61978D02*
D03*
D47*
X574930Y373126D02*
D03*
X590930D02*
D03*
X237872Y420370D02*
D03*
X253872D02*
D03*
X237364Y395986D02*
D03*
X253364D02*
D03*
X237364Y379476D02*
D03*
X253364D02*
D03*
D48*
X48745Y214000D02*
D03*
Y207500D02*
D03*
Y201000D02*
D03*
Y194500D02*
D03*
Y188000D02*
D03*
D49*
X46495Y233000D02*
D03*
Y169000D02*
D03*
D50*
X21995Y213000D02*
D03*
Y189000D02*
D03*
X246300Y81900D02*
D03*
D51*
X187500Y258000D02*
D03*
X179500D02*
D03*
X171500D02*
D03*
X163500D02*
D03*
X155500D02*
D03*
X147500D02*
D03*
X139500D02*
D03*
X131500D02*
D03*
Y342000D02*
D03*
X139500D02*
D03*
X147500D02*
D03*
X155500D02*
D03*
X163500D02*
D03*
X171500D02*
D03*
X179500D02*
D03*
X187500D02*
D03*
D52*
X117500Y272000D02*
D03*
Y280000D02*
D03*
Y288000D02*
D03*
Y296000D02*
D03*
Y304000D02*
D03*
Y312000D02*
D03*
Y320000D02*
D03*
Y328000D02*
D03*
X201500D02*
D03*
Y320000D02*
D03*
Y312000D02*
D03*
Y304000D02*
D03*
Y296000D02*
D03*
Y288000D02*
D03*
Y280000D02*
D03*
Y272000D02*
D03*
D53*
X13208Y271272D02*
D03*
Y295656D02*
D03*
D54*
X627126Y244348D02*
D03*
X602742D02*
D03*
D55*
X172974Y403962D02*
D03*
Y384962D02*
D03*
X96774Y262788D02*
D03*
Y281788D02*
D03*
X233426Y282194D02*
D03*
Y263194D02*
D03*
X612902Y471932D02*
D03*
Y452932D02*
D03*
X587248Y471932D02*
D03*
Y452932D02*
D03*
X636000Y434000D02*
D03*
Y415000D02*
D03*
X667244Y205920D02*
D03*
Y186920D02*
D03*
X31496Y295758D02*
D03*
Y276758D02*
D03*
X667244Y223852D02*
D03*
Y242852D02*
D03*
X274574Y50190D02*
D03*
Y69190D02*
D03*
X260096Y159106D02*
D03*
Y140106D02*
D03*
X645400Y223852D02*
D03*
Y242852D02*
D03*
X330708Y67716D02*
D03*
Y86716D02*
D03*
Y48666D02*
D03*
Y67666D02*
D03*
D56*
X272440Y439420D02*
D03*
X291440D02*
D03*
X272440Y417576D02*
D03*
X291440D02*
D03*
X84988Y348234D02*
D03*
X103988D02*
D03*
X106122Y215392D02*
D03*
X87122D02*
D03*
X106122Y193802D02*
D03*
X87122D02*
D03*
X87020Y172212D02*
D03*
X106020D02*
D03*
X367080Y99568D02*
D03*
X386080D02*
D03*
X625450Y227330D02*
D03*
X606450D02*
D03*
X254102Y439674D02*
D03*
X235102D02*
D03*
X408736Y230632D02*
D03*
X427736D02*
D03*
X590144Y353822D02*
D03*
X571144D02*
D03*
X33528Y255016D02*
D03*
X14528D02*
D03*
X272440Y89154D02*
D03*
X291440D02*
D03*
X148946Y213868D02*
D03*
X129946D02*
D03*
D57*
X69850Y226702D02*
D03*
Y211702D02*
D03*
Y182612D02*
D03*
Y197612D02*
D03*
D58*
X228092Y219862D02*
D03*
Y238862D02*
D03*
X206000Y220000D02*
D03*
Y239000D02*
D03*
X233426Y300024D02*
D03*
Y319024D02*
D03*
X182000Y220000D02*
D03*
Y239000D02*
D03*
X21844Y450698D02*
D03*
Y431698D02*
D03*
X636000Y453000D02*
D03*
Y472000D02*
D03*
X116300Y131700D02*
D03*
Y112700D02*
D03*
X210820Y101752D02*
D03*
Y120752D02*
D03*
X304800Y50342D02*
D03*
Y69342D02*
D03*
X352552Y67564D02*
D03*
Y48564D02*
D03*
X213614Y440538D02*
D03*
Y421538D02*
D03*
X228092Y201778D02*
D03*
Y182778D02*
D03*
X645400Y205920D02*
D03*
Y186920D02*
D03*
X235712Y120498D02*
D03*
Y101498D02*
D03*
X206248Y182676D02*
D03*
Y201676D02*
D03*
X442722Y60756D02*
D03*
Y79756D02*
D03*
D59*
X129946Y235458D02*
D03*
X148946D02*
D03*
X254406Y345186D02*
D03*
X273406D02*
D03*
Y238252D02*
D03*
X254406D02*
D03*
X400152Y51308D02*
D03*
X381152D02*
D03*
X19964Y520192D02*
D03*
X38964D02*
D03*
X445770Y230632D02*
D03*
X464770D02*
D03*
X481534Y77978D02*
D03*
X462534D02*
D03*
X257658Y481584D02*
D03*
X238658D02*
D03*
X422910Y77978D02*
D03*
X403910D02*
D03*
X404012Y99568D02*
D03*
X423012D02*
D03*
X440842D02*
D03*
X459842D02*
D03*
X464770Y252222D02*
D03*
X445770D02*
D03*
X408838D02*
D03*
X427838D02*
D03*
X650900Y125984D02*
D03*
X669900D02*
D03*
X51206Y293878D02*
D03*
X70206D02*
D03*
X106122Y236982D02*
D03*
X87122D02*
D03*
X570890Y331978D02*
D03*
X589890D02*
D03*
X481432Y56388D02*
D03*
X462432D02*
D03*
D60*
X416560Y508000D02*
D03*
X279400Y25400D02*
D03*
X635000Y508000D02*
D03*
X508000Y25400D02*
D03*
X116200Y88000D02*
D03*
X620650Y201930D02*
D03*
D61*
X187960Y508000D02*
D03*
X213360D02*
D03*
X238760D02*
D03*
X264160D02*
D03*
X289560D02*
D03*
X314960D02*
D03*
X340360D02*
D03*
X365760D02*
D03*
X391160D02*
D03*
X431800Y25400D02*
D03*
X330200D02*
D03*
X381000D02*
D03*
X406400D02*
D03*
X355600D02*
D03*
X304800D02*
D03*
X457200D02*
D03*
X482600Y508000D02*
D03*
X584200D02*
D03*
X533400D02*
D03*
X508000D02*
D03*
X558800D02*
D03*
X609600D02*
D03*
X457200D02*
D03*
X533400Y25400D02*
D03*
X584200D02*
D03*
X635000D02*
D03*
X609600D02*
D03*
X558800D02*
D03*
X167000Y88000D02*
D03*
X141600D02*
D03*
X595250Y201930D02*
D03*
X569850D02*
D03*
X544450D02*
D03*
X519050D02*
D03*
X493650D02*
D03*
X468250D02*
D03*
X442850D02*
D03*
X417450D02*
D03*
X392050D02*
D03*
X366650D02*
D03*
X341250D02*
D03*
X315850D02*
D03*
X290450D02*
D03*
X620650Y125730D02*
D03*
X595250D02*
D03*
X569850D02*
D03*
X544450D02*
D03*
X519050D02*
D03*
X493650D02*
D03*
X468250D02*
D03*
X442850D02*
D03*
X417450D02*
D03*
X392050D02*
D03*
X366650D02*
D03*
X341250D02*
D03*
X315850D02*
D03*
X290450D02*
D03*
D62*
X152400Y508000D02*
D03*
D63*
X21336Y23876D02*
D03*
Y131572D02*
D03*
D64*
X146000Y395200D02*
D03*
Y369800D02*
D03*
Y420600D02*
D03*
X662000Y418200D02*
D03*
Y443600D02*
D03*
D65*
X146000Y446000D02*
D03*
X662000Y469000D02*
D03*
D66*
X139700Y25400D02*
D03*
X660400Y76200D02*
D03*
Y355600D02*
D03*
D67*
X76200Y497840D02*
D03*
X50800D02*
D03*
X25400D02*
D03*
X76200Y472440D02*
D03*
X50800D02*
D03*
X76200Y411480D02*
D03*
X50800D02*
D03*
X25400D02*
D03*
X76200Y386080D02*
D03*
X50800D02*
D03*
X25400Y342000D02*
D03*
X50800Y316600D02*
D03*
X25400D02*
D03*
D68*
Y472440D02*
D03*
Y386080D02*
D03*
X50800Y342000D02*
D03*
D69*
X598424Y262848D02*
D03*
Y307848D02*
D03*
X663424D02*
D03*
X246300Y16900D02*
D03*
X201300D02*
D03*
Y81900D02*
D03*
D70*
X663424Y262848D02*
D03*
D71*
X21995Y234000D02*
D03*
Y168000D02*
D03*
D72*
X155448Y272288D02*
D03*
X103378Y250937D02*
D03*
X572000Y440000D02*
D03*
X573500Y426000D02*
D03*
X283000Y438000D02*
D03*
X283210Y417576D02*
D03*
X477000Y252000D02*
D03*
X397000D02*
D03*
X318500Y224500D02*
D03*
X325000Y243000D02*
D03*
X305500Y96000D02*
D03*
X285500Y337500D02*
D03*
X258654Y221500D02*
D03*
X282500Y483000D02*
D03*
X247000Y177000D02*
D03*
X626000Y182000D02*
D03*
X320000Y430000D02*
D03*
X614000Y420500D02*
D03*
X572500Y413000D02*
D03*
X571000Y387500D02*
D03*
X614500Y73750D02*
D03*
X615000Y56750D02*
D03*
X399000Y97750D02*
D03*
X407750Y88500D02*
D03*
X318000Y68000D02*
D03*
X45000Y437000D02*
D03*
X52000Y427000D02*
D03*
X36000D02*
D03*
X206000Y405000D02*
D03*
X185000Y199000D02*
D03*
X313000Y438000D02*
D03*
X554000Y421000D02*
D03*
X446000Y218000D02*
D03*
X222000Y405000D02*
D03*
X195000Y432000D02*
D03*
X86000Y364000D02*
D03*
X76000Y324000D02*
D03*
Y364000D02*
D03*
X59000Y277000D02*
D03*
X571500Y402000D02*
D03*
X243000Y203000D02*
D03*
X349000Y88000D02*
D03*
X408750Y108750D02*
D03*
X456750Y114750D02*
D03*
X483250Y102250D02*
D03*
X54000Y525000D02*
D03*
X177000Y420000D02*
D03*
X167000Y412000D02*
D03*
X202000Y132000D02*
D03*
X256000Y127000D02*
D03*
X59690Y234442D02*
D03*
X77237Y226702D02*
D03*
X192024Y140716D02*
D03*
X318000Y77000D02*
D03*
X680214Y139954D02*
D03*
X661130Y154061D02*
D03*
X462534Y43180D02*
D03*
X81280Y291084D02*
D03*
X80772Y252476D02*
D03*
X230361Y332977D02*
D03*
X140716Y234950D02*
D03*
X205994Y227584D02*
D03*
X179832Y206502D02*
D03*
X228346Y250952D02*
D03*
X214630Y288036D02*
D03*
X153162Y139700D02*
D03*
X78232Y182626D02*
D03*
X244602Y217424D02*
D03*
X156700Y200000D02*
D03*
X166240Y208836D02*
D03*
X114118Y193783D02*
D03*
X114074Y215411D02*
D03*
X670560Y158750D02*
D03*
X327660Y172974D02*
D03*
X303530D02*
D03*
D73*
X220500Y482500D02*
D03*
X612000Y153000D02*
D03*
M02*
