G04*
G04 #@! TF.GenerationSoftware,Altium Limited,Altium Designer,20.1.7 (139)*
G04*
G04 Layer_Physical_Order=2*
G04 Layer_Color=16711680*
%FSLAX25Y25*%
%MOIN*%
G70*
G04*
G04 #@! TF.SameCoordinates,A38E65EC-B4ED-41E5-85B1-8330A3BA3D95*
G04*
G04*
G04 #@! TF.FilePolarity,Positive*
G04*
G01*
G75*
%ADD13R,0.03150X0.03150*%
%ADD14R,0.05118X0.02756*%
%ADD20C,0.01968*%
%ADD21R,0.07874X0.06299*%
%ADD22O,0.07874X0.06299*%
%ADD23C,0.02362*%
G36*
X74803Y3937D02*
X62795D01*
Y6890D01*
X55315D01*
Y6686D01*
X44094D01*
Y7382D01*
X38583D01*
Y3937D01*
X3937D01*
Y74803D01*
X74803D01*
Y3937D01*
D02*
G37*
%LPC*%
G36*
X66142Y49606D02*
X55905D01*
Y47483D01*
X37402D01*
X36557Y47315D01*
X35840Y46837D01*
X31903Y42900D01*
X31425Y42184D01*
X31257Y41339D01*
Y25591D01*
X31425Y24746D01*
X31903Y24029D01*
X35840Y20092D01*
X36557Y19614D01*
X37402Y19446D01*
X56172D01*
X56847Y18770D01*
Y14370D01*
X55315D01*
Y9252D01*
X62795D01*
Y14370D01*
X61263D01*
Y19685D01*
X61095Y20530D01*
X60616Y21246D01*
X58648Y23215D01*
X57932Y23693D01*
X57087Y23861D01*
X38316D01*
X35672Y26505D01*
Y40424D01*
X38316Y43068D01*
X55905D01*
Y40945D01*
X66142D01*
Y49606D01*
D02*
G37*
G36*
X61811Y39461D02*
X61524D01*
Y35776D01*
X65931D01*
X65854Y36359D01*
X65436Y37368D01*
X64771Y38235D01*
X63904Y38900D01*
X62894Y39318D01*
X61811Y39461D01*
D02*
G37*
G36*
X60524D02*
X60236D01*
X59153Y39318D01*
X58144Y38900D01*
X57277Y38235D01*
X56612Y37368D01*
X56193Y36359D01*
X56117Y35776D01*
X60524D01*
Y39461D01*
D02*
G37*
G36*
X65931Y34776D02*
X61524D01*
Y31090D01*
X61811D01*
X62894Y31233D01*
X63904Y31651D01*
X64771Y32316D01*
X65436Y33183D01*
X65854Y34192D01*
X65931Y34776D01*
D02*
G37*
G36*
X60524D02*
X56117D01*
X56193Y34192D01*
X56612Y33183D01*
X57277Y32316D01*
X58144Y31651D01*
X59153Y31233D01*
X60236Y31090D01*
X60524D01*
Y34776D01*
D02*
G37*
G36*
X34949Y16888D02*
Y15264D01*
X36573D01*
X36503Y15615D01*
X36021Y16336D01*
X35300Y16818D01*
X34949Y16888D01*
D02*
G37*
G36*
X33949D02*
X33598Y16818D01*
X32876Y16336D01*
X32394Y15615D01*
X32324Y15264D01*
X33949D01*
Y16888D01*
D02*
G37*
G36*
X36573Y14264D02*
X34949D01*
Y12639D01*
X35300Y12709D01*
X36021Y13191D01*
X36503Y13913D01*
X36573Y14264D01*
D02*
G37*
G36*
X33949D02*
X32324D01*
X32394Y13913D01*
X32876Y13191D01*
X33598Y12709D01*
X33949Y12639D01*
Y14264D01*
D02*
G37*
G36*
X43913Y13697D02*
X41839D01*
Y11622D01*
X43913D01*
Y13697D01*
D02*
G37*
G36*
X40839D02*
X38764D01*
Y11622D01*
X40839D01*
Y13697D01*
D02*
G37*
G36*
X43913Y10622D02*
X41839D01*
Y8547D01*
X43913D01*
Y10622D01*
D02*
G37*
G36*
X40839D02*
X38764D01*
Y8547D01*
X40839D01*
Y10622D01*
D02*
G37*
%LPD*%
D13*
X41339Y4626D02*
D03*
Y11122D02*
D03*
D14*
X59055Y4331D02*
D03*
Y11811D02*
D03*
D20*
X37402Y45276D02*
X61024D01*
X33465Y41339D02*
X37402Y45276D01*
X33465Y25591D02*
Y41339D01*
X37402Y21654D02*
X57087D01*
X33465Y25591D02*
X37402Y21654D01*
X59055Y11811D02*
Y19685D01*
X57087Y21654D02*
X59055Y19685D01*
X41339Y4626D02*
X41486Y4478D01*
X58908D01*
X59055Y4331D01*
D21*
X61024Y45276D02*
D03*
D22*
Y35276D02*
D03*
D23*
X34449Y14764D02*
D03*
M02*
