M48
;Layer_Color=9474304
;FILE_FORMAT=4:4
METRIC,LZ
;TYPE=PLATED
T1F00S00C0.3000
T2F00S00C0.5000
T4F00S00C1.0000
T5F00S00C1.1000
T6F00S00C1.5000
T7F00S00C3.2000
;TYPE=NON_PLATED
T8F00S00C3.2000
%
T01
X000873Y000998
X000875Y001109
X00106Y00171
X00115
Y00162
X001245Y00171
X00114118Y00193783
X00114074Y00215411
X00140716Y0023495
X001567Y002
X0016624Y00208836
X00179832Y00206502
X00185Y00199
X001685Y00185
Y00176
Y001675
X00159Y00176
X00153162Y001397
X00192024Y00140716
X00202Y00132
X00256Y00127
X00247Y00177
X00243Y00203
X00244602Y00217424
X00258654Y002215
X00205994Y00227584
X00228346Y00250952
X0021463Y00288036
X00230361Y00332977
X002855Y003375
X00325Y00243
X003185Y002245
X0032766Y00172974
X0030353
X003055Y00096
X00318Y00077
Y00068
X00349Y00088
X00078232Y00182626
X00077237Y00226702
X00059622Y00220127
X0005969Y00234442
X00080772Y00252476
X00103378Y00250937
X0008128Y00291084
X00059Y00277
X00041378Y00286185
X00076Y00324
Y00364
X00086
X00155448Y00272288
X00397Y00252
X00477
X00446Y00218
X0045675Y0011475
X0048325Y0010225
X00462534Y0004318
X0040775Y000885
X00399Y0009775
X0040875Y0010875
X006145Y0007375
X00615Y0005675
X00626Y00182
X0066113Y00154061
X0067056Y0015875
X00680214Y00139954
X00614Y004205
X005735Y00426
X005725Y00413
X005715Y00402
X00571Y003875
X00554Y00421
X00572Y0044
X00313Y00438
X0032Y0043
X00283Y00438
X0028321Y00417576
X002445Y004375
X00222Y00405
X00206
X00195Y00432
X00177Y0042
X00167Y00412
X00052Y00427
X00036
X00045Y00437
X00054Y00525
X002825Y00483
T02
X00612Y00153
X002205Y004825
T04
X002013Y000169
X002463
Y000819
X002013
X00598424Y00262848
Y00307848
X00663424
Y00262848
T05
X001162Y00088
X001416
X00167
X0029045Y0012573
X0031585
X0034125
Y0020193
X0031585
X0029045
X002794Y000254
X003048
X003302
X003556
X000508Y003166
Y00342
X000254
Y003166
X0036665Y0020193
X0039205
X0041745
X0044285
X0046825
X0049365
X0051905
X0054445
X0056985
X0059525
X0062065
Y0012573
X0059525
X0056985
X0054445
X0051905
X0049365
X0046825
X0044285
X0041745
X0039205
X0036665
X00381Y000254
X004064
X004318
X004572
X00508
X005334
X005588
X005842
X006096
X00635
X00662Y004182
Y004436
Y00469
X00635Y00508
X006096
X005842
X005588
X005334
X00508
X004826
X004572
X0041656
X0039116
X0036576
X0034036
X0031496
X0028956
X0026416
X0023876
X0021336
X0018796
X00146Y00446
Y004206
Y003952
Y003698
X000762Y0038608
Y0041148
X000508
X000254
Y0038608
X000508
Y0047244
Y0049784
X000762
Y0047244
X000254
Y0049784
T06
X00021336Y00023876
Y00131572
T07
X001397Y000254
X006604Y000762
Y003556
T08
X001524Y00508
M30
